<svg height="512" viewBox="0 0 64 64" width="512" xmlns="http://www.w3.org/2000/svg"><g id="Layer_14" data-name="Layer 14"><path d="m52 36.361v-28.361a4 4 0 0 0 -4-4h-42a4 4 0 0 0 -4 4v38a4 4 0 0 0 4 4h24z" fill="#336ea3"/><path d="m32 48 20-12.4v-27.6a4 4 0 0 0 -4-4h-42a3.961 3.961 0 0 0 -1.64.36 3.961 3.961 0 0 0 -.36 1.64v38a4 4 0 0 0 4 4z" fill="#407dbc"/><path d="m48 34.75v-20.75h-42v32h24z" fill="#9ebed3"/><path d="m8 37.155a6.845 6.845 0 0 0 6.845 6.845h17.155l16-10v-20h-40z" fill="#b3d8f1"/><circle cx="8" cy="9" fill="#ea232f" r="2"/><circle cx="14" cy="9" fill="#fbb03b" r="2"/><circle cx="20" cy="9" fill="#39b54a" r="2"/><path d="m36.236 37.662a11.967 11.967 0 1 0 -6.236 3.96" fill="#c9182a"/><path d="m27 18a11.93 11.93 0 0 0 -7.419 2.581 12 12 0 0 0 12.419 19.041l5.185-3.293a11.987 11.987 0 0 0 -10.185-18.329z" fill="#ea232f"/><path d="m33 27-3-3-3 3-3-3-3 3 3 3-3 3 3 3 3-3 3 3 3-3-3-3z" fill="#fff"/><path d="m62 54-16 6-16-6v-14l16-6 16 6z" fill="#b48155"/><path d="m62 40-16 6-16-6 16-6z" fill="#d09e71"/><path d="m46 60v-14l16-6v14z" fill="#926745"/><path d="m36.576 37.534 16 6 2.848-1.068-16-6z" fill="#5c4436"/></g></svg>