<svg id="Capa_1" enable-background="new 0 0 512 512" height="512" viewBox="0 0 512 512" width="512" xmlns="http://www.w3.org/2000/svg"><g><path d="m364.471 200.858h-38.816l-19.625 14.101v178.18l19.625 17.07h38.816l14.702-18.894v-171.355z" fill="#ff3581"/><path d="m503.7 316.952-23.261-20.656c-1.484-1.318-2.778-2.823-3.901-4.449l-11.515-5.096-16.14-38.975 7.415-10.798-8.649-24.33c-3.613-7.225-10.998-11.789-19.076-11.789h-64.102v209.35h136.556c6.06 0 10.973-4.913 10.973-10.973v-63.813c0-7.061-3.021-13.783-8.3-18.471z" fill="#ff5595"/><g><path d="m404.697 344.894c-4.267 0-7.726-3.459-7.726-7.726v-5.319h-25.318c-4.267 0-7.726-3.459-7.726-7.726s3.459-7.726 7.726-7.726h33.044c4.267 0 7.726 3.459 7.726 7.726v13.046c0 4.266-3.459 7.725-7.726 7.725z" fill="#ff94bc"/></g><path d="m24.787 321.605-24.787 15.563v58.472c0 8.046 6.523 14.569 14.569 14.569h35.237l20.653-14.773v-73.83h-45.672z" fill="#b5dcff"/><path d="m301.909 325.039h-227.329l-20.108 12.129v62.028l81.576 11.013h189.607v-73.041z" fill="#dbedff"/><circle cx="98.869" cy="424.462" fill="#7b6c79" r="51.093"/><circle cx="98.869" cy="424.462" fill="#665e68" r="51.093"/><path d="m54.472 84.554h-39.903c-8.046 0-14.569 6.523-14.569 14.569v238.045h54.472l24.185-15.562v-212.834z" fill="#fbc700"/><path d="m311.086 84.554h-256.614v252.614h271.182v-238.045c.001-8.046-6.522-14.569-14.568-14.569z" fill="#ffd500"/><circle cx="425.414" cy="424.462" fill="#7b6c79" r="51.093"/><circle cx="425.414" cy="424.462" fill="#ff76aa" r="20.212"/><circle cx="98.869" cy="424.462" fill="#ff5595" r="20.212"/><path d="m474.747 288.872-18.449-51.895c-19.371 0-68.765 0-85.622 0-3.427 0-6.205 2.778-6.205 6.205v42.46c0 3.427 2.778 6.205 6.205 6.205h105.862c-.657-.952-1.271-1.935-1.791-2.975z" fill="#60b9fe"/><path d="m289.752 251.729c-11.258 3.861-23.335 5.961-35.903 5.961-61.095 0-110.622-49.527-110.622-110.622s49.527-110.623 110.622-110.623c12.568 0 24.644 2.1 35.903 5.961l16.278 30.715v148.635z" fill="#1ca8ff"/><g><path d="m109.416 143.817h-56.268c-4.267 0-7.726-3.459-7.726-7.726 0-4.268 3.459-7.726 7.726-7.726h56.268c4.267 0 7.726 3.459 7.726 7.726s-3.459 7.726-7.726 7.726z" fill="#60b9fe"/></g><g><path d="m111.476 193.54h-35.467c-4.267 0-7.726-3.459-7.726-7.726 0-4.268 3.459-7.726 7.726-7.726h35.468c4.267 0 7.726 3.459 7.726 7.726s-3.459 7.726-7.727 7.726z" fill="#60b9fe"/></g><g><path d="m136.544 243.261h-37.675c-4.267 0-7.726-3.459-7.726-7.726 0-4.268 3.459-7.726 7.726-7.726h37.675c4.267 0 7.726 3.459 7.726 7.726 0 4.268-3.459 7.726-7.726 7.726z" fill="#60b9fe"/></g><g><path d="m364.471 147.068c0-48.53-31.255-89.751-74.73-104.657-43.465 14.912-74.709 56.134-74.709 104.657s31.244 89.745 74.709 104.657c43.475-14.907 74.73-56.127 74.73-104.657z" fill="#60b9fe"/></g><path d="m243.401 73.121c-33.792 4.732-60.326 32.065-63.834 66.232l5.587 7.019-5.587 8.407c3.507 34.168 30.042 61.502 63.835 66.234l18.147-14.977v-116.764z" fill="#b5dcff"/><path d="m253.822 215.738 7.726 5.625c35.091-3.594 62.986-31.481 66.593-66.569l-7.689-7.726 7.688-7.727c-3.606-35.088-31.501-62.975-66.592-66.569l-7.114 7.496-8.325-7.476c-.907.095-1.81.204-2.708.33-17.63 19.595-28.369 45.512-28.369 73.946s10.74 54.351 28.369 73.946c.899.126 1.803.235 2.711.33z" fill="#dbedff"/><path d="m253.849 154.794h-22.699c-4.267 0-7.726-3.459-7.726-7.726 0-4.268 3.459-7.726 7.726-7.726h14.972l4.191 1.021 5.408 10.001z" fill="#ff5595"/><g><path d="m253.849 154.794c-4.267 0-7.726-3.459-7.726-7.726v-29.61c0-4.268 3.459-7.726 7.726-7.726s7.726 3.459 7.726 7.726v29.61c0 4.267-3.459 7.726-7.726 7.726z" fill="#7b6c79"/></g><g fill="#8bcaff"><path d="m253.822 96.998c4.267 0 7.726-3.459 7.726-7.726v-16.5c-2.531-.259-5.1-.394-7.699-.394-2.618 0-5.205.138-7.754.401v16.493c0 4.268 3.46 7.726 7.727 7.726z"/><path d="m303.891 147.067c0 4.268 3.459 7.726 7.726 7.726h16.523c.261-2.54.397-5.117.397-7.726s-.136-5.186-.397-7.727h-16.523c-4.266.001-7.726 3.46-7.726 7.727z"/><path d="m179.557 154.794h16.523c4.267 0 7.726-3.459 7.726-7.726 0-4.268-3.459-7.726-7.726-7.726h-16.523c-.261 2.54-.397 5.118-.397 7.727s.136 5.185.397 7.725z"/><path d="m261.548 221.363v-16.553c0-4.268-3.459-7.726-7.726-7.726s-7.726 3.459-7.726 7.726v16.546c2.549.263 5.135.401 7.754.401 2.599-.001 5.167-.135 7.698-.394z"/></g></g></svg>