<svg viewBox="0 0 24 24" xmlns="http://www.w3.org/2000/svg"><g id="Layer_2" data-name="Layer 2"><path d="m19 5.25h-17a.7502.7502 0 0 0 -.75.75v12a1.75213 1.75213 0 0 0 1.75 1.75h15a1.75213 1.75213 0 0 0 1.75-1.75v-12a.7502.7502 0 0 0 -.75-.75z" fill="#0db561"/><path d="m14 5.25h-7a.7502.7502 0 0 0 -.75.75v6.56006a.75033.75033 0 0 0 1.15527.63135l1.34082-.86084 1.34473.86132a.752.752 0 0 0 .80859 0l1.34864-.86181 1.34765.86181a.75015.75015 0 0 0 1.1543-.63183v-6.56006a.7502.7502 0 0 0 -.75-.75z" fill="#ffcb27"/><path d="m19.75 6h-18.5a.7389.7389 0 0 1 .1499-.45l2.7002-3.6a1.752 1.752 0 0 1 1.3999-.7h10a1.752 1.752 0 0 1 1.3999.7l2.7002 3.6001a.7389.7389 0 0 1 .1499.4499z" fill="#1c5e3f"/><circle cx="18.5" cy="17.5" fill="#ffcb27" r="5.25"/><path d="m18 19.75a.74729.74729 0 0 1 -.416-.126l-1.5-1a.75.75 0 0 1 .832-1.248l.93945.626 2.06838-2.482a.7499.7499 0 1 1 1.15234.96l-2.5 3a.74754.74754 0 0 1 -.57617.27z" fill="#fff"/></g></svg>