<svg id="Layer_1" height="512" viewBox="0 0 256 256" width="512" xmlns="http://www.w3.org/2000/svg"><g><g><g><path d="m155.49 69.722h-127.276c-4.418 0-8 3.582-8 8v79.787h135.276z" fill="#58595b"/></g><g><path d="m20.214 111.68h135.276v45.829h-135.276z" fill="#414042"/></g><g><g><g><path d="m155.49 60.261h59.537c3.584 0 6.828 2.123 8.263 5.407l22.934 52.492c.332.759.503 1.578.503 2.407v36.942h-97.248v-91.237c0-3.32 2.691-6.011 6.011-6.011z" fill="#478cf7"/></g><g><path d="m155.479 148.17c-1.1 0-2-.9-2-2 0-1.11.9-2 2-2 1.101 0 2 .9 2 2s-.899 2-2 2zm0-8c-1.1 0-2-.9-2-2l.011-71.91c0-1.1.899-2 2-2h59.54c1.1 0 2 .9 2 2s-.9 2-2 2h-57.54l-.011 69.9v.01c0 1.1-.899 2-2 2z" fill="#5e9cf7"/></g><g><path d="m228.946 115.528h-1.809c-1.382 0-2.502-1.12-2.502-2.502v-14.16h1.952c2.244 0 4.278 1.321 5.19 3.371l2.359 5.303c1.67 3.755-1.079 7.988-5.19 7.988z" fill="#2266d3"/></g><g><path d="m221.625 107.288h-54.989c-1.66 0-3.006-1.346-3.006-3.006v-28.304c0-1.66 1.346-3.006 3.006-3.006h42.412c1.188 0 2.264.7 2.747 1.785l12.577 28.304c.883 1.988-.572 4.227-2.747 4.227z" fill="#414042"/></g><g><path d="m181.731 129.831h-16.101c-1.105 0-2-.895-2-2v-4.767c0-1.105.895-2 2-2h16.101c1.105 0 2 .895 2 2v4.767c0 1.104-.895 2-2 2z" fill="#377de2"/></g><g><path d="m228.092 157.509h18.635v-34.034h-10.601c-4.437 0-8.034 3.597-8.034 8.034z" fill="#58595b"/></g><g><path d="m244.348 131.076c0-.811-.719-1.45-1.522-1.337-5.275.74-9.333 5.271-9.333 10.749 0 5.479 4.058 10.009 9.333 10.749.803.113 1.522-.526 1.522-1.337z" fill="#ffa91a"/></g><g><path d="m242.825 129.739c-1.239.174-2.41.557-3.478 1.112v14.05c0 .811-.719 1.45-1.522 1.337-1.146-.161-2.235-.501-3.237-.99 1.551 3.175 4.606 5.481 8.237 5.99.803.113 1.522-.526 1.522-1.337v-18.824c.001-.812-.718-1.451-1.522-1.338z" fill="#f79219"/></g><g><g><path d="m176.818 85.177c-4.621 0-7.945 4.44-6.644 8.874l3.884 13.237h14.432l-5.028-17.136c-.865-2.949-3.57-4.975-6.644-4.975z" fill="#58595b"/></g></g><g><g><path d="m221.646 110.146c-1.674 0-3.031-1.357-3.031-3.031v-10.439c0-1.674 1.357-3.031 3.031-3.031 1.674 0 3.031 1.357 3.031 3.031v10.439c-.001 1.674-1.357 3.031-3.031 3.031z" fill="#2266d3"/></g></g></g><g><path d="m149.479 152.772h97.248v4.737h-97.248z" fill="#377de2"/></g><g><g><path d="m237.71 189.695h-219.42c-4.98 0-9.017-4.037-9.017-9.017v-15.169c0-4.418 3.582-8 8-8h229.453v23.169c.001 4.98-4.036 9.017-9.016 9.017z" fill="#478cf7"/></g><g><path d="m236.727 157.509v13.169c0 4.98-4.037 9.017-9.017 9.017h-218.437v.983c0 4.98 4.037 9.017 9.017 9.017h219.419c4.98 0 9.017-4.037 9.017-9.017v-23.169z" fill="#377de2"/></g><g><path d="m241.727 157.509v18.169c0 4.98-4.037 9.017-9.017 9.017h-219.42c-1.19 0-2.327-.231-3.367-.65 1.334 3.312 4.577 5.65 8.367 5.65h219.419c4.98 0 9.017-4.037 9.017-9.017v-23.169z" fill="#2266d3"/></g><g><path d="m246.727 178.08h-9.482c-2.619 0-4.743-2.123-4.743-4.743 0-2.619 2.123-4.743 4.743-4.743h9.482z" fill="#58595b"/></g><g><path d="m9.273 178.08h9.482c2.619 0 4.743-2.123 4.743-4.743 0-2.619-2.123-4.743-4.743-4.743h-9.482z" fill="#58595b"/></g><g><path d="m179.138 167.778h-18.742c-1.193 0-2.273-.705-2.752-1.797l-3.719-8.472h31.686l-3.719 8.472c-.481 1.092-1.561 1.797-2.754 1.797z" fill="#377de2"/></g></g><g><g><circle cx="49.976" cy="189.695" fill="#58595b" r="26.3"/></g><g><path d="m63.605 167.198c4.147 4.649 6.671 10.777 6.671 17.498 0 14.525-11.775 26.3-26.3 26.3-4.99 0-9.654-1.39-13.629-3.803 4.817 5.4 11.824 8.803 19.629 8.803 14.525 0 26.3-11.775 26.3-26.3 0-9.536-5.075-17.887-12.671-22.498z" fill="#414042"/></g><g><circle cx="49.976" cy="189.695" fill="#478cf7" r="14.528"/></g><g><circle cx="49.976" cy="189.695" fill="#d1d3d4" r="7.671"/></g></g><g><g><circle cx="204.271" cy="189.695" fill="#58595b" r="26.3"/></g><g><path d="m220.197 168.769c3.37 4.421 5.374 9.938 5.374 15.926 0 14.525-11.775 26.3-26.3 26.3-5.988 0-11.505-2.005-15.926-5.374 4.805 6.303 12.388 10.374 20.926 10.374 14.525 0 26.3-11.775 26.3-26.3 0-8.537-4.071-16.121-10.374-20.926z" fill="#414042"/></g><g><circle cx="204.271" cy="189.695" fill="#478cf7" r="14.528"/></g><g><circle cx="204.271" cy="189.695" fill="#d1d3d4" r="7.671"/></g></g></g></g><g><g><g><path d="m68.307 134.842c-3.725 0-6.755 3.031-6.755 6.756s3.031 6.756 6.755 6.756c3.725 0 6.756-3.031 6.756-6.756-.001-3.726-3.031-6.756-6.756-6.756zm2.379 6.756c0 1.312-1.068 2.379-2.38 2.379s-2.379-1.067-2.379-2.379 1.067-2.38 2.379-2.38c1.313 0 2.38 1.067 2.38 2.38z" fill="#fff"/></g><g><path d="m101.991 134.842c-3.725 0-6.756 3.031-6.756 6.756s3.031 6.756 6.756 6.756 6.755-3.031 6.755-6.756c-.001-3.726-3.031-6.756-6.755-6.756zm2.379 6.756c0 1.312-1.067 2.379-2.379 2.379s-2.38-1.067-2.38-2.379 1.068-2.38 2.38-2.38 2.379 1.067 2.379 2.38z" fill="#fff"/></g></g><g><path d="m115.844 89.461c-.775-.967-1.93-1.521-3.169-1.521h-46.449v-4.407c0-1.601-.945-3.057-2.407-3.708l-6.635-2.961c-.745-.333-1.575-.355-2.337-.063s-1.365.864-1.696 1.608c-.332.745-.354 1.575-.062 2.336.292.762.863 1.364 1.608 1.696l5.421 2.415v42.819c0 1.684 1.37 3.054 3.054 3.054h44.76c.897 0 1.745-.392 2.327-1.076s.831-1.587.686-2.477c-.236-1.456-1.565-2.554-3.093-2.554h-41.626v-4.954h41.184c1.916 0 3.545-1.306 3.964-3.177l5.265-23.605c.27-1.21-.02-2.458-.795-3.425zm-49.618 24.099v-19.512h43.969l-4.352 19.512z" fill="#fff"/></g></g></g></svg>