<svg id="Layer_1" enable-background="new 0 0 130 130" height="512" viewBox="0 0 130 130" width="512" xmlns="http://www.w3.org/2000/svg"><g><g><path d="m49.1118279 74.8320084c0 2.0111008-.7240524 3.4321976-1.8770676 4.1025696l-7.561779 4.3976593c1.1530151-.670372 1.8770676-2.091629 1.8770676-4.1295776.0268402-4.0488892-2.8423576-9.0097198-6.3819237-11.0476608-1.7697029-1.0189743-3.4055271-1.1261749-4.5585403-.4558105l7.561779-4.3708153c1.1530151-.6972084 2.7619972-.5898438 4.5585403.4291267 3.539566 2.0377883 6.3819237 6.9986113 6.3819237 11.0745086z" fill="#363a44"/><path d="m98.1945572 102.7283401c0 2.0111084-.7240524 3.4322052-1.8770676 4.1025696l-7.5617752 4.3976593c1.1530151-.6703644 1.8770599-2.091629 1.8770599-4.12957.0268402-4.0488968-2.8423538-9.0097198-6.3819199-11.0476685-1.7696991-1.0189743-3.4055252-1.1261749-4.5585403-.4558029l7.5617752-4.3708191c1.1530151-.6972122 2.762001-.5898438 4.5585403.4291306 3.5395661 2.0377808 6.3819276 6.9986115 6.3819276 11.074501z" fill="#363a44"/><path d="m68.8998413 64.9369431 31.6619949-18.3999405-.0867385 30.5960617-31.661995 18.3999405z" fill="#c3a12e"/><path d="m96.3818741 105.1041794 31.6619949-18.3999405.9561463.5520248-31.661995 18.3999405z" fill="#5b5e71"/><path d="m97.3380203 105.6562042 31.661995-18.3999405-.8261872 4.2730484-31.6619949 18.3999405z" fill="#525566"/><path d="m68.9303284 53.4203873-.0241242 11.5213318-.0241318 8.8941497v.5784607l-.0239791 5.8089905v1.2051697l-.0241242 2.6754379-.0241318 11.4249725-29.4783706-17.0169677-13.3533612-7.7131119-12.6783952-7.3032417.1206341-42.1327916z" fill="#cad0dd"/><path d="m68.9324951 53.4199104 31.661995-18.3999405-.0326539 11.5170327-31.6619949 18.3999405z" fill="#bac1ce"/><path d="m100.6055984 35.0153008-31.671173 18.3937225-55.5056334-32.0455971 31.6461935-18.3937242z" fill="#e4e8f4"/><path d="m17.1509285 21.3582935 27.9282646-16.2330355 51.8028183 29.8946013-27.950386 16.2330361z" fill="#bac1ce"/><path d="m80.2134094 71.4688339 31.661995-18.3999443 8.0119857 16.9684944-31.6619949 18.3999405z" fill="#f9607f"/><path d="m118.2697067 69.5336304-6.94384-14.7028504-.7741241.4498787 6.6396102 14.0589257z" fill="#f34858"/><path d="m117.1913528 69.3395844-28.721466 16.6912612.3040848.6440735 29.4957351-17.1412887z" fill="#f34858"/><path d="m117.185318 69.3285522-10.8706436 6.3391953-2.7719422 1.5907593-3.7118682 2.1693649-9.7618332 5.6642304-1.5909043.9400634-6.6524048-14.0522995 11.665947-6.7730407 9.737709-5.6642342 3.7120133-2.1693649 2.7717972-1.6148835.8437042-.4820976z" fill="#576cfb"/><path d="m68.8998413 64.9369431 31.6619949-18.3999405 11.3135682 6.531887-31.661995 18.3999443z" fill="#f9607f"/><path d="m128.0667419 77.8385391-31.6621627 18.4163742-8.1553955-7.8090744 31.6354827-18.4160461z" fill="#f9607f"/><path d="m97.3201752 105.6789932-.8195725 4.2903214-2.2898559-1.1810379-.0722275-.0481034-.5784607-.2892303-.5544739-.2893753-12.7988891-6.6524124-.7713242-.4098587-1.2773972-.67482-2.7236938-1.4221649-6.6284256-3.4467621.0241241-11.4249725.0241242-2.6754379v-1.2051697l.048111-15.281601 11.3044815 6.5320664 8.0264663 16.9687195 7.8818512 7.496109.2892227.2892303v3.7842484l-.0241241 5.0859222z" fill="#f34858"/><g><path d="m93.0578232 107.1226196c0 .3616104-.0241241.6990891-.0482559 1.0122986l-12.7988815-6.6524048-.7713242-.4098663-1.2774048-.6748199-2.7236862-1.4221573c.2650986-3.6877441 2.6513062-6.2185669 5.9294815-6.2185669 1.3256531 0 2.6995621.4097137 4.0974503 1.2051697 4.2663421 2.4584426 7.5926208 8.243309 7.5926208 13.1603469z" fill="#e63044"/></g><path d="m84.2536163 96.0551147c3.5267792 2.0361862 6.3936234 7.0017395 6.3821335 11.0543289-.0115509 4.0721588-2.8971329 5.7166138-6.4239044 3.6804276-3.5439148-2.0460739-6.4107437-7.0116882-6.3992004-11.0838547.0114898-4.0525817 2.8970565-5.6969757 6.4409713-3.6509018z" fill="#525566"/><g><path d="m84.2253571 97.9033279c2.7430954 1.583725 4.9498978 5.3941727 4.9410248 8.5237885-.0015259 3.1735535-2.2151794 4.4350433-4.9732208 2.8341141-2.7282867-1.5751801-4.9200668-5.3973083-4.9111481-8.540863.0088348-3.117859 2.2224883-4.3793488 4.9433441-2.8170396zm-.9198533.515625c-1.253418-.3375778-2.1427536-.0445633-2.7726593.9130402.7374191.6230774 1.4301071 1.2203293 2.1378021 1.7919083.0349503.028038.0685272.0511932.1006622.0697479.2487259.1436005.4102631.0084763.4376526-.3252106.0158081-.3083115.0167236-.6338043.0250778-.9464035.0237733-.4839096.0475694-.9763717.0714646-1.5030823m1.9387436 3.5301896c.0228424.4641647.1730652.7718124.4861221.9525604.0740891.0427704.15728.0784378.2500534.1073532.1939316.0690918.387886.1295776.5743942.1857986.4475937.1382828.8952179.2680206 1.372673.4064407-.6149826-1.6677628-1.5071945-2.9979401-2.7361069-4.0763702l-.037468.0555801c.0350649.7924271.0626986 1.5805436.0903322 2.3686372m1.967247 6.6438674c.7256393-.4904633 1.093811-1.3074722 1.1421051-2.5407791-.6343918-.0917206-1.2313614-.2133179-1.8061447-.2620392-.2463303-.02211-.3440094.1960373-.1958008.590477.2742081.7245636.5633469 1.4491654.8598404 2.2123413m-5.2578887-4.7429809c.1425552-.243721.0464935-.5994568-.2586899-.9300919-.5061646-.5496216-1.0198288-1.0864105-1.5855789-1.6875687.0189362 1.2206268.329155 2.412117 1.0123978 3.7074661.1798248-.222229.3371887-.4230728.4945602-.6239243.112442-.1581496.2397461-.2905577.3373108-.4658812m2.2745285 4.4957886c.4777145.2758102.9521255.4507141 1.4369965.5297928-.3861389-.7462616-.7350388-1.4624939-1.1362762-2.1488724-.0738678-.1279678-.2493896-.2844238-.387619-.364212-.0703201-.040596-.1309662-.0613861-.1637344-.0484848-.4634781.1957321-.8824005.4857712-1.3461151.7585831.5482862.5495376 1.0744932.971672 1.5967482 1.2731933m-.0079651-5.9841233c-.5739822-.3313828-1.060112-.0457764-1.0619812.6137466-.0018921.6681061.4736023 1.5003052 1.0550308 1.8359985.0046005.0027237.0090942.0053711.0136719.0080109.5753021.3321533 1.0538788.0711594 1.0631485-.5874252.0167084-.6632309-.4810867-1.5304642-1.0571976-1.8630829-.0042267-.0024413-.0084534-.0048751-.0126724-.0072479m.010849-1.19487c-.1640167-.0860901-.2986298-.009407-.2991409.1704712-.0005341.188446.1332092.4201126.2972031.5147934s.2911301.0222092.299118-.1619263c.000534-.188446-.1331864-.4286575-.2971802-.5233383m-.8096238 3.7794419c.0005188-.1836853-.1335983-.4206238-.2853775-.508255-.0039368-.0022736-.0078659-.0044479-.0118256-.0064926-.1639938-.0946808-.2986069-.0179901-.299118.1618805-.0005341.188446.1332092.4200897.2972031.5147705.1565399.0903854.2911301.022232.299118-.1619034m2.606926-.3909455c.1639786.0946732.298584.0265121.299118-.1619339.0077744-.1794968-.1261597-.4163284-.2848358-.5079422-.0041199-.0023804-.0082397-.0046616-.0123596-.0068054-.1565628-.0903854-.2911758-.0136948-.291687.1661758-.000534.1884461.1332092.4201127.2897644.5105057m-3.6749802-2.1217498c.1639938.0946808.2911301.0222092.299118-.1619339.0005264-.1836853-.1265335-.4165497-.2848587-.5079498-.004097-.0023727-.008194-.0046463-.0123367-.0067978-.1565399-.0903778-.291153-.0136871-.2916641.1661911-.000534.1884384.1257477.4158096.2897415.5104904m3.0807114 3.6747055c.0005188-.1836853-.1265411-.4165497-.2848587-.5079575-.0041046-.0023651-.0082016-.0046387-.0123215-.0067825-.1565628-.0903854-.2911758-.0137024-.291687.1661758-.0005341.188446.1257477.4157867.2897644.5104828.1639786.0946655.2911072.0222168.2991028-.1619186" fill="#cad0dd"/></g><path d="m87.0561066 88.6112442-16.3421555-10.4126739-.1927185-10.870636-.6025848-.3614655.1927185 11.4249725 17.3544616 11.0633622z" fill="#f9607f"/><path d="m87.0561066 88.6112442-10.7501526-6.8454208-.8435593-.5302048-1.1329346-.7230682-2.9646682-1.9042588-.6508408-.4097213-.1927185-10.870636 5.495491 3.1575317 3.0370484 1.7596436.1928711.0963668.6025848 1.2292939.506073 1.0846786z" fill="#576cfb"/><path d="m96.4069977 96.2421494 31.6620025-18.3999405-.0251312 8.86203-31.6619949 18.3999405z" fill="#fa5168"/><path d="m96.3818741 105.1041794v4.7575302l.1299591.067543.8261871-4.2730484z" fill="#3f434f"/><g><path d="m102.8923798 94.1259384c.2168427 1.295372.8160019 2.1251221 1.7126694 2.6198273l-4.4405365 2.5637436c-.2411957.1392593-.440239.0908432-.4408875-.1373444l-.0079498-2.8039322c-.0006485-.2282333.1974258-.5222015.4386292-.6614609z" fill="#fed57a"/></g><g><path d="m119.3577728 87.6404343.0011139.3912506-14.257843 8.2317734-.0011063-.3912507z" fill="#4c7891"/></g><g><path d="m119.7104263 86.7020493.0011063.3912506-14.9814453 8.6495437-.0011063-.3912506z" fill="#4c7891"/></g><g><path d="m120.4298248 84.8334198.0011063.3912506-16.4143219 9.4768143-.0011063-.3912506z" fill="#4c7891"/></g><g><path d="m124.2720718 81.7823715c.2554398-.1474838.4403839-.074646.4410324.153595l.0079498 2.8039246c.0006409.2281876-.1833344.4977417-.4387741.6452179l-4.4404373 2.5636902c.8908386-1.5267258 1.4834442-3.0445404 1.7063904-4.5938187z" fill="#fed57a"/></g><g><path d="m124.4074326 86.0155106c.2553482-.1474228.4545364-.0828094.4551773.1454315l.002449.8639755c.0006485.228241-.1974716.5385742-.4528198.685997l-3.433197 1.9821625c-.2553482.1474228-.4545822.0665054-.4552231-.1617355l-.002449-.8639832c-.0006485-.228241.1975174-.5222626.4528656-.6696854z" fill="#e4e8f4"/></g><g><path d="m127.0243835 80.1933212c.2412033-.1392593.4402924-.0745926.4409409.1536484l.0079498 2.8039246c.0006409.2281876-.1974716.5059052-.4386749.6451645l-1.546402.8928146c-.2412033.1392593-.4402466.0908432-.4408951-.1373444l-.0079498-2.8039246c-.0006485-.228241.1974258-.5222092.4386292-.6614685z" fill="#fa5168"/></g><g><path d="m103.9939499 97.6897125c.2553406-.1474228.4686661-.0909805.4693146.1372604l.002449.8639832c.0006485.228241-.2116165.5467377-.4669571.6941605l-3.4332047 1.9821625c-.2554398.1474762-.4545746.0664978-.4552231-.1617355l-.002449-.8639832c-.0006485-.228241.1974258-.5222092.4528656-.6696854z" fill="#e4e8f4"/></g><g><path d="m125.2307663 90.8976669c.2113037-.1220016.3761368-.0685272.3766708.1203461l.0020218.7149658c.0005417.1888733-.163414.4456787-.3747177.5676804l-2.8410645 1.6402893c-.2113037.121994-.3761749.0550308-.376709-.1338425l-.0020294-.7149658c-.0005341-.1888733.1634521-.4321899.3747559-.554184z" fill="#f9bb4a"/></g><g><path d="m103.6995087 103.1806717c.2113037-.121994.3878403-.0752869.3883743.1135864l.0020294.7149658c.0005341.1888809-.1751175.452446-.3864288.7225113l-2.8410645 1.6402893c-.2113876-.0260239-.3761749-.0930405-.376709-.2819138l-.0020294-.7149658c-.0005341-.1888733.1633759-.4321365.3747635-.554184z" fill="#f9bb4a"/></g><g><path d="m98.9626312 96.394783c.2269592-.1310349.4402847-.0745926.4409332.1536484l.0079498 2.8039322c.0006485.2281799-.2117081.514122-.4386749.6451569l-1.546402.8928146c-.2553406.1474228-.4402466.0908432-.4408875-.1373367l-.0079498-2.8039322c-.0006485-.228241.1832809-.5140457.4386215-.6614685z" fill="#fa5168"/></g><g><path d="m120.0630264 85.7800293.0011139.3911896-15.6765747 9.0508804-.0011139-.3911972z" fill="#4c7891"/></g><g><path d="m120.76828 83.9195633.0011063.3912506-17.1236801 9.8863678-.0011139-.3912582z" fill="#4c7891"/></g><path d="m18.6543236 61.5497169-.0854054 2.3589898-4.0942192-2.3637963.0854044-2.3589897z" fill="#4c7891"/><path d="m116.6549683 95.1433105v2.3862153l-7.8094635 4.5314407v-2.4103317z" fill="#d4dae8"/><g fill="#748bfd"><path d="m103.2293777 59.5425911-3.3985137 19.8852806-9.7618332 5.6642304 3.4226379-19.8852768z"/><path d="m109.7131882 55.7583427-3.3985138 19.9094048-2.7719422 1.5907593 3.3986588-19.8852806z"/></g><g fill="#748bfd"><path d="m79.053772 72.2451096-4.7243119 8.2674408-2.9646682-1.9042588 4.6519317-8.1228256z"/><path d="m80.3553009 74.6554489-4.0493469 7.1103745-.8435593-.5302048 4.3868332-7.6648483z"/></g><path d="m27.568964 71.7148285 1.5185127.7954102 1.2774773.6748962.7713089.4097519c.7231007.5061722 1.4703045.9882431 2.1934071 1.4462051 3.4708824 2.2898178 6.9658737 4.3386078 10.5331726 6.0981522.0241013-.3133469.1205139-1.5426178.1205139-1.9041672 0-4.9170837-3.3262634-10.7018967-7.5925598-13.1604385-1.397995-.7954102-2.7718887-1.2051697-4.0975723-1.2051697-3.2539558 0-5.6401882 2.506752-5.92943 6.1463623z" fill="#bac1ce"/><path d="m41.5489349 79.2108765c0 4.0734711-2.8924332 5.7126312-6.4115791 3.6878815-3.5431232-2.0487213-6.4114304-7.0140152-6.4114304-11.0874863.0241261-4.0494995 2.8924332-5.6885071 6.4355583-3.663765 3.5432702 2.048729 6.4115792 7.0140228 6.3874512 11.0633698z" fill="#525566"/><g><path d="m35.1426315 70.0069885c2.7430916 1.583725 4.949894 5.3941803 4.9410248 8.5237885-.0015335 3.1735535-2.2151871 4.435051-4.9732246 2.8341141-2.7282867-1.5751801-4.9200649-5.3973083-4.9111519-8.540863.0088386-3.1178513 2.2224922-4.3793488 4.9433517-2.8170396zm-.9198608.515625c-1.2534103-.3375778-2.1427536-.0445633-2.7726536.9130402.7374172.6230774 1.4301052 1.2203293 2.1378002 1.7919083.0349503.0280457.0685272.0511932.1006622.0697479.2487259.1436005.4102592.0084763.4376488-.3252029.0158081-.3083191.0167313-.633812.0250816-.9464035.0237733-.4839173.0475693-.9763718.0714608-1.50309m1.9387436 3.5301895c.0228462.4641647.1730652.7718201.4861259.9525604.0740852.042778.15728.0784378.2500496.1073608.1939354.0690918.3878899.12957.5743942.1857986.4475975.1382751.8952179.2680206 1.3726807.4064331-.6149902-1.6677628-1.5071983-2.9979324-2.7361107-4.0763702l-.037468.0555878c.0350648.7924271.0626984 1.5805436.0903283 2.3686295m1.967247 6.6438675c.7256393-.4904633 1.0938148-1.3074646 1.1421089-2.5407791-.6343918-.0917206-1.2313652-.2133102-1.8061447-.2620392-.2463303-.0221024-.3440132.1960449-.1958008.590477.2742043.7245636.5633431 1.449173.8598366 2.2123413m-5.2578888-4.7429733c.1425552-.243721.0465012-.5994644-.2586899-.9300995-.5061607-.549614-1.0198269-1.0864105-1.5855751-1.6875687.0189381 1.2206268.3291531 2.412117 1.0123978 3.7074661.1798248-.2222214.3371887-.4230728.4945564-.6239243.1124458-.158142.2397499-.2905577.3373108-.4658736m2.2745285 4.4957809c.4777145.2758102.9521294.4507141 1.4370003.5298004-.3861427-.7462692-.7350349-1.4625015-1.1362801-2.1488724-.0738678-.1279678-.249382-.2844238-.387619-.364212-.0703201-.0406036-.1309662-.0613861-.1637306-.0484848-.4634781.1957245-.8824005.4857712-1.3461189.7585831.5482864.54953 1.0744934.9716644 1.5967483 1.2731857m-.0079651-5.9841156c-.5739784-.3313904-1.0601082-.045784-1.0619812.613739-.0018921.6681137.4736023 1.5003128 1.0550385 1.8359985.0045967.0027313.0090866.0053711.0136642.0080109.5753059.3321533 1.0538788.071167 1.0631485-.5874176.0167122-.6632309-.4810829-1.5304718-1.0571976-1.8630905-.0042228-.0024337-.0084457-.0048751-.0126724-.0072403m.0108566-1.1948776c-.1640205-.0860901-.2986336-.0093994-.2991447.1704788-.0005341.1884384.1332054.4201126.2971992.5147934s.2911301.0222092.299118-.1619339c.0005341-.1884384-.1331786-.4286499-.2971725-.5233383m-.8096313 3.7794419c.0005226-.1836777-.1335983-.4206238-.2853737-.5082474-.0039368-.0022736-.0078697-.0044479-.0118256-.0064926-.1639938-.0946884-.2986069-.0179977-.299118.1618805-.0005341.1884384.1332054.4200897.2971992.5147705.15654.0903778.2911301.022232.2991181-.161911m2.6069336-.3909455c.1639709.0946732.298584.0265121.299118-.1619263.0077667-.1794968-.1261673-.4163361-.2848396-.5079422-.0041199-.0023804-.0082397-.0046616-.0123596-.0068054-.1565628-.0903931-.2911758-.0137024-.291687.1661758-.0005341.1884385.1332054.4201127.2897682.5104981m-3.674984-2.1217499c.1639977.0946808.2911301.0222092.2991219-.1619263.0005188-.1836853-.1265373-.4165497-.2848587-.5079575-.0041008-.0023651-.0082016-.0046387-.0123444-.0067902-.1565399-.0903778-.291153-.0136948-.2916641.1661835-.0005341.1884462.1257515.4158098.2897453.5104905m3.0807076 3.6747056c.0005188-.1836853-.1265373-.4165497-.2848587-.5079575-.0041008-.0023651-.0081978-.0046387-.0123215-.0067749-.156559-.0903931-.2911758-.0137024-.2916832.1661758-.0005341.1884384.1257515.4157791.2897644.5104752.1639748.0946731.291111.0222168.299099-.1619186" fill="#cad0dd"/></g><g><path d="m62.5299339 62.3626442-.0722351 29.5035515-.5062218-.2892303.0722313-29.5035515c0-.8195801-.5784569-1.8318787-1.3015289-2.2415962l-9.617218-5.5437431c-.7230721-.4098663-1.2775497-.096508-1.3015289.7471962l-.0723839 29.4882126-.5062218-.2892303.0723801-29.5123367c0-1.1569138.8195801-1.6148834 1.8077545-1.0364265l9.617218 5.5437431c.9883232.5784567 1.8077545 1.9764936 1.8077545 3.1334112z" fill="#a4adba"/></g><g fill="#a4adba"><path d="m49.237915 70.1240005.5060769.2892304v2.4825745l-.0239792 11.617836-.5062218-.2892228.0241241-11.6419677z"/><path d="m62.4706421 77.7406006v2.6273346l-.024128 11.4972076-.5060768-.2892303.023983-11.4972077v-2.6273269z"/></g><path d="m51.5445099 64.5852814c-.3405151-.1833725-.602375-.6285973-.602375-1.021389l.0262184-7.281601v-.078495c-.1833687 0-.3405151.1571503-.3405151.4190102l-.0262184 7.3076591c0 .392952.2880783.8119659.602375 1.0215454l9.2984772 5.3694382c.3142967.1833649.549942.0524368.6023788-.2618637-.0786552 0-.1833687-.0262146-.2620239-.0786514z" fill="#e4e8f4"/><path d="m60.5547485 61.6517296-9.3245354-5.3694382c-.078495-.0524368-.1833649-.078495-.2618599-.078495v.078495l-.0262184 7.281601c0 .3927917.2618599.8380165.602375 1.021389l9.298317 5.3956528c.0786552.0524368.1833687.0786514.2620239.0786514v-.0786514l.0262146-7.2814407c.0000001-.3929521-.26202-.8381806-.5763168-1.0477639z" fill="#576cfb"/><g fill="#525566"><path d="m73.7550125 81.5334854-.0024567.866478-3.5395278-2.0435486.0024566-.8664703z"/><path d="m53.0256004 70.8104935-.0024566.8664779-2.2010994-1.270813.0024566-.8664703z"/></g></g><g><g><g><path d="m35.0110168 85.453392-.0548439 18.936081-16.930376 9.9532775.0548439-18.9360809 7.2871189-4.2973099 2.1916046-1.2754058z" fill="#efac41"/></g></g><g><g><path d="m18.1029816 95.4178391-.0689488 18.9123764-17.03402-9.9605256.0560383-18.8951263v-.028183h.0280191l7.3897142 4.3341446 1.6796122.9916.5038328.2832108z" fill="#f9bb4a"/></g></g><g><g><path d="m35.0217628 85.4708786-16.9286193 9.9534531-7.4416228-4.3602143-2.1542759-1.2331619-.0434284-.021904-7.3981944-4.3381729 16.928753-9.9534531z" fill="#fed57a"/></g></g><g><g><path d="m27.5867863 81.1108017-16.9286204 9.9533157-2.1542759-1.2331619-.0434284-.021904 16.9721804-9.9534531.02178.0220414z" fill="#e4e8f4"/></g></g><g><g><path d="m8.4457655 94.3163376 2.1916027 1.303154.0274229-4.5101319v-.0555038l-.4930983-.2771835-1.6985054-.9704667v.0277482z" fill="#d4dae8"/></g></g><g><g><g><g><g><path d="m20.431181 107.680809.5102615.982605-.3160191.1846466-.6973495.4044113z" fill="#3f434f"/></g></g></g><g><g><g><path d="m20.6254234 108.8480606.0054455 1.9437943-.3813133.2228012-.0054455-1.9438019z" fill="#3f434f"/></g></g></g><g><g><g><path d="m22.5196476 109.8616638.0011654.4160919-2.6326428 1.5382309-.0011653-.4160919z" fill="#3f434f"/></g></g></g><g><g><g><path d="m27.3307495 103.7658386.0038795 1.3849487c.0012245.437355-.2484951.945282-.5800095 1.2028656l.0034962 1.2482834c.2325211-.1084824.4078312-.0983505.4081974.0322418l-1.0264225.5997314c-.0003662-.1305923.174305-.3452148.4066734-.5083618l-.0034981-1.2482834c-.1515503.0611725-.2823963.0463562-.3846073-.0186539-.1205921-.0907669-.1995449-.2606277-.2002258-.5036011l-.0038795-1.3849564z" fill="#3f434f"/></g></g></g><g><g><g><path d="m22.1506901 107.9568558.0054455 1.9438019-.3813229.2228012-.0054455-1.9437943z" fill="#3f434f"/></g></g></g><g><g><g><path d="m21.9590588 106.7880859.5076503.9841233-.316019.1846466-.6947384.402893z" fill="#3f434f"/></g></g></g></g><g><g><path d="m24.532568 109.5659866c-.0713634-.0398483-.1131973-.1220322-.1131973-.2253799l-.0110722-4.1589203c-.0024624-.1817932.1254997-.404686.2829895-.4980774l3.5706043-2.0856781c.0861282-.0498123.1734848-.0560379.243618-.0161896.0701332.0410919.1107349.1245193.1107349.2291107l.0123043 4.1589203c0 .1818008-.1242695.404686-.2768383.494339l-3.5706043 2.0856857c-.0492153.0286407-.0996609.0435791-.1464176.0435791-.036911.0000001-.0713615-.0087127-.1021213-.0273895zm3.8056087-6.8360672-3.5706043 2.0856857c-.1107349.064743-.2091675.2390747-.2091675.3660812l.0110741 4.1589203c.0012302.0460739.0147648.079689.0369129.0933914.0233765.0099564.057827.0074692.0984306-.0161896l3.5706043-2.0856857c.1082745-.0635071.2030144-.2328491.2030144-.3623505l-.0123043-4.1589203c0-.0473175-.0135326-.0834274-.0356808-.0971222-.0073814-.0037384-.015995-.0062256-.0258389-.0062256-.0184554.0000002-.0418319.0074693-.0664405.0224153z" fill="#3f434f"/></g></g><g><g><path d="m19.2148037 112.6702347c-.0701313-.0410919-.1095047-.1232758-.1095047-.2241364l-.0110741-4.1589203c-.0024605-.1830444.1254997-.4071732.2829914-.4980698l3.5706043-2.086937c.0861263-.0510483.1722546-.0572739.243618-.0149384.0713615.0410919.1107349.1245193.1107349.2278671l.0123043 4.1601639c0 .1855316-.121809.4034424-.2780704.494339l-3.5706024 2.0856857c-.047987.0286407-.0984325.0423355-.1451874.0423355-.0381412.0000002-.0738239-.0087126-.1058139-.0273893zm3.8093014-6.8360672-3.5706043 2.0869293c-.1107349.0647507-.2091675.2378311-.2091675.3660812l.0110741 4.1589203c0 .0448303.0135345.0784454.0356808.0921402.0233784.0112076.0602894.0074768.0996628-.0149384l3.5693722-2.0856857c.1082745-.0635071.2042465-.2328491.2042465-.3623505l-.0123043-4.1601639c0-.0473175-.0135345-.0821838-.0356808-.0958786-.0073833-.0037384-.0172253-.0062256-.0270691-.0062256-.0184556.0000001-.0406037.0074693-.0652104.0211717z" fill="#3f434f"/></g></g><g><g><path d="m29.8429489 106.4624405c-.0701332-.0410919-.1095047-.1232758-.1095047-.2241364l-.0110741-4.1589203c-.0024605-.1830368.1254997-.4071732.2829914-.4980698l3.5706043-2.0869293c.0861282-.0510559.1722527-.0572815.243618-.014946.0713615.0410919.110733.1245193.110733.2278671l.0123062 4.1601715c0 .1855316-.1218109.4034348-.2780685.4943314l-3.5706062 2.0856857c-.0479851.0286407-.0984306.0423431-.1451855.0423431-.0381431.0000001-.0738238-.0087203-.1058139-.027397zm3.8092995-6.8360672-3.5706024 2.0869293c-.1107368.0647507-.2091675.2378311-.2091675.3660812l.0110741 4.1589203c0 .0448303.0135326.0784531.0356808.0921478.0233765.0112076.0602894.0074692.0996628-.014946l3.5693722-2.0856857c.1082764-.0634995.2042465-.2328491.2042465-.3623428l-.0123062-4.1601715c0-.0473099-.0135345-.0821762-.0356789-.0958786-.0073853-.0037308-.0172272-.0062256-.0270691-.0062256-.0184556 0-.0406037.0074768-.0652123.0211716z" fill="#3f434f"/></g></g></g><g><path d="m31.9154015 101.062355.0005417.1934738c.7274818-.3714828 1.3094215-.0064926 1.3118019.842865l-1.3073006.7637253.0043259 1.5439758c.0007496.2671661-.1887856.5993347-.4201355.7344894-.2313538.1351624-.4221249.0251617-.4228745-.2420044l.1758919-.1027527c.000433.1547852.1117172.218956.2464085.1402664.1346912-.0786819.2452526-.2724609.2448177-.4272461l-.004324-1.5439682-1.3072987.7637253c-.0023804-.84935.572443-1.8901291 1.3027973-2.3703232l-.0005436-.1934738z" fill="#3f434f"/></g><g><path d="m6.4640183 102.6410828c.1798697.1039352.3211622.3379898.3211622.5460129l-.0127802 2.9766693c0 .195015-.1413713.2730865-.308382.1819992l-4.650423-2.7167435c-.1797913-.1039352-.3211622-.3509979-.3211622-.5460129l.012859-2.9768295c0-.2078705.1412926-.2859344.3083032-.1818466z" fill="#e4e8f4"/><path d="m6.7980399 98.7802582-.0128593 2.98983c0 .1950226-.1412926.272934-.3083029.1689987l-4.6504235-2.7167511c-.1798697-.0910797-.3211622-.3379822-.3211622-.5458527l.0128591-2.9768219c0-.2080307.1412926-.2859421.3083031-.1820068l4.6504235 2.7167435c.1798696.1040954.3211622.3379898.3211622.5458603z" fill="#e4e8f4"/><g fill="#5b5e71"><path d="m6.341435 104.151619-.0003739.1334838-4.4044987-2.5731277.0003741-.1334839z"/><path d="m6.3425574 103.7510223-.0003743.1334916-4.4044982-2.5731278.000374-.1334915z"/><path d="m6.3448014 102.9499588-.0003738.1334915-4.4044984-2.5731277.000374-.1334915z"/><path d="m6.336946 105.7537384-.0003738.1334915-4.4044985-2.5731277.0003741-.1334915z"/><path d="m6.3380685 105.3531418-.0003743.1336212-4.4044985-2.5731277.0003744-.1336213z"/><path d="m6.3391905 104.9526825-.0003739.1334839-4.4044985-2.5731278.000374-.1334915z"/><path d="m6.340313 104.5520859-.0003744.1334839-4.4044982-2.5731278.0003741-.1334839z"/><path d="m6.3436794 103.3504257-.0003743.1336212-4.4044982-2.5731277.0003743-.1336212z"/><path d="m6.3526301 100.1557541-.0003738.1334915-4.4044985-2.5731277.000374-.1334916z"/><path d="m6.3537526 99.7551651-.0003738.1334839-4.4044986-2.5731278.0003741-.1334838z"/><path d="m6.3559971 98.9541016-.0003743.1334915-4.4044983-2.5731278.0003741-.1334915z"/><path d="m6.3571196 98.5535049-.0003748.1336213-4.4044983-2.5731278.0003745-.1336212z"/><path d="m6.3492904 101.3478394-.000401.1430587-4.4044983-2.5731277.0004008-.1430588z"/><path d="m6.3504128 100.9472427-.000401.1430664-4.4044983-2.5731277.0004008-.1430664z"/><path d="m6.3515348 100.5466537-.0004005.1430588-4.4044985-2.5731277.0004008-.1430588z"/><path d="m6.3548751 99.3545685-.0003743.1336136-4.4044986-2.5731278.0003744-.1336136z"/></g></g></g><g><g><g><path d="m56.740387 98.1409378-.0548478 18.9360809-16.9303741 9.9532776.0548439-18.9360809 7.2871208-4.2973099 2.1916046-1.2754059z" fill="#efac41"/></g></g><g><g><path d="m39.8323517 108.1053848-.0689507 18.9123764-17.0340194-9.9605179.0560398-18.8951263v-.028183h.0280189l7.3897133 4.3341446 1.6796131.9915924.5038338.2832184z" fill="#f9bb4a"/></g></g><g><g><path d="m56.751133 98.1584244-16.9286194 9.953453-7.4416237-4.3602066-2.1542759-1.2331619-.0434284-.0219116-7.3981934-4.3381729 16.9287529-9.9534531z" fill="#fed57a"/></g></g><g><g><path d="m49.3161545 93.7983475-16.9286194 9.9533233-2.1542759-1.2331619-.0434284-.0219116 16.9721794-9.9534531.0217819.0220413z" fill="#e4e8f4"/></g></g><g><g><path d="m30.1751347 107.0038834 2.1916027 1.303154.0274238-4.5101319v-.0555038l-.4930992-.2771836-1.6985054-.9704666v.0277481z" fill="#d4dae8"/></g></g><g><g><g><g><g><g><path d="m42.1605492 120.3683624.5102615.9825974-.3160172.1846466-.6973495.4044189z" fill="#3f434f"/></g></g></g><g><g><g><path d="m42.3547935 121.5356064.0054436 1.9437942-.3813133.2228012-.0054436-1.9437942z" fill="#3f434f"/></g></g></g><g><g><g><path d="m44.2490158 122.5492096.0011673.4160919-2.6326446 1.5382309-.0011635-.4160919z" fill="#3f434f"/></g></g></g><g><g><g><path d="m49.0601196 116.4533844.0038795 1.3849564c.0012245.437355-.2484932.9452744-.5800095 1.2028656l.0034981 1.2482758c.2325172-.1084824.4078293-.0983505.4081955.0322495l-1.0264244.5997314c-.0003662-.1306.174305-.3452225.4066734-.5083694l-.0034981-1.2482834c-.1515465.0611725-.2823944.0463638-.3846054-.0186462-.1205902-.0907745-.1995468-.2606354-.2002258-.5036087l-.0038795-1.3849487z" fill="#3f434f"/></g></g></g><g><g><g><path d="m43.8800583 120.6444092.0054474 1.9437942-.3813248.2228012-.0054436-1.9437942z" fill="#3f434f"/></g></g></g><g><g><g><path d="m43.688427 119.4756317.5076523.9841309-.316021.1846466-.6947365.4028854z" fill="#3f434f"/></g></g></g></g><g><g><path d="m46.2619362 122.2535324c-.0713615-.0398483-.1131973-.1220245-.1131973-.2253799l-.0110703-4.1589203c-.0024605-.1817932.1254997-.404686.2829895-.4980698l3.5706024-2.0856857c.0861282-.0498123.1734886-.0560379.243618-.0161896.0701332.0410919.1107368.1245193.1107368.2291183l.0123024 4.1589127c0 .1818008-.1242676.404686-.2768364.494339l-3.5706062 2.0856857c-.0492134.0286407-.099659.0435867-.1464157.0435867-.036911.0000001-.0713615-.0087203-.1021232-.0273971zm3.8056106-6.8360672-3.5706062 2.0856857c-.110733.0647507-.2091637.2390747-.2091637.3660812l.0110703 4.1589203c.0012321.0460739.0147667.0796967.0369148.0933914.0233765.009964.057827.0074692.0984306-.0161896l3.5706024-2.0856857c.1082764-.0634995.2030144-.2328491.2030144-.3623505l-.0123024-4.1589127c0-.0473175-.0135345-.0834274-.0356827-.0971298-.0073814-.0037308-.015995-.0062256-.0258369-.0062256-.0184555.0000001-.0418319.0074693-.0664406.0224153z" fill="#3f434f"/></g></g><g><g><path d="m40.9441719 125.3577805c-.0701294-.0410919-.1095047-.1232758-.1095047-.2241364l-.0110741-4.1589203c-.0024605-.1830368.1255035-.4071732.2829933-.4980698l3.5706024-2.0869293c.0861282-.0510559.1722565-.0572815.243618-.014946.0713615.0410919.1107368.1245193.1107368.2278671l.0123024 4.1601639c0 .1855392-.1218071.4034424-.2780685.494339l-3.5706024 2.0856857c-.0479851.0286407-.0984344.0423431-.1451874.0423431-.0381431.0000001-.0738257-.0087203-.1058158-.027397zm3.8093033-6.8360672-3.5706062 2.0869293c-.110733.0647507-.2091675.2378311-.2091675.3660812l.0110741 4.1589203c0 .0448303.0135345.0784454.0356827.0921478.0233765.0112076.0602875.0074692.0996628-.014946l3.5693741-2.0856857c.1082726-.0634995.2042427-.2328491.2042427-.3623505l-.0123024-4.1601639c0-.0473175-.0135345-.0821762-.0356827-.0958786-.0073814-.0037308-.0172234-.0062256-.0270691-.0062256-.0184556.0000001-.0406037.0074769-.0652085.0211717z" fill="#3f434f"/></g></g><g><g><path d="m51.572319 119.1499863c-.0701332-.0410919-.1095047-.1232681-.1095047-.2241287l-.0110741-4.1589203c-.0024605-.1830444.1254997-.4071808.2829895-.4980774l3.5706062-2.0869293c.0861244-.0510559.1722527-.0572815.243618-.014946.0713615.0410919.110733.1245193.110733.2278748l.0123062 4.1601639c0 .1855316-.1218109.4034348-.2780724.494339l-3.5706024 2.0856857c-.0479851.0286407-.0984306.0423355-.1451874.0423355-.0381391-.0000001-.0738218-.0087205-.1058119-.0273972zm3.8092995-6.8360672-3.5706024 2.0869293c-.1107368.0647507-.2091675.2378311-.2091675.3660889l.0110741 4.1589203c0 .0448227.0135345.0784454.0356789.0921402.0233803.0112076.0602913.0074692.0996628-.0149384l3.5693741-2.0856857c.1082726-.0635071.2042465-.2328491.2042465-.3623505l-.0123062-4.1601639c0-.0473175-.0135345-.0821838-.0356789-.0958786-.0073853-.0037384-.0172272-.0062256-.0270691-.0062256-.0184556 0-.0406037.0074692-.0652123.021164z" fill="#3f434f"/></g></g></g><g><path d="m53.6447716 113.7499008.0005417.1934738c.7274818-.3714828 1.3094215-.0064926 1.3118019.842865l-1.3073006.7637329.0043259 1.5439682c.0007477.2671661-.1887856.5993347-.4201355.7344971-.2313538.1351547-.4221268.0251617-.4228745-.2420044l.1758919-.1027603c.0004311.1547852.1117172.218956.2464066.140274.1346931-.0786896.2452545-.2724609.2448196-.4272537l-.0043259-1.5439682-1.3072968.7637329c-.0023804-.8493576.5724411-1.8901367 1.3027954-2.3703308l-.0005417-.1934662z" fill="#3f434f"/></g></g><g><path d="m28.193388 115.3286285c.1798706.1039352.3211632.3379898.3211632.5460205l-.0127811 2.9766617c0 .195015-.1413708.2730865-.308382.1820068l-4.650423-2.7167511c-.1797924-.1039352-.3211632-.3509979-.3211632-.5460129l.0128593-2.9768219c0-.2078705.1412926-.2859421.3083038-.1818466z" fill="#e4e8f4"/><path d="m28.5274086 111.467804-.0128574 2.9898376c0 .195015-.1412926.2729263-.3083038.1689911l-4.650423-2.7167511c-.1798706-.0910797-.3211632-.3379822-.3211632-.5458527l.0128593-2.9768219c0-.2080307.1412926-.2859421.3083038-.1820068l4.650423 2.7167511c.1798687.1040878.3211613.3379822.3211613.5458527z" fill="#e4e8f4"/><g fill="#5b5e71"><path d="m28.0708046 116.8391647-.0003738.1334916-4.4044991-2.5731278.0003738-.1334915z"/><path d="m28.0719261 116.4385681-.0003738.1334915-4.4044972-2.5731277.0003739-.1334915z"/><path d="m28.0741711 115.6375122-.0003739.1334839-4.404499-2.5731278.0003738-.1334838z"/><path d="m28.0663147 118.4412842-.0003738.1334915-4.4044972-2.5731278.0003739-.1334915z"/><path d="m28.0674381 118.0406952-.0003738.1336136-4.4044991-2.5731278.0003739-.1336212z"/><path d="m28.0685596 117.6402283-.0003738.1334839-4.404499-2.5731278.0003738-.1334839z"/><path d="m28.0696831 117.2396317-.0003739.1334915-4.404499-2.5731354.0003738-.1334839z"/><path d="m28.0730495 116.0379791-.0003757.1336136-4.4044971-2.5731277.0003738-.1336212z"/><path d="m28.0819988 112.8433075-.0003738.1334839-4.4044972-2.5731278.0003739-.1334839z"/><path d="m28.0831223 112.4427109-.0003739.1334915-4.404499-2.5731354.0003738-.1334839z"/><path d="m28.0853672 111.6416473-.0003738.1334916-4.4044991-2.5731278.0003738-.1334915z"/><path d="m28.0864887 111.2410583-.0003738.1336136-4.4044991-2.5731277.0003739-.1336212z"/><path d="m28.0786591 114.0353928-.0004006.1430587-4.4044971-2.5731277.0004005-.1430664z"/><path d="m28.0797825 113.6347961-.0004006.1430588-4.404499-2.5731277.0004005-.1430588z"/><path d="m28.080904 113.2341995-.0004005.1430588-4.4044991-2.5731277.0004025-.1430588z"/><path d="m28.0842438 112.0421143-.0003739.1336212-4.404499-2.5731278.0003757-.1336212z"/></g></g></g><g><g><g><path d="m49.3942871 70.5056992-.0548439 18.9360885-16.9303741 9.95327.0548439-18.936081 7.2871208-4.2973098 2.1916008-1.2753983z" fill="#efac41"/></g></g><g><g><path d="m32.4862518 80.4701538-.0689468 18.9123688-17.0340204-9.9605179.0560388-18.8951263v-.028183h.028019l7.3897133 4.3341446 1.6796131.9915924.5038318.2832184z" fill="#f9bb4a"/></g></g><g><g><path d="m49.4050369 70.5231934-16.9286194 9.953453-7.4416236-4.3602142-2.1542778-1.2331619-.0434266-.0219117-7.3981952-4.3381652 16.928751-9.9534569z" fill="#fed57a"/></g></g><g><g><path d="m41.9700584 66.1631088-16.9286193 9.9533234-2.1542778-1.2331619-.0434266-.0219117 16.9721795-9.953453.0217819.0220413z" fill="#e4e8f4"/></g></g><g><g><path d="m22.8290367 79.3686447 2.1916046 1.303154.027422-4.5101318v-.0555039l-.4930992-.2771835-1.6985054-.9704666v.0277557z" fill="#d4dae8"/></g></g><g><g><g><g><g><path d="m34.8144531 92.7331238.5102616.9825973-.3160172.1846466-.6973534.404419z" fill="#3f434f"/></g></g></g><g><g><g><path d="m35.0086975 93.9003677.0054436 1.9438019-.3813133.2227936-.0054474-1.9437943z" fill="#3f434f"/></g></g></g><g><g><g><path d="m36.9029198 94.9139709.0011635.4160996-2.6326409 1.5382233-.0011673-.416092z" fill="#3f434f"/></g></g></g><g><g><g><path d="m41.7140236 88.8181534.0038795 1.3849487c.0012245.437355-.248497.945282-.5800133 1.2028656l.0034981 1.2482834c.2325211-.1084824.4078331-.0983582.4081993.0322418l-1.0264244.5997314c-.0003662-.1306.174305-.3452225.4066734-.5083694l-.0034981-1.2482834c-.1515503.0611725-.2823944.0463638-.3846054-.0186462-.120594-.0907669-.1995468-.2606354-.2002258-.5036087l-.0038795-1.3849487z" fill="#3f434f"/></g></g></g><g><g><g><path d="m36.5339622 93.0091705.0054436 1.9437943-.3813209.2228088-.0054474-1.9438019z" fill="#3f434f"/></g></g></g><g><g><g><path d="m36.3423309 91.8403931.5076485.9841308-.3160172.1846466-.6947364.4028931z" fill="#3f434f"/></g></g></g></g><g><g><path d="m38.9158401 94.6182938c-.0713615-.0398483-.1131973-.1220245-.1131973-.2253799l-.0110741-4.1589203c-.0024605-.1817932.1254997-.4046783.2829933-.4980698l3.5706024-2.0856857c.0861282-.0498047.1734848-.0560303.243618-.0161896.0701332.0410919.1107368.1245193.1107368.2291183l.0123024 4.1589203c0 .1817932-.1242714.4046783-.2768402.4943314l-3.5706024 2.0856857c-.0492172.0286407-.0996628.0435867-.1464157.0435867-.0369109 0-.0713652-.0087204-.1021232-.0273971zm3.8056069-6.8360672-3.5706024 2.0856857c-.1107368.0647507-.2091675.2390747-.2091675.3660812l.0110741 4.1589203c.0012321.0460739.0147667.0796967.036911.0933914.0233803.009964.0578308.0074692.0984344-.0161896l3.5706024-2.0856857c.1082726-.0634995.2030144-.2328491.2030144-.3623428l-.0123024-4.1589203c0-.0473175-.0135345-.0834274-.0356827-.0971298-.0073814-.0037308-.015995-.0062256-.0258369-.0062256-.0184555 0-.0418358.0074768-.0664444.0224152z" fill="#3f434f"/></g></g><g><g><path d="m33.5980759 97.7225418c-.0701332-.0410919-.1095047-.1232758-.1095047-.2241364l-.0110741-4.1589127c-.0024605-.1830444.1254997-.4071808.2829895-.4980774l3.5706062-2.0869293c.0861282-.0510559.1722527-.0572815.243618-.014946.0713615.0410919.110733.1245193.110733.2278748l.0123062 4.1601639c0 .1855316-.1218109.4034348-.2780685.494339l-3.5706062 2.0856857c-.0479851.0286331-.0984306.0423355-.1451836.0423355-.0381431.0000001-.0738258-.0087203-.1058158-.0273971zm3.8092994-6.8360672-3.5706024 2.0869293c-.1107368.0647507-.2091675.2378311-.2091675.3660889l.0110741 4.1589127c0 .0448303.0135345.0784531.0356827.0921478.0233765.0112076.0602875.0074692.099659-.014946l3.5693741-2.0856857c.1082764-.0634995.2042465-.2328491.2042465-.3623428l-.0123062-4.1601639c0-.0473175-.0135307-.0821838-.0356789-.0958862-.0073814-.0037308-.0172272-.0062256-.0270691-.0062256-.0184555-.0000001-.0406037.0074767-.0652123.0211715z" fill="#3f434f"/></g></g><g><g><path d="m44.2262192 91.5147476c-.0701294-.0410919-.1095047-.1232681-.1095047-.2241287l-.0110741-4.1589203c-.0024605-.1830444.1255035-.4071732.2829933-.4980774l3.5706024-2.0869293c.0861282-.0510483.1722565-.0572739.243618-.0149384.0713654.0410919.1107368.1245193.1107368.2278671l.0123024 4.1601639c0 .1855316-.1218071.4034424-.2780685.494339l-3.5706024 2.0856857c-.0479851.0286407-.0984344.0423355-.1451874.0423355-.0381431.0000001-.073822-.0087127-.1058158-.0273971zm3.8093033-6.8360672-3.5706062 2.0869293c-.110733.0647507-.2091675.2378311-.2091675.3660889l.0110741 4.1589203c0 .0448227.0135345.0784454.0356827.0921402.0233765.0112076.0602875.0074692.0996628-.0149384l3.5693741-2.0856857c.1082726-.0635071.2042427-.2328491.2042427-.3623505l-.0123024-4.1601639c0-.0473175-.0135345-.0821838-.0356827-.0958786-.0073814-.0037384-.0172234-.0062256-.0270691-.0062256-.0184556.0000001-.0405999.0074693-.0652085.021164z" fill="#3f434f"/></g></g></g><g><path d="m46.2986717 86.1146622.0005455.1934738c.7274818-.3714828 1.3094177-.006485 1.3117981.842865l-1.3072968.7637329.0043259 1.5439682c.0007477.2671661-.1887856.5993423-.4201393.7344971-.2313499.1351547-.422123.0251617-.4228706-.2420044l.1758881-.1027603c.0004349.1547852.111721.218956.2464104.140274.1346931-.0786896.2452507-.2724609.2448196-.4272461l-.0043259-1.5439758-1.3073006.7637329c-.0023766-.8493576.5724449-1.8901367 1.3027992-2.3703232l-.0005417-.1934738z" fill="#3f434f"/></g><g><path d="m20.84729 87.6933899c.1798706.1039352.3211632.3379898.3211632.5460205l-.0127811 2.9766617c0 .195015-.1413708.2730865-.308382.1820068l-4.650423-2.7167511c-.1797905-.1039352-.3211622-.3509979-.3211622-.5460129l.0128593-2.9768219c0-.2078705.1412935-.2859421.3083029-.1818466z" fill="#e4e8f4"/><path d="m21.1813126 83.8325653-.0128593 2.9898376c0 .195015-.1412926.2729263-.3083038.1689911l-4.650423-2.7167435c-.1798687-.0910873-.3211622-.3379898-.3211622-.5458603l.0128593-2.9768219c0-.2080307.1412916-.2859421.3083029-.1820068l4.650423 2.7167511c.1798705.1040955.3211631.3379822.3211631.5458527z" fill="#e4e8f4"/><g fill="#5b5e71"><path d="m20.7247066 89.2039261-.0003738.1334915-4.404499-2.5731277.0003757-.1334916z"/><path d="m20.7258301 88.8033371-.0003739.1334839-4.404499-2.5731278.0003738-.1334915z"/><path d="m20.7280731 88.0022736-.0003738.1334915-4.4044972-2.5731354.0003739-.1334839z"/><path d="m20.7202187 90.8060532-.0003739.1334838-4.404499-2.5731277.0003738-.1334915z"/><path d="m20.7213402 90.4054565-.0003739.1336136-4.404499-2.5731277.0003757-.1336136z"/><path d="m20.7224636 90.0049896-.0003757.1334915-4.4044972-2.5731353.0003739-.1334839z"/><path d="m20.7235851 89.604393-.0003738.1334915-4.4044991-2.5731277.0003739-.1334915z"/><path d="m20.7269516 88.4027405-.0003738.1336136-4.4044991-2.5731278.0003738-.1336136z"/><path d="m20.7359028 85.2080688-.0003739.1334839-4.404499-2.5731277.0003738-.1334839z"/><path d="m20.7370243 84.8074722-.0003738.1334915-4.4044991-2.5731277.0003758-.1334915z"/><path d="m20.7392693 84.0064087-.0003739.1334915-4.404499-2.5731277.0003738-.1334916z"/><path d="m20.7403908 83.6058197-.0003739.1336136-4.404499-2.5731278.0003757-.1336135z"/><path d="m20.732563 86.4001541-.0004005.1430588-4.4044991-2.5731278.0004006-.1430587z"/><path d="m20.7336845 85.9995575-.0004005.1430588-4.4044991-2.5731278.0004025-.1430588z"/><path d="m20.734808 85.5989609-.0004025.1430588-4.4044971-2.5731278.0004005-.1430588z"/><path d="m20.7381477 84.4068756-.0003757.1336212-4.4044972-2.5731277.0003739-.1336212z"/></g></g></g><g><g><path d="m18.9670982 38.9924049c.3535366.5882263.5293865 1.205986.5274849 1.877182-.0018692.6591721-.1702461 1.0901299-.5259914 1.2808914-.3452816.1847687-.8777599.0694809-1.5974388-.3460236l-1.2411823-.7165985.0121632-4.2906952 1.2829037.7406845c.667528.3853952 1.1780299.8722421 1.5420607 1.4545594zm-.4665374 2.4196778c.2406063-.1132164.3563919-.4185104.3577499-.8978767.0027866-.9827385-.4860363-1.7571831-1.456007-2.3171959l-.6362648-.3673477-.0083599 2.9482765.6988182.4034615c.4589252.2649611.8034916.331848 1.0440636.2306823" fill="#5b5e71"/></g><g><path d="m22.9425888 40.7234116-.001936.6831436-1.9921455-1.1501656-.0032272 1.1386337 1.7835502 1.0297318-.0018348.6471405-1.7835503-1.0297356-.0032635 1.1505776 2.0547104 1.1862869-.0019035.6711998-2.690958-1.553627.0121631-4.2906914z" fill="#5b5e71"/></g><g><path d="m24.4340801 41.5845261-.0102272 3.6075439 1.7105541.987587-.0019378.6831474-2.3363343-1.3488846.0121632-4.2906913z" fill="#5b5e71"/></g><g><path d="m27.4588318 43.330864-.0121651 4.2906913-.6258163-.3613167.012165-4.2906875z" fill="#5b5e71"/></g><g><path d="m31.7038803 45.7817459-1.5140877 3.4235535-.7092476-.4094849-1.4793624-5.1518211.6988143.4034576 1.1382294 3.8744583 1.1564064-2.5496483z" fill="#5b5e71"/></g><g><path d="m34.864193 47.6063538-.0019379.6831436-2.0025749-1.156189-.0032311 1.1386299 1.7939873 1.035759-.0018349.6471405-1.7939872-1.035759-.0032616 1.1505776 2.0651779 1.1923294-.0019035.6711998-2.6909943-1.5536461.0121651-4.2906914z" fill="#5b5e71"/></g><g><path d="m37.8916016 52.0912743.9760132 2.1241684-.8031158-.4636803-.8824844-1.9500885-.8344078-.4817467-.0040779 1.4382324-.6258049-.3613091.0121613-4.2906952 1.387207.8009033c.5736542.3311996.9800911.685936 1.2193718 1.0401344.2496758.3722687.3738518.792099.3724594 1.2834816-.0020067.7071496-.2744447.9939271-.8173219.8605997zm-.7494393-.9728623c.3546257.2047424.5946884.2833519.7202225.2236786.1359329-.0415001.1990891-.2091484.1999054-.496788.000782-.2756195-.0716858-.5096016-.1965408-.6896935-.1353188-.1741295-.3646126-.3665695-.7088051-.5652885l-.8031197-.4636803-.0043488 1.534111z" fill="#5b5e71"/></g><g><path d="m42.4051857 51.9601479-1.3946037 1.7998313-.0047875 1.6899415-.6466484-.3733407.0047913-1.6899452-1.3798599-3.4016647.6884193.3974571 1.0165977 2.5437431 1.0276757-1.3634796z" fill="#5b5e71"/></g></g><g><path d="m41.6648407 54.4230309 6.8104744 8.3731842-6.8355751.480484.0082207-2.8996125-26.3627692-15.2205505.0086995-3.0684776 26.3627672 15.2205505z" fill="#5b5e71"/></g></g></svg>