<svg id="Layer_1" enable-background="new 0 0 130 130" height="512" viewBox="0 0 130 130" width="512" xmlns="http://www.w3.org/2000/svg"><g><g><g><g><path d="m131.1064148 63.9322662-.0257111 4.1865005c0 .5651245-.3596191 1.1300964-1.1044006 1.5666809l-69.3981171 40.3238602c-1.4895554.8733215-3.9295654.8476105-5.4449883-.0257111l-42.0189332-24.2456664c-.7704878-.4365845-1.1558094-1.0272675-1.1558094-1.5923996l.0257082-4.1864929c0 .5651245.3853226 1.1558075 1.1558104 1.5925446l42.0189323 24.2456741c1.4897118.8731689 3.9297218.8988724 5.4192772.0255508l69.3981171-40.3237c.7447843-.4367446 1.1044034-1.0017166 1.1301145-1.5668411z" fill="#474b59"/><path d="m129.9581909 62.3276901c1.5086517.8710175 1.5166626 2.291153.0178223 3.1621933l-69.3865814 40.3230667c-1.4988441.8710403-3.9343376.8615952-5.4429855-.0094223l-42.0125323-24.2559433c-1.5250444-.8804855-1.5329037-2.2817154-.0340567-3.1527557l69.3865814-40.3230705c1.498848-.8710327 3.9341812-.8805008 5.4592285-.0000153z" fill="#5b5e71"/><g><g><path d="m40.5206757 89.9529495c1.2298737.7100677 1.2690506 1.8651352.0471916 2.5752029-1.2381554.7195358-3.2486725.7100906-4.4785461.0000229-1.246273-.7195358-1.2363548-1.8651352.0018005-2.5846786 1.221859-.7100677 3.1832809-.710083 4.429554.0094528z" fill="#474b59"/></g><g><path d="m56.8621445 100.9353638c.4919472.2840271.5108986.7479477.0221672 1.0319672-.4887352.2840195-1.3059998.2840347-1.7979469.0000076l-9.9045944-5.7184219c-.5083466-.2934952-.4946022-.7574158-.0058708-1.0414352.4887352-.2840195 1.2733002-.2840271 1.7816505.0094681z" fill="#474b59"/></g><g><path d="m31.4283276 86.2511444c.4919491.2840271.5108986.7479477.0221672 1.0319672-.4887333.2840195-1.3059959.2840271-1.7979469 0l-9.9045925-5.7184143c-.5083504-.2934952-.4946041-.7574158-.0058708-1.0414429.4887314-.2840195 1.2733002-.2840271 1.7816486.0094681z" fill="#474b59"/></g><g><path d="m114.1256943 55.6891556c.344368.198822.3462067.5207062.0040283.7195549-.3258209.1893463-.8815231.1893311-1.2258911-.0094872l-14.676506-8.4734879c-.344368-.1988182-.3462067-.5207024-.0203857-.7100487.3421783-.1988487.8978806-.1988373 1.2422485-.0000153z" fill="#474b59"/></g><g><path d="m123.7050018 64.9096069-61.2372169 35.5706864-40.1876316-23.1841278 61.2372188-35.5955353z" fill="#fff"/></g></g></g><g><g><path d="m101.4626617 38.6697311-31.4234466 18.2613106-31.6290321-18.2610283 31.4234504-18.2613144z" fill="#fed57a"/><path d="m101.4626617 38.6697311-.0989303 34.8954163-31.4234467 18.2613144.0989304-34.8954201z" fill="#efac41"/><path d="m70.0392151 56.9310417-.0989304 34.8954201-31.6290283-18.2610321.0989266-34.8954163z" fill="#f9bb4a"/><path d="m47.358757 63.6605568.0396919-3.5823097 13.5932656 7.8478088-.0411644 3.5823135z" fill="#4c7891"/><path d="m88.3327637 31.0971756-31.4340554 18.2460098v10.4779587l-2.7099075-4.0043983-2.6496277 1.1136589v-10.6885605l31.4340554-18.2460098z" fill="#e4e8f4"/></g><g><path d="m98.6797943 61.2438774-22.6631546 13.0910454-.0517883-15.9368286 22.6633072-13.0907326z" fill="#fff"/><g fill="#5b5e71"><path d="m77.4505997 58.7206802.0384674 13.5708542-.5285645.3051682-.0384674-13.570858z"/><path d="m80.5064316 56.9563904.038475 13.5708542-.5451126.3147201-.038475-13.5708542z"/><path d="m79.4988174 57.5381355.0384751 13.570858-.3303452.1907196-.038475-13.5708503z"/><path d="m81.1671524 56.5749245.038475 13.5708503-.3303756.1907425-.0384674-13.5708542z"/><path d="m81.5635681 56.3460541.0384674 13.5708542-.1321258.0762863-.0384751-13.5708542z"/><path d="m82.1417007 56.0122719.0384675 13.5708504-.3303452.1907272-.038475-13.5708542z"/><path d="m82.9675903 55.5354424.0384751 13.5708503-.4955216.2860871-.038475-13.5708504z"/><path d="m83.6283112 55.1539726.038475 13.570858-.3303452.1907196-.038475-13.5708503z"/><path d="m78.6894531 58.0054283.0384674 13.5708504-.925003.53405-.0384674-13.5708504z"/><path d="m84.4872513 54.6580658.0384674 13.5708542-.5285645.3051681-.0384674-13.5708542z"/><path d="m86.5189743 53.4850464.038475 13.5708542-.3303756.1907425-.0384751-13.5708542z"/><path d="m88.1872864 52.5218506.0384674 13.5708542-.3303681.1907425-.038475-13.570858z"/><path d="m88.6002121 52.2834435.038475 13.5708503-.1321258.0762863-.0384751-13.5708541z"/><path d="m89.9877472 51.4823532.038475 13.5708542-.4790268.2765655-.038475-13.570858z"/><path d="m90.648468 51.1008835.0384751 13.5708542-.3303757.1907425-.0384751-13.5708542z"/><path d="m85.7260971 53.9428139.038475 13.570858-.925003.53405-.0384674-13.570858z"/><path d="m91.5073776 50.6049919.0384751 13.570858-.5285645.3051605-.038475-13.5708503z"/><path d="m93.5556259 49.4224358.0384751 13.5708541-.3303757.1907387-.0384751-13.5708542z"/><path d="m96.1984787 47.8965836.038475 13.5708541-.3303451.1907273-.0384751-13.5708542z"/><path d="m97.0243988 47.4197388.038475 13.5708542-.495552.2861023-.0384674-13.5708504z"/><path d="m92.7462311 49.88974.038475 13.5708542-.925003.53405-.0384751-13.5708542z"/><path d="m87.5265656 52.9033165.038475 13.5708504-.528595.3051834-.038475-13.5708504z"/><path d="m89.1783524 51.9496574.0384674 13.570858-.3303452.1907196-.038475-13.5708503z"/><path d="m94.5632172 48.8407021.038475 13.5708541-.528595.3051835-.038475-13.5708542z"/><path d="m95.223938 48.4592361.0384674 13.5708542-.330368.1907425-.0384751-13.5708542z"/><path d="m95.620369 48.2303543.038475 13.5708542-.1321564.0762978-.0384674-13.5708542z"/><path d="m97.6851196 47.0382729.0384751 13.5708541-.3303757.1907425-.038475-13.5708541z"/></g></g></g><g><g opacity=".53"><path d="m85.208168 55.6078987c.0371094 5.9693871-4.1900711 13.3116264-9.4182663 16.3519936-2.2989502 1.2981644-4.3754272 1.5575256-6.006958.964119-.4080505-.148468-.8529968-.4078293-1.2237091-.7043076-1.4090576-1.0754623-2.2249374-3.0408173-2.2618256-5.7104797 0-5.9698372 4.2269592-13.2749596 9.4182587-16.2782135 5.2281952-3.0403672 9.4925003-.6305237 9.4925003 5.3768882z" fill="#748bfd"/></g><g enable-background="new"><path d="m82.4080811 57.2105865c0 4.2273865-2.9557266 9.3828201-6.6332932 11.51371-1.8216858 1.0312576-3.5057602 1.1344681-4.7086105.4468231l-1.9934921-1.1684494c1.2028503.6872253 2.8527298.5840149 4.6742096-.4812241 3.6775665-2.096489 6.6676941-7.2519226 6.6332932-11.4793091 0-2.0625076-.7216263-3.5401611-1.9246826-4.2273865l2.0278931 1.1684494c1.1684492.6872217 1.9246825 2.1652986 1.9246825 4.2273866z" fill="#f34858"/><g><path d="m66.3994141 74.0828171c-.1093063-.2463379-.2700729-.4454575-.4854431-.5751877l2.015419 1.1712494c.2153854.1297302.3761597.3288422.4854584.5751877-.6046372-.3513413-1.5485841-.6505738-2.0154343-1.1712494z" fill="#f58b13"/></g><g><path d="m65.9139709 73.5076294c-.0048676-.0029373-.0097504-.0058289-.0146561-.0086746l2.0154266 1.1712646c.0049133.0028305.0098038.005722.0146713.0086594-.6046523-.3513718-1.4137419-.8148956-2.0154418-1.1712494z" fill="#f58b13"/></g><g><path d="m67.1175308 71.4487686c-.1983871-.1152878-.3939972-.2491913-.5835648-.4005051l2.0154037 1.1712723c.1896057.1512909.3852081.2851868.5835953.4004822-.6046599-.3513565-1.4108428-.81987-2.0154342-1.1712494z" fill="#f58b13"/></g><g><path d="m69.0969849 72.6002655-2.0154648-1.1711884c.2252884.1308517.4538651.2388611.6823578.3199539l2.0154114 1.1712723c-.2284699-.0811233-.4570389-.1891326-.6823044-.3200378z" fill="#f58b13"/></g><g><path d="m65.8993149 73.4989548 2.0154266 1.1712646c-.189621-.1102295-.4055176-.1555176-.6350708-.1492004l-2.0154495-1.1712341c.2295685-.0063248.4454574.0389633.6350937.1491699z" fill="#f58b13"/></g><g><path d="m67.1974106 74.5009232-2.0154419-1.1712418 1.3467102-2.2722321 2.0154343 1.1712494z" fill="#4c7891"/></g><g><path d="m68.5441132 72.2286987c.3981247.3043442.8167953.5430832 1.2352066.6915741l-1.3644714 2.3337936c-.1092987-.2463455-.2700729-.4454575-.4854355-.5751877-.1931381-.1165085-.4142532-.1643372-.6497421-.1578598l-.0822601-.0200958z" fill="#37617b"/></g><g><path d="m67.2854004 74.5325546c-.3092041 0-.6530304.1032028-.9966431.3096237-.5842209.3436127-1.1686554.9280472-1.6154785 1.6840744l-6.2550697 10.6888809c-.8936424 1.5124741-.8936424 3.1965485-.0344009 3.7461624l-2.0278969-1.1684494c-.8592377-.5500336-.8592377-2.2341003.0688057-3.7461624l6.2208786-10.6893005c.4468231-.7560272 1.031044-1.3744431 1.6496696-1.6840744.3094177-.2059937.6530304-.3087845.9624481-.3087845z" fill="#4c7891"/></g><g><path d="m66.2939758 74.8311539c.3382416-.195282.6748352-.3012619.9856949-.3101349.2354889-.0064774.456604.0413513.6497421.1578598.2153625.1297302.3761368.3288422.4854355.5751877.3423615.7713928.1691208 2.0184021-.500946 3.1560822l-6.2657967 10.7022552c-.4419556.7653427-1.0150795 1.3364639-1.614975 1.6828156-.5738029.3312836-1.1743774.4377975-1.6453934.1694336-.8636818-.5518494-.8684387-2.2302933.0416451-3.7463608l6.2397003-10.6871948c.4516526-.7672807 1.0390625-1.3617097 1.6248932-1.6999436z" fill="#37617b"/></g><g><path d="m75.7237091 50.2158546c5.2163849-3.0116806 9.4815598-.6110077 9.4985504 5.3828468.0169983 5.9942703-4.2205658 13.3341904-9.4369431 16.345871-2.2800293 1.3163681-4.3730927 1.5899429-6.0087967.9805527-.4156723-.1533508-.8343506-.3921051-1.2271118-.7056122-1.3903198-1.0869522-2.2292557-3.0451813-2.2367935-5.7033234-.0169906-5.9938544 4.1945725-13.2885741 9.4110947-16.3003349zm.0524292 18.4917336c3.6775284-2.1232224 6.6412201-7.256546 6.6292419-11.4825554-.0119019-4.1958733-2.9949646-5.8958321-6.672493-3.7726135-3.6515884 2.1082497-6.6152802 7.2415695-6.6033859 11.4374428.0119782 4.2260131 2.9950486 5.9259719 6.646637 3.8177261" fill="#f9607f"/></g><path d="m66.5339661 66.4555206c0 2.6465225.6140289 4.6744766 2.0230942 5.7745361l-2.0276871-1.1688614c-1.3748703-1.0996399-2.234108-3.0585251-2.234108-5.7050476 0-6.0146675 4.1931992-13.3009949 9.4172211-16.325531 2.6121216-1.5120583 5.0180283-1.6496696 6.7365112-.6528206l2.0719376 1.20961c-1.7184753-.9968529-3.9975281-.6495209-6.6096497.8625412-5.2242355 3.0245362-9.4117203 9.9909058-9.3773193 16.0055733z" fill="#f34858"/></g></g></g><g><path d="m3.10641 46.3426971 15.4462443 8.9763756 15.5473022-8.9762382-15.4462452-8.9763756z" fill="#fed57a"/><path d="m3.10641 46.3426971.0486286 17.1529007 15.4462454 8.9763718-.0486297-17.1528969z" fill="#efac41"/><path d="m18.5526543 55.3190727.0486297 17.1528969 15.5472985-8.9762344-.048626-17.1529007z" fill="#f9bb4a"/><path d="m29.7012711 58.626976-.0195122-1.7608871-6.6817913 3.8576011.020235 1.760891z" fill="#4c7891"/><path d="m27.6463699 50.0647697v5.2539902l-1.3023967-.5474205-1.3320542 1.9683418v-5.1504249h-.0000534z" fill="#f34858"/><path d="m12.1949263 41.0959167 15.4514436 8.968853-2.6345043 1.5244866-15.4514427-8.9688568z" fill="#f9607f"/></g><g><g><path d="m104.2861862 87.9037399 12.7346497 7.4005661 12.817955-7.4004516-12.734642-7.4005738z" fill="#fed57a"/><path d="m104.2861862 87.9037399.0400925 14.1416931 12.7346496 7.4005661-.0400924-14.1416931z" fill="#cad0dd"/><path d="m117.0208359 95.304306.0400924 14.1416931 12.8179627-7.4004516-.0401001-14.1416931z" fill="#d4dae8"/></g><g><path d="m103.0701447 88.6070099 13.9448242 8.1038437 14.0360565-8.1037216-13.9448242-8.1038514z" fill="#e4e8f4"/><path d="m103.0701447 88.6070099.0438995 3.3713531 13.9009247 8.1394577v-3.4069671z" fill="#d4dae8"/><path d="m117.0149689 96.7108536v3.4069671l14.079956-8.1393356-.0438995-3.3713531z" fill="#cad0dd"/></g></g><g><g><path d="m85.5463867 98.9150391 12.734642 7.4005661 12.8179627-7.4004517-12.734642-7.4005661z" fill="#fed57a"/><path d="m85.5463867 98.9150391.0400925 14.1416931 12.734642 7.4005661-.0400925-14.1416931z" fill="#6eba6e"/><path d="m98.2810287 106.3156052.0400925 14.1416931 12.8179627-7.4004517-.0400925-14.1416931z" fill="#75ca75"/></g><g><path d="m84.3303375 99.618309 13.9448319 8.1038437 14.0360565-8.1037216-13.9448242-8.1038437z" fill="#9ad898"/><path d="m84.3303375 99.618309.0439072 3.3713532 13.9009247 8.1394577v-3.4069672z" fill="#75ca75"/><path d="m98.2751694 107.7221527v3.4069672l14.0799637-8.1393357-.0439072-3.3713531z" fill="#6eba6e"/></g></g><g><path d="m4.9880276 30.6764545 13.5737018 7.8881741 13.6625061-7.888052-13.5737018-7.888174z" fill="#fed57a"/><path d="m4.9880276 30.6764545.0427332 15.0734578 13.5737028 7.8881759-.0427342-15.0734596z" fill="#efac41"/><path d="m18.5617294 38.5646286.0427342 15.0734596 13.6625042-7.8880539-.0427323-15.0734577z" fill="#f9bb4a"/><path d="m28.3588028 41.4715157-.0171471-1.5474167-5.8717594 3.389946.0177822 1.5474166z" fill="#4c7891"/><path d="m26.5530148 33.9473038v4.6170501l-1.1445065-.48106-1.1705685 1.7297249v-4.5260429h-.0000476z" fill="#f34858"/><path d="m12.9747458 26.0657387 13.578269 7.8815651-2.3151226 1.3396721-13.57827-7.8815651z" fill="#f9607f"/></g><g><path d="m6.6415372 16.4744854 11.9281669 6.9318924 12.0062046-6.9317856-11.9281674-6.9318933z" fill="#fed57a"/><path d="m6.6415372 16.4744854.0375528 13.246109 11.9281659 6.9318905-.0375518-13.2461071z" fill="#efac41"/><path d="m18.5697041 23.4063778.0375518 13.2461071 12.0062046-6.9317837-.0375518-13.246109z" fill="#f9bb4a"/><path d="m27.179081 25.960865-.0150681-1.3598251-5.1599293 2.9789848.0156269 1.3598252z" fill="#4c7891"/><path d="m25.5922089 19.3488083v4.0573273l-1.0057583-.4227372-1.0286618 1.5200272v-3.9773521h-.0000419z" fill="#f34858"/><path d="m13.6600285 12.4227257 11.9321804 6.9260826-2.034462 1.1772652-11.9321804-6.9260836z" fill="#f9607f"/></g></g><g><path d="m-1.1063845 100.2792969 11.9281666 6.9318924 12.0062037-6.9317856-11.9281655-6.9318924z" fill="#fed57a"/><path d="m-1.1063845 100.2792969.0375528 13.246109 11.9281666 6.9318924-.0375528-13.246109z" fill="#efac41"/><path d="m10.8217821 107.2111893.0375528 13.246109 12.0062047-6.9317856-.0375538-13.246109z" fill="#f9bb4a"/><path d="m19.4311581 109.7656784-.0150681-1.3598251-5.1599274 2.9789886.015626 1.3598252z" fill="#4c7891"/><path d="m17.844286 103.1536255v4.0573273l-1.0057583-.4227372-1.0286617 1.5200272v-3.977356h-.0000411z" fill="#f34858"/><path d="m5.9121065 96.2275391 11.9321795 6.9260864-2.0344611 1.1772613-11.9321801-6.9260864z" fill="#f9607f"/></g></g></svg>