<svg id="Capa_1" enable-background="new 0 0 512 512" height="512" viewBox="0 0 512 512" width="512" xmlns="http://www.w3.org/2000/svg"><g><path d="m38.703 43.081v78.512 30.301l43.472 9.273v-34.075c0-3.037 2.462-5.499 5.499-5.499h13.872c11.108 0 20.114-9.005 20.114-20.114v-49.205z" fill="#ffeee6"/><path d="m95.85 44.547v56.932c0 11.108-9.005 20.114-20.114 20.114h-8.573c-4.256 0-7.707 3.451-7.707 7.707v27.021l22.719 4.846v-34.075c0-3.037 2.462-5.499 5.499-5.499h13.872c11.108 0 20.114-9.005 20.114-20.114v-49.205z" fill="#ffdfcf"/><g><g><path d="m312.135 144.347h-76.742c-6.503 0-11.775 5.272-11.775 11.775v23.434l50.545 10.872 49.746-10.872v-23.434c.001-6.503-5.271-11.775-11.774-11.775z" fill="#f6a96c"/><path d="m323.909 156.124v23.437l-25.806 10.868v-34.304c0-6.501-5.275-11.775-11.775-11.775h25.806c6.501-.001 11.775 5.273 11.775 11.774z" fill="#ea9b58"/><path d="m320.364 289.708h-92.402c-11.104 0-19.602-9.888-17.931-20.866l13.587-89.286h74.485l40.168 89.129c1.777 11.026-6.738 21.023-17.907 21.023z" fill="#ea9b58"/><path d="m320.366 289.707h-25.806c11.167 0 19.677-9.993 17.905-21.026l-14.361-89.121h25.806l14.361 89.121c1.782 11.034-6.738 21.026-17.905 21.026z" fill="#d88a55"/></g></g><path d="m485.497 473.994-5.78 27.134c-1.006 4.723-5.178 8.1-10.007 8.1h-61.038c-5.651 0-10.231-4.581-10.231-10.231v-34.983z" fill="#6c7fd8"/><g><path d="m153.038 52.274h-42.821c-4.267 0-7.726-3.459-7.726-7.726s3.459-7.726 7.726-7.726h42.821c4.267 0 7.726 3.459 7.726 7.726s-3.459 7.726-7.726 7.726z" fill="#4f66d0"/></g><path d="m15.824 52.274v30.643c0 10.42 4.198 20.4 11.646 27.686l11.233 10.989 23.966-33.969c3.951-5.6 6.072-12.286 6.072-19.14v-16.209l-26.459-7.727z" fill="#918291"/><path d="m460.302 471.105-8.121 38.122h17.528c4.829 0 9.001-3.376 10.007-8.1l5.78-27.134z" fill="#4f66d0"/><path d="m82.822 2.773h-28.161c-21.449 0-38.837 17.388-38.837 38.837v10.665h80.026l25.81-10.665c-.001-21.449-17.389-38.837-38.838-38.837z" fill="#a2e62e"/><path d="m82.822 2.773h-25.81c21.449 0 38.837 17.388 38.837 38.837v10.665h25.81v-10.666c0-21.448-17.388-38.836-38.837-38.836z" fill="#97d729"/><path d="m0 326.324h120.315v-115.381c0-32.612-26.437-59.05-59.05-59.05h-21.032c-22.22.001-40.233 18.014-40.233 40.234z" fill="#a2e62e"/><path d="m120.315 326.324v172.667c0 5.651-4.581 10.231-10.231 10.231h-60.125c-5.231 0-9.62-3.946-10.174-9.148l-11.332-106.39s-28.453-16.273-28.453-67.359l60.158-14.508z" fill="#6c7fd8"/><path d="m94.506 322.326v186.897h15.578c5.651 0 10.231-4.581 10.231-10.231v-172.668z" fill="#4f66d0"/><path d="m0 326.324h120.315v-115.381c0-32.612-26.437-59.05-59.05-59.05h-21.032c-22.22.001-40.233 18.014-40.233 40.234z" fill="#a2e62e"/><path d="m0 326.324h94.506l25.81-115.381c0-32.612-26.437-59.05-59.05-59.05h-21.033c-22.22.001-40.233 18.014-40.233 40.234z" fill="#a2e62e"/><path d="m61.266 151.894h-21.033c-.748 0-1.491.024-2.229.064 31.429 1.336 56.502 27.228 56.502 58.985v115.381h25.81v-115.381c-.001-32.612-26.438-59.049-59.05-59.049z" fill="#97d729"/><path d="m473.297 31.867v89.726 30.301l-43.472 9.273v-33.121c0-3.564-2.889-6.453-6.453-6.453h-12.917c-11.108 0-20.114-9.005-20.114-20.114v-69.612z" fill="#eb9c8d"/><g><path d="m237.514 264.503-17.524 9.403-28.847 8.385-13.223-47.845 27.106-7.878c36.114-8.501 44.051 25.638 32.488 37.935z" fill="#ffeee6"/><path d="m238.106 268.64-18.131 5.275c9.9-5.501 15.061-17.286 11.775-28.618-3.441-11.816-14.907-19.955-26.723-18.729l19.223-5.594c13.155-3.822 26.929 3.74 30.761 16.905 3.822 13.155-3.75 26.929-16.905 30.761z" fill="#ffdfcf"/><g><path d="m191.144 282.291-36.842 10.713c-6.99 2.041-14.105 3.02-21.151 3.02-24.129 0-47.39-11.541-61.868-31.865l-52.036-73.05c-6.599-9.253-5.931-21.494.863-29.94 1.396-1.736 10.224-3.5 12.544-3.211 18.216 2.269 67.601 75.431 67.601 75.431 2.43 3.402 17.03 8.073 20.574 9.943 5.908 3.117 12.929 3.954 19.616 2.006l37.476-10.893z" fill="#00c27a"/></g><g><path d="m40.536 171.593 45.364 63.776c6.48 9.072 18.035 13.085 28.735 9.969l6.461-1.878c-3.652-1.875-6.895-4.605-9.386-8.091l-52.036-73.05c-7.956-11.169-23.454-13.774-34.608-5.819-1.904 1.357-3.553 2.936-4.95 4.673 7.815-.056 15.538 3.566 20.42 10.42z" fill="#08b865"/></g></g><path d="m398.402 61.773c13.822 6.976 33.519 15.242 49.257 15.242l25.637 74.879v38.535h38.704l-11.365-145.685c-1.848-23.69-21.611-41.971-45.373-41.971h-42.714c-17.229 0-31.195 13.967-31.195 31.195 0 11.739 6.57 22.515 17.049 27.805z" fill="#918291"/><path d="m500.635 44.744c-1.848-23.69-21.611-41.971-45.373-41.971h-25.81c23.762 0 43.525 18.281 45.373 41.971l11.365 145.684h25.81z" fill="#7a6d79"/><path d="m471.767 151.894h-22.997c-31.527 0-54.849 22.481-57.085 57.085l-22.149 254.118c-.51 5.856 4.106 10.892 9.984 10.892h95.269c5.535 0 17.958-4.487 17.958-10.022l19.253-271.84c0-22.22-18.013-40.233-40.233-40.233z" fill="#fe646f"/><g><path d="m445.212 411.007c-1.977 0-3.955-.755-5.464-2.263l-22.369-22.369c-3.017-3.018-3.017-7.909 0-10.928 3.018-3.016 7.909-3.016 10.928 0l22.369 22.369c4.926 4.594 1.146 13.425-5.464 13.191z" fill="#6c7fd8"/></g><path d="m471.767 151.894h-22.997c-.748 0-1.487.025-2.226.05 21.306 1.026 38.267 18.623 38.267 40.183v271.84c0 5.535-4.487 10.022-10.022 10.022h27.19c5.535 0 10.022-4.487 10.022-10.022v-271.84c-.001-22.22-18.014-40.233-40.234-40.233z" fill="#fd4755"/><path d="m463.239 256c-.01 24.961.444 54.063-19.212 68.063-5.738 4.079-10.991 11.59-17.862 13.99l-82.404 28.753c-12.939 4.502-27.094-2.328-31.616-15.257-4.502-12.949 2.318-27.094 15.257-31.616l82.394-28.753c10.528-3.657 17.616-13.64 17.637-24.786l.01-27.289 23.822-8.936z" fill="#eb9c8d"/><path d="m477.077 239.105-.01 27.289c-.01 24.951-12.27 47.852-31.925 61.852-5.069 3.606-10.621 6.624-16.586 8.921 14.196-13.959 22.685-33.316 22.695-54.095l.01-50.198z" fill="#d78878"/><path d="m451.261 239.109h-23.822l.011-62.407c.007-8.57 4.347-16.122 10.946-20.578 3.96-2.674 8.727.253 13.866.257 10.959 0 14.351 41.744 15.271 62.965.231 5.331-16.272 19.763-16.272 19.763z" fill="#b3dafe"/><path d="m452.266 151.895c-4.729-.004-9.147 1.318-12.908 3.612 7.15 4.357 11.922 12.225 11.915 21.205l-.011 62.397h25.81l.011-62.397c.011-13.702-11.104-24.817-24.817-24.817z" fill="#8ac9fe"/></g></svg>