<svg id="Layer_1" enable-background="new 0 0 512 512" viewBox="0 0 512 512" xmlns="http://www.w3.org/2000/svg"><g clip-rule="evenodd" fill-rule="evenodd"><path d="m395.189 187.308c3.504-.019 6.553-2.234 7.625-5.574 1.625-5.187-2.196-10.396-7.625-10.426h-36c-3.504.019-6.553 2.234-7.625 5.574-1.625 5.187 2.196 10.396 7.625 10.426zm-83.999 0c3.504-.019 6.553-2.234 7.625-5.574 1.625-5.187-2.196-10.396-7.625-10.426h-16c-3.504.019-6.553 2.234-7.625 5.574-1.625 5.187 2.196 10.396 7.625 10.426zm-64 0c3.504-.019 6.553-2.234 7.626-5.574 1.625-5.187-2.196-10.396-7.626-10.426h-16c-3.504.019-6.553 2.234-7.625 5.574-1.625 5.187 2.196 10.396 7.625 10.426zm-60.826 2.124c4.728-1.836 6.591-7.422 3.918-11.734-2.04-3.233-6.054-4.571-9.627-3.213-5.963 2.248-11.414 5.608-16.12 9.903-4.165 3.854-3.136 10.637 1.97 13.108 2.991 1.4 6.422.891 8.865-1.335 3.196-2.925 6.944-5.203 10.994-6.729zm-20.464 42.195c-1.111-3.314-4.207-5.512-7.7-5.472-5.425.094-9.175 5.383-7.479 10.531 1.986 6.037 5.127 11.668 9.22 16.531 3.952 4.655 11.419 3.363 13.597-2.35 1.016-2.756.502-5.73-1.382-7.984-.225-.26-.443-.538-.657-.808-2.483-3.171-4.34-6.622-5.599-10.448zm43.644 23.463c-3.504.019-6.552 2.234-7.625 5.574-1.625 5.187 2.196 10.396 7.625 10.426h16c3.504-.019 6.553-2.234 7.625-5.574 1.625-5.187-2.196-10.396-7.625-10.426zm64 0c-3.504.019-6.552 2.234-7.625 5.574-1.625 5.187 2.196 10.396 7.625 10.426h16c3.504-.019 6.553-2.234 7.625-5.574 1.625-5.187-2.196-10.396-7.625-10.426zm63.999 0c-3.504.019-6.552 2.234-7.626 5.574-1.625 5.187 2.196 10.396 7.626 10.426h16c3.504-.019 6.553-2.234 7.625-5.574 1.625-5.187-2.196-10.396-7.625-10.426zm64 0c-3.504.019-6.552 2.234-7.625 5.574-1.625 5.187 2.196 10.396 7.625 10.426 5.293 0 10.608-.051 15.898.004 3.637.04 6.831-2.35 7.811-5.854 1.391-5.079-2.345-10.058-7.607-10.145-5.361-.049-10.739-.005-16.102-.005zm65.587 16.108c-4.968-3.501-11.803-.493-12.583 5.54-.347 2.934.896 5.77 3.3 7.491 3.855 2.726 7.61 5.977 10.828 9.433 2.493 2.653 6.357 3.304 9.585 1.627 4.664-2.484 5.711-8.654 2.124-12.532-3.985-4.254-8.496-8.194-13.254-11.559zm36.02 58.339c-.911-6.076-8.023-8.914-12.866-5.119-2.262 1.803-3.375 4.586-2.963 7.452.697 4.657.982 9.626.7 14.328-.337 6.134 6.054 10.353 11.563 7.617 2.577-1.306 4.235-3.811 4.41-6.698.326-5.832.02-11.804-.844-17.58zm-17.325 66.322c2.078-2.672 2.244-6.336.442-9.196-2.974-4.669-9.674-4.995-13.073-.625-2.931 3.802-6.253 7.282-9.874 10.431-4.598 3.965-3.32 11.34 2.342 13.548 2.771 1.046 5.807.521 8.066-1.396 4.412-3.801 8.541-8.15 12.097-12.762zm-59.809 33.55c4.828-.504 8.085-5.105 6.965-9.828-.954-3.908-4.588-6.485-8.593-6.089-5.143.543-9.945.413-15.17.413-3.504.019-6.553 2.234-7.625 5.574-1.625 5.187 2.196 10.396 7.625 10.426 5.803 0 11.077.108 16.798-.496zm-64.797.496c3.504-.019 6.552-2.234 7.625-5.574 1.625-5.187-2.196-10.396-7.625-10.426h-16c-3.504.019-6.553 2.234-7.625 5.574-1.625 5.187 2.196 10.396 7.625 10.426z" fill="#b4d2d7"/><g><ellipse cx="438.416" cy="179.308" fill="#8d9ca8" rx="57.7" ry="21.028"/><path d="m483.273 166.083c8.029 3.613 12.843 8.214 12.843 13.225 0 11.613-25.833 21.028-57.7 21.028-24.055 0-44.668-5.365-53.331-12.99 10.578 4.759 26.741 7.803 44.857 7.803 31.867 0 57.7-9.414 57.7-21.028-.001-2.848-1.556-5.562-4.369-8.038z" fill="#7a8c98"/><ellipse cx="438.416" cy="179.308" fill="#eff4f7" rx="27.226" ry="9.922"/><path d="m438.416 169.385c10.175 0 19.045 2.034 23.718 5.048-4.773-1.505-10.995-2.415-17.801-2.415-15.037 0-27.226 4.442-27.226 9.922 0 1.772 1.276 3.435 3.508 4.874-5.773-1.819-9.426-4.508-9.426-7.508 0-5.478 12.19-9.921 27.227-9.921z" fill="#e2e3e3"/><path d="m438.416 8.999c-54.96 0-109.921 56.769 0 170.309 109.921-113.539 54.96-170.309 0-170.309z" fill="#64b5f6"/><path d="m438.416 8.999c-2.123 0-4.244.095-6.357.264 51.508 4.129 97.354 58.57 0 163.327 2.062 2.219 4.165 4.453 6.357 6.717 109.921-113.538 54.96-170.308 0-170.308z" fill="#42a5f5"/><ellipse cx="438.416" cy="71.648" fill="#eff4f7" rx="31.569" ry="31.57" transform="matrix(.178 -.984 .984 .178 289.694 490.245)"/><path d="m438.416 40.078c10.602 0 19.984 5.227 25.709 13.244-5.083-3.5-11.242-5.55-17.879-5.55-17.435 0-31.569 14.134-31.569 31.57 0 6.833 2.171 13.159 5.861 18.326-8.268-5.693-13.69-15.222-13.69-26.02-.002-17.436 14.132-31.57 31.568-31.57z" fill="#e2e3e3"/></g><g><path d="m246.552 478.583-226.709.001c-6.581 0-11.964-5.383-11.964-11.964v-157.816c0-6.581 5.383-11.963 11.964-11.963h174.078c6.581 0 11.964 5.383 11.964 11.963v17.597h39.836c5.33 0 9.92 2.021 13.516 5.956l42.955 46.983c3.209 3.51 4.797 7.601 4.797 12.357v74.921c0 6.589-5.375 11.964-11.964 11.964h-48.473z" fill="#fdb800"/><path d="m191.369 430.906h14.516v47.677h-14.516z" fill="#f4a40e"/><path d="m205.884 438.758h-198.005v-129.953c0-6.581 5.383-11.964 11.964-11.964h174.078c6.581 0 11.964 5.383 11.964 11.964v129.953z" fill="#ffda2d"/><path d="m205.884 438.758h-14.515v-129.953c0-6.581-5.383-11.964-11.964-11.964h14.515c6.581 0 11.964 5.383 11.964 11.964z" fill="#ffc700"/><path d="m205.885 326.401v112.357 39.825h40.667 48.473c6.59 0 11.965-5.375 11.965-11.964v-74.922c0-4.756-1.589-8.848-4.798-12.357l-42.955-46.983c-3.596-3.934-8.186-5.956-13.516-5.956z" fill="#fc685b"/><path d="m205.885 326.401v112.357 39.825h40.667 48.473c5.6 0 10.322-3.882 11.614-9.093-.832.184-1.695.282-2.581.282h-48.473-40.667v-39.825-103.546z" fill="#f35244"/><path d="m293.231 399.395v-7.697c0-1.315-.306-2.103-1.193-3.074l-42.955-46.983c-.987-1.079-1.898-1.481-3.362-1.481h-24.257l.001 59.236z" fill="#e6f8ff"/><path d="m293.231 399.395v-7.697c0-1.315-.306-2.103-1.193-3.074l-42.955-46.983c-.987-1.08-1.898-1.481-3.362-1.481h-24.257v7.258h17c1.463 0 2.375.401 3.362 1.481l42.955 46.983c.887.97 1.193 1.759 1.193 3.074v.44h7.257z" fill="#d0f1ff"/><path d="m306.989 437.86v18.538h-11.388c-2.329 0-4.229-1.9-4.229-4.229v-10.079c0-2.329 1.9-4.23 4.229-4.23z" fill="#ffda2d"/><path d="m306.989 437.86v2.773h-8.324c-2.329 0-4.23 1.9-4.23 4.229v10.079c0 .472.078.926.222 1.35-1.878-.431-3.286-2.118-3.286-4.123v-10.078c0-2.329 1.9-4.23 4.23-4.23z" fill="#ffc700"/><path d="m235.658 413.389c2.675 0 4.844 2.169 4.844 4.844s-2.169 4.844-4.844 4.844h-9.799c-2.675 0-4.844-2.169-4.844-4.844s2.169-4.844 4.844-4.844z" fill="#eff4f7"/><path d="m251.941 454.166c13.485 0 24.417 10.933 24.417 24.417 0 13.486-10.932 24.418-24.417 24.418s-24.417-10.932-24.417-24.418c0-13.484 10.932-24.417 24.417-24.417zm-133.023 0c13.485 0 24.417 10.932 24.417 24.417 0 13.486-10.932 24.418-24.417 24.418s-24.417-10.932-24.417-24.418c0-13.485 10.932-24.417 24.417-24.417zm-62.811 0c13.485 0 24.417 10.932 24.417 24.417 0 13.486-10.932 24.418-24.417 24.418s-24.417-10.932-24.417-24.418c0-13.485 10.932-24.417 24.417-24.417z" fill="#465759"/><path d="m266.204 458.764c6.15 4.434 10.155 11.658 10.155 19.819 0 13.486-10.932 24.418-24.417 24.418-8.041 0-15.174-3.888-19.623-9.886 4.012 2.893 8.938 4.598 14.262 4.598 13.485 0 24.417-10.932 24.417-24.417 0-5.444-1.783-10.472-4.794-14.532zm-133.024-.001c6.151 4.434 10.155 11.659 10.155 19.82 0 13.486-10.932 24.418-24.417 24.418-8.041 0-15.174-3.888-19.623-9.886 4.013 2.893 8.938 4.598 14.262 4.598 13.485 0 24.417-10.932 24.417-24.417 0-5.445-1.782-10.472-4.794-14.533zm-62.811 0c6.15 4.434 10.155 11.659 10.155 19.82 0 13.486-10.932 24.418-24.417 24.418-8.041 0-15.174-3.888-19.623-9.886 4.013 2.893 8.938 4.598 14.262 4.598 13.485 0 24.417-10.932 24.417-24.417 0-5.445-1.782-10.472-4.794-14.533z" fill="#3a484a"/><path d="m118.918 469.121c-5.23 0-9.462 4.232-9.462 9.462 0 5.231 4.232 9.462 9.462 9.462 5.231 0 9.462-4.232 9.462-9.462s-4.231-9.462-9.462-9.462zm133.023 0c-5.231 0-9.462 4.232-9.462 9.462 0 5.231 4.232 9.462 9.462 9.462 5.231 0 9.462-4.232 9.462-9.462s-4.231-9.462-9.462-9.462zm-195.834 0c-5.231 0-9.462 4.232-9.462 9.462 0 5.231 4.232 9.462 9.462 9.462 5.231 0 9.462-4.232 9.462-9.462s-4.231-9.462-9.462-9.462z" fill="#3a484a"/><path d="m118.918 469.121c-5.23 0-9.462 4.232-9.462 9.462 0 3.254 1.638 6.122 4.136 7.824-1.158-1.57-1.842-3.511-1.842-5.614 0-5.23 4.231-9.462 9.462-9.462 1.976 0 3.809.604 5.326 1.638-1.722-2.335-4.492-3.848-7.62-3.848zm133.023 0c-5.231 0-9.462 4.232-9.462 9.462 0 3.254 1.639 6.122 4.136 7.824-1.158-1.57-1.842-3.511-1.842-5.614 0-5.23 4.232-9.462 9.462-9.462 1.976 0 3.809.604 5.326 1.638-1.722-2.335-4.492-3.848-7.62-3.848zm-195.834 0c-5.231 0-9.462 4.232-9.462 9.462 0 3.254 1.638 6.122 4.136 7.824-1.158-1.57-1.842-3.511-1.842-5.614 0-5.23 4.232-9.462 9.462-9.462 1.976 0 3.809.604 5.326 1.638-1.722-2.335-4.492-3.848-7.62-3.848z" fill="#313d40"/></g><g><path d="m72.769 296.841h68.225v45.182c0 4.302-4.988 6.662-8.314 3.935l-22.572-18.505c-1.895-1.554-4.557-1.554-6.452 0l-22.572 18.505c-3.327 2.728-8.314.367-8.314-3.935v-45.182z" fill="#fdb800"/><path d="m130.994 296.841h10v45.182c0 4.302-4.988 6.662-8.314 3.935l-2.156-1.767c.299-.643.47-1.372.47-2.167zm-27.338 30.611-22.572 18.505c-2.711 2.223-6.526 1.066-7.844-1.767l22.19-18.192c1.895-1.554 4.557-1.553 6.452 0z" fill="#f4a40e"/></g></g></svg>