<svg id="Layer_1" enable-background="new 0 0 512 512" viewBox="0 0 512 512" xmlns="http://www.w3.org/2000/svg"><g clip-rule="evenodd" fill-rule="evenodd"><g><path d="m114.916 353.018-82.656-191.75c-1.721-4.005.085-8.638 4.035-10.432l215.893-118.231c2.5-1.362 5.408-1.246 7.72.052l216.302 118.456c3.647 1.987 5.123 6.407 3.51 10.147l.021.009-82.656 191.75-14.688-6.312 79.789-185.098-206.186-112.917-206.185 112.916 79.789 185.098z" fill="#b4d2d7"/><path d="m39.604 127.509c16.902 0 30.604 13.702 30.604 30.604s-13.702 30.604-30.604 30.604c-16.902-.001-30.604-13.703-30.604-30.605s13.702-30.603 30.604-30.603zm432.793 0c16.902 0 30.604 13.702 30.604 30.604s-13.702 30.604-30.604 30.604-30.604-13.702-30.604-30.604 13.702-30.604 30.604-30.604z" fill="#64b5f6"/><path d="m54.488 131.368c9.377 5.23 15.72 15.245 15.72 26.744 0 16.902-13.702 30.604-30.604 30.604-9.059 0-17.198-3.937-22.801-10.193 4.406 2.457 9.481 3.859 14.884 3.859 16.902 0 30.604-13.701 30.604-30.604 0-7.842-2.952-14.995-7.803-20.41zm432.793 0c9.377 5.23 15.72 15.245 15.72 26.744 0 16.902-13.702 30.604-30.604 30.604-9.059 0-17.198-3.937-22.801-10.193 4.406 2.457 9.481 3.859 14.884 3.859 16.902 0 30.604-13.701 30.604-30.604 0-7.842-2.952-14.995-7.803-20.41z" fill="#42a5f5"/></g><g><path d="m147.462 8.999h217.076c7.314 0 13.297 5.984 13.297 13.298v184.109c0 7.313-5.984 13.297-13.297 13.297h-217.076c-7.314 0-13.297-5.984-13.297-13.297v-184.109c0-7.314 5.984-13.298 13.297-13.298z" fill="#da8c36"/><path d="m361.544 8.999h2.994c7.314 0 13.297 5.984 13.297 13.297v184.11c0 7.314-5.983 13.297-13.297 13.297h-217.076c-7.314 0-13.297-5.983-13.297-13.297v-4.217h214.083c7.314 0 13.297-5.983 13.297-13.297v-179.893z" fill="#c97629"/><path d="m179.317 146.701h47.997c2.893 0 5.258 2.366 5.258 5.258v22.591c0 2.893-2.366 5.259-5.258 5.259h-47.997c-2.893 0-5.258-2.366-5.258-5.259v-22.591c0-2.892 2.365-5.258 5.258-5.258z" fill="#eff4f7"/><path d="m179.317 146.701h47.997c2.893 0 5.258 2.366 5.258 5.258v2.895h-45.102c-2.893 0-5.258 2.366-5.258 5.258v19.696h-2.895c-2.893 0-5.258-2.366-5.258-5.259v-22.591c0-2.891 2.365-5.257 5.258-5.257z" fill="#e2e3e3"/><path d="m216.603 8.999h78.794v52.182c0 4.969-5.76 7.695-9.602 4.545l-26.069-21.373c-2.189-1.794-5.263-1.794-7.452 0l-26.069 21.373c-3.842 3.15-9.602.424-9.602-4.545z" fill="#ffda2d"/><path d="m286.948 8.999h8.449v52.182c0 4.969-5.76 7.695-9.602 4.545l-8.44-6.919c3.842 3.138 9.594.413 9.594-4.552v-45.256zm-27.237 35.342c-2.188-1.783-5.254-1.779-7.438.011l-26.069 21.373c-3.842 3.15-9.602.424-9.602-4.545v-1.634c.397-.197.784-.445 1.154-.748l26.069-21.373c2.189-1.794 5.263-1.794 7.452 0z" fill="#ffc700"/></g><g><path d="m9.019 466.323c3.92-52.253 47.901-93.793 101.112-93.793s97.192 41.541 101.112 93.793c.31 4.128-2.914 7.602-7.054 7.602h-188.116c-4.14 0-7.363-3.474-7.054-7.602z" fill="#ffda2d"/><path d="m98.817 373.168c3.717-.418 7.491-.639 11.314-.639 53.212 0 97.192 41.541 101.112 93.794.31 4.128-2.914 7.602-7.054 7.602h-22.63c4.14 0 7.364-3.474 7.054-7.602-3.638-48.498-41.788-87.762-89.796-93.155z" fill="#ffc700"/><circle cx="110.131" cy="312.436" fill="#ffd6bd" r="54.801"/><path d="m68.576 348.16c10.05 11.68 24.938 19.077 41.555 19.077 30.266 0 54.802-24.535 54.802-54.801 0-19.438-10.121-36.511-25.379-46.24 8.254 9.593 13.245 22.075 13.245 35.723 0 30.266-24.536 54.801-54.801 54.801-10.829.001-20.922-3.14-29.422-8.56z" fill="#f9c6aa"/></g><g><path d="m300.757 466.323c3.92-52.253 47.901-93.793 101.112-93.793s97.191 41.541 101.112 93.793c.31 4.128-2.914 7.602-7.054 7.602h-188.116c-4.14 0-7.363-3.474-7.054-7.602z" fill="#72d561"/><path d="m390.554 373.168c3.717-.418 7.491-.639 11.315-.639 53.212 0 97.191 41.541 101.112 93.794.31 4.128-2.914 7.602-7.054 7.602h-22.629c4.14 0 7.364-3.474 7.054-7.602-3.64-48.498-41.789-87.762-89.798-93.155z" fill="#57ca5a"/><ellipse cx="401.868" cy="312.436" fill="#ffd6bd" rx="54.801" ry="54.802" transform="matrix(.023 -1 1 .023 80.386 707.106)"/><path d="m360.313 348.16c10.05 11.68 24.938 19.077 41.555 19.077 30.266 0 54.802-24.535 54.802-54.801 0-19.438-10.121-36.511-25.379-46.24 8.254 9.593 13.245 22.075 13.245 35.723 0 30.266-24.536 54.801-54.801 54.801-10.829.001-20.922-3.14-29.422-8.56z" fill="#f9c6aa"/></g><g><path d="m140.953 494.351c4.46-59.455 54.502-106.721 115.047-106.721s110.587 47.266 115.047 106.721c.353 4.697-3.315 8.65-8.026 8.65h-214.042c-4.711 0-8.379-3.953-8.026-8.65z" fill="#64b5f6"/><path d="m243.126 388.357c4.229-.475 8.523-.727 12.874-.727 60.545 0 110.587 47.266 115.047 106.72.353 4.698-3.315 8.65-8.026 8.65h-25.748c4.71 0 8.378-3.953 8.025-8.65-4.139-55.181-47.546-99.856-102.172-105.993z" fill="#42a5f5"/><circle cx="256" cy="319.255" fill="#ffd6bd" r="62.354"/><path d="m208.717 359.902c11.435 13.29 28.375 21.707 47.283 21.707 34.437 0 62.354-27.917 62.354-62.354 0-22.116-11.516-41.542-28.877-52.612 9.392 10.916 15.071 25.117 15.071 40.647 0 34.437-27.917 62.354-62.354 62.354-12.321-.001-23.805-3.575-33.477-9.742z" fill="#f9c6aa"/></g></g></svg>