<svg clip-rule="evenodd" fill-rule="evenodd" stroke-linejoin="round" stroke-miterlimit="2" viewBox="0 0 510 510" xmlns="http://www.w3.org/2000/svg"><g><path d="m254.227 44.97c115.919 0 210.031 94.112 210.031 210.031s-94.112 210.031-210.031 210.031-210.03-94.112-210.03-210.031 94.111-210.031 210.03-210.031zm0 16c-107.088 0-194.03 86.943-194.03 194.031s86.942 194.031 194.03 194.031c107.089 0 194.031-86.943 194.031-194.031s-86.942-194.031-194.031-194.031z" fill="#a79ba7"/><g><path d="m437.607 430.091c-1.063 1.236-2.613 1.947-4.243 1.947-1.631 0-3.18-.712-4.243-1.948-22.179-25.561-56.621-61.872-56.621-92.617 0-33.607 27.257-60.864 60.864-60.864 33.617 0 60.863 27.257 60.863 60.864 0 30.746-34.433 67.057-56.62 92.618z" fill="#fe646f"/><path d="m428.364 276.812c1.649-.134 3.316-.203 5-.203 33.617 0 60.863 27.257 60.863 60.864 0 30.746-34.433 67.057-56.62 92.618-1.063 1.236-2.613 1.947-4.243 1.947-1.631 0-3.18-.712-4.243-1.948-.251-.289-.503-.579-.756-.87 22.203-25.511 55.862-61.349 55.862-91.747 0-31.924-24.585-58.117-55.863-60.661z" fill="#fd4755"/><path d="m433.364 375.209c20.782 0 37.736-16.954 37.736-37.736s-16.954-37.726-37.736-37.726c-20.783 0-37.726 16.944-37.726 37.726s16.943 37.736 37.726 37.736z" fill="#eceff1"/><path d="m438.364 300.078c-18.433 2.458-32.726 18.307-32.726 37.395s14.293 34.946 32.726 37.405c-1.637.219-3.306.331-5 .331-20.783 0-37.726-16.954-37.726-37.736s16.943-37.726 37.726-37.726c1.694 0 3.363.113 5 .331z" fill="#d1d1d6"/></g><g><path d="m419.37 222.154c-1.436 1.669-3.527 2.628-5.728 2.628s-4.292-.96-5.727-2.629c-29.938-34.502-76.428-83.515-76.428-125.016 0-45.363 36.791-82.155 82.154-82.155 45.377 0 82.155 36.792 82.155 82.155 0 41.501-46.479 90.515-76.426 125.017z" fill="#ffe177"/><path d="m406.893 15.255c2.226-.181 4.476-.273 6.748-.273 45.377 0 82.155 36.792 82.155 82.155 0 41.501-46.479 90.515-76.426 125.017-1.436 1.669-3.527 2.628-5.728 2.628s-4.292-.96-5.727-2.629c-.339-.39-.679-.781-1.021-1.175 29.97-34.434 75.404-82.809 75.404-123.841 0-43.091-33.186-78.448-75.405-81.882z" fill="#ffd064"/></g><g><path d="m79.334 180.978c-1.063 1.236-2.612 1.947-4.243 1.946-1.63 0-3.18-.711-4.243-1.947-22.179-25.561-56.621-61.872-56.621-92.617 0-33.607 27.257-60.864 60.864-60.864 33.617 0 60.864 27.257 60.864 60.864 0 30.745-34.434 67.057-56.621 92.618z" fill="#fe646f"/><path d="m70.092 27.699c1.648-.135 3.316-.203 4.999-.203 33.617 0 60.864 27.257 60.864 60.864 0 30.745-34.434 67.057-56.621 92.618-1.063 1.236-2.612 1.947-4.243 1.946-1.63 0-3.18-.711-4.243-1.947-.25-.289-.503-.579-.756-.871 22.203-25.51 55.863-61.348 55.863-91.746 0-31.924-24.586-58.118-55.863-60.661z" fill="#fd4755"/><path d="m75.091 126.096c20.782 0 37.736-16.954 37.736-37.736 0-20.783-16.954-37.726-37.736-37.726-20.783 0-37.726 16.943-37.726 37.726 0 20.782 16.943 37.736 37.726 37.736z" fill="#eceff1"/><path d="m80.091 50.965c-18.433 2.457-32.726 18.307-32.726 37.395s14.293 34.946 32.726 37.405c-1.637.218-3.306.331-5 .331-20.783 0-37.726-16.954-37.726-37.736 0-20.783 16.943-37.726 37.726-37.726 1.694 0 3.363.112 5 .331z" fill="#d1d1d6"/></g><g><path d="m425.835 45.868c5.411 1.287 10.577 3.429 15.308 6.344l9.947-4.413 11.72 11.72-4.413 9.947c2.915 4.731 5.057 9.897 6.345 15.308l10.149 3.907v16.581l-10.149 3.907c-1.288 5.404-3.43 10.569-6.345 15.3l4.413 9.948-11.72 11.727-9.947-4.421c-4.731 2.916-9.897 5.064-15.308 6.352l-3.907 10.143h-16.581l-3.906-10.15c-5.404-1.288-10.57-3.429-15.301-6.345l-9.947 4.421-11.727-11.727 4.42-9.94c-2.916-4.739-5.064-9.904-6.352-15.308l-10.143-3.907v-16.581l10.143-3.907c1.288-5.411 3.436-10.577 6.352-15.308l-4.42-9.947 11.727-11.72 9.94 4.413c4.738-2.915 9.904-5.057 15.308-6.344l3.906-10.15h16.581z" fill="#a79ba7"/><path d="m447.748 49.282 3.342-1.483 11.72 11.72-4.413 9.947c2.915 4.731 5.057 9.897 6.345 15.308l10.149 3.907v16.581l-10.149 3.907c-1.288 5.404-3.43 10.569-6.345 15.3l4.413 9.948-11.72 11.727-3.342-1.484 10.244-10.243-4.42-9.948c2.915-4.731 5.057-9.896 6.344-15.3l10.15-3.907v-16.581l-10.15-3.907c-1.287-5.411-3.429-10.577-6.344-15.308l4.42-9.947zm-73.038 0 1.483-1.483 9.94 4.413c-.702.391-1.397.796-2.077 1.223zm51.125-3.414c5.411 1.287 10.577 3.429 15.308 6.344l-2.742 1.223c-4.731-2.916-11.98-6.28-17.391-7.567l-3.907-10.15h4.825zm-39.695 95.855-9.947 4.421-1.483-1.484 9.346-4.152c.68.42 1.375.825 2.084 1.215zm55.003 0c-4.731 2.916-9.897 5.064-15.308 6.352l-3.907 10.143h-4.825l3.907-10.143c5.411-1.288 12.66-4.652 17.398-7.567z" fill="#837683"/><path d="m413.639 68.063c15.965 0 28.907 12.942 28.907 28.908 0 15.96-12.942 28.901-28.907 28.901-15.96 0-28.902-12.941-28.902-28.901 0-15.966 12.942-28.908 28.902-28.908z" fill="#eceff1"/><path d="m413.639 68.063c.657 0 1.309.024 1.961.071-15.05 1.004-26.952 13.529-26.952 28.837 0 15.302 11.902 27.827 26.952 28.837-.652.041-1.304.064-1.961.064-15.96 0-28.902-12.941-28.902-28.901 0-15.966 12.942-28.908 28.902-28.908z" fill="#d1d1d6"/></g><g><path d="m210.758 322.058h63.53c6.355 0 11.775 3.388 14.072 8.798l23.922 56.326c.707 1.666 1.022 3.195 1.022 4.983v69.687c0 4.981-4.064 9.045-9.046 9.045h-259.299c-6.643 0-12.061-5.417-12.061-12.06v-44.039h174.745v-89.625c0-1.716 1.399-3.115 3.115-3.115z" fill="#ffe177"/><path d="m313.304 435.131c-.005 0-.01 0-.015 0h-22.025c-6.145 0-11.134-4.989-11.134-11.135 0-6.145 4.989-11.134 11.134-11.134h22.025.015z" fill="#eceff1"/><path d="m210.758 322.058h9.162c-1.716 0-3.115 1.399-3.115 3.115v145.724h-9.163v-145.724c0-1.716 1.4-3.115 3.116-3.115z" fill="#ffc338"/><path d="m289.768 381.594-16.284-38.341c-.699-1.646-2.227-2.656-4.015-2.656h-38.926c-2.402 0-4.361 1.959-4.361 4.361v38.342c0 2.402 1.959 4.362 4.361 4.362h55.21c1.508 0 2.806-.698 3.637-1.955.833-1.258.967-2.724.378-4.113z" fill="#eceff1"/><path d="m236.775 340.597h-6.232c-2.402 0-4.361 1.959-4.361 4.361v38.342c0 2.402 1.959 4.362 4.361 4.362h6.232c-2.403 0-4.362-1.96-4.362-4.362v-38.342c0-2.402 1.959-4.361 4.362-4.361z" fill="#d1d1d6"/><path d="m260.473 446.776c13.322 0 24.121 10.799 24.121 24.121s-10.799 24.121-24.121 24.121c-13.321 0-24.121-10.799-24.121-24.121s10.8-24.121 24.121-24.121z" fill="#685e68"/><path d="m260.473 462.679c-4.542 0-8.218 3.676-8.218 8.218s3.676 8.219 8.218 8.219 8.218-3.677 8.218-8.219-3.676-8.218-8.218-8.218z" fill="#a79ba7"/><path d="m14.204 295.414c0-6.633 5.418-12.06 12.06-12.06h169.318c6.642 0 12.06 5.419 12.06 12.06v175.483h-181.378c-6.642 0-12.06-5.417-12.06-12.06z" fill="#837683"/><path d="m14.204 295.414c0-6.633 5.418-12.06 12.06-12.06h16.162c-6.642 0-12.06 5.428-12.06 12.06v163.423c0 6.642 5.418 12.06 12.06 12.06h-16.162c-6.642 0-12.06-5.417-12.06-12.06z" fill="#685e68"/><path d="m86.973 446.776c13.322 0 24.121 10.799 24.121 24.121s-10.799 24.121-24.121 24.121-24.121-10.799-24.121-24.121 10.799-24.121 24.121-24.121z" fill="#685e68"/><path d="m86.973 462.679c-4.542 0-8.218 3.676-8.218 8.218s3.676 8.219 8.218 8.219 8.218-3.677 8.218-8.219-3.676-8.218-8.218-8.218z" fill="#a79ba7"/></g></g></svg>