<svg id="Layer_1" enable-background="new 0 0 450 450" height="512" viewBox="0 0 450 450" width="512" xmlns="http://www.w3.org/2000/svg"><g><g clip-rule="evenodd" fill-rule="evenodd"><g><path d="m397.8 169c-4.5 7.9-8.3 14.7-10.5 19-.4.8-1.1 1.5-1.9 2-2.2 1.2-4.9.3-6.1-1.9-2.2-4.3-6.1-11.1-10.5-19.1-17-30.3-43.4-77.5-43.4-96.2 0-16 6.5-30.5 17-41s25-17 41-17 30.5 6.5 41 17 17 25 17 41c-.1 18.7-26.6 65.9-43.6 96.2z" fill="#ef5350"/><path d="m383.3 28.7c12.2 0 23.2 4.9 31.1 12.9 8 8 12.9 19 12.9 31.1s-4.9 23.2-12.9 31.1-19 12.9-31.1 12.9-23.2-4.9-31.1-12.9-12.9-19-12.9-31.1 4.9-23.2 12.9-31.1 18.9-12.9 31.1-12.9z" fill="#c24441"/><path d="m407.8 48.2c-6.3-6.3-14.9-10.2-24.5-10.2s-18.3 4-24.5 10.2c-6.3 6.3-10.2 14.9-10.2 24.5s3.9 18.3 10.2 24.5c6.3 6.3 14.9 10.2 24.5 10.2s18.3-3.9 24.5-10.2c6.3-6.2 10.2-14.9 10.2-24.4s-3.9-18.3-10.2-24.6z" fill="#f5f5f5"/></g><g><path d="m199.1 140c-2.6 4.5-4.7 8.4-6 10.9-.2.5-.6.9-1.1 1.1-1.3.7-2.8.2-3.5-1.1-1.3-2.4-3.5-6.3-6-10.9-9.7-17.3-24.8-44.3-24.8-55 0-9.2 3.7-17.4 9.7-23.4s14.3-9.7 23.4-9.7 17.4 3.7 23.4 9.7 9.7 14.3 9.7 23.4c0 10.7-15.1 37.7-24.8 55z" fill="#ef5350"/><path d="m190.8 59.8c6.9 0 13.3 2.8 17.8 7.4s7.4 10.8 7.4 17.8c0 6.9-2.8 13.3-7.4 17.8-4.6 4.6-10.9 7.4-17.8 7.4s-13.3-2.8-17.8-7.4c-4.6-4.6-7.4-10.8-7.4-17.8 0-6.9 2.8-13.3 7.4-17.8s10.8-7.4 17.8-7.4z" fill="#c24441"/><path d="m204.8 71c-3.6-3.6-8.6-5.8-14-5.8-5.5 0-10.4 2.2-14 5.8s-5.8 8.6-5.8 14c0 5.5 2.2 10.4 5.8 14s8.6 5.8 14 5.8c5.5 0 10.4-2.2 14-5.8s5.8-8.6 5.8-14c0-5.5-2.2-10.4-5.8-14z" fill="#f5f5f5"/></g><g><path d="m59.9 131.4c-3.1 5.5-5.8 10.3-7.3 13.3-.3.6-.8 1.1-1.3 1.4-1.6.8-3.4.2-4.3-1.3-1.6-3-4.2-7.7-7.3-13.3-12-21.2-30.4-54.2-30.4-67.3 0-11.2 4.5-21.3 11.9-28.6s17.5-11.9 28.6-11.9 21.3 4.5 28.6 11.9 11.9 17.4 11.9 28.6c-.1 13.1-18.5 46.1-30.4 67.2z" fill="#ef5350"/><path d="m49.8 33.4c8.5 0 16.2 3.4 21.8 9s9 13.3 9 21.8-3.4 16.2-9 21.8-13.3 9-21.8 9-16.2-3.4-21.8-9-9-13.3-9-21.8 3.4-16.2 9-21.8 13.3-9 21.8-9z" fill="#c24441"/><path d="m66.9 47.1c-4.4-4.4-10.5-7.1-17.1-7.1-6.7 0-12.7 2.7-17.1 7.1s-7.1 10.4-7.1 17.1 2.7 12.7 7.1 17.1 10.4 7.1 17.1 7.1 12.7-2.7 17.1-7.1c4.4-4.3 7.1-10.4 7.1-17.1s-2.7-12.8-7.1-17.1z" fill="#f5f5f5"/></g></g><g><path d="m293 405.1c-2.6 0-4.7-2.1-4.7-4.7v-174.1c0-2.6 2.1-4.7 4.7-4.7h105.9c2 0 3.8 1.3 4.4 3.1l35 86.4c.2.6.3 1.2.3 1.8v18.4h-11.2c-5.4 0-9.9 4.4-9.9 9.9 0 5.4 4.4 9.9 9.9 9.9h11.2v49.4c0 2.6-2.1 4.7-4.7 4.7-47-.1-93.9-.1-140.9-.1z" fill="#ef5350"/><path d="m408.8 405.1h-90.8c-.2-1.5-.2-3.1-.2-4.7 0-12.1 4.8-23.7 13.4-32.3s20.1-13.4 32.3-13.4 23.7 4.8 32.3 13.4 13.4 20.1 13.4 32.3c-.2 1.6-.2 3.2-.4 4.7z" fill="#9e3735"/><path d="m399.4 405.1h-71.9c-.2-1.5-.3-3.1-.3-4.7 0-10 4.1-19.1 10.6-25.6 6.6-6.6 15.6-10.6 25.6-10.6s19.1 4.1 25.6 10.6c6.6 6.6 10.6 15.6 10.6 25.6.1 1.6 0 3.2-.2 4.7z" fill="#ef5350"/><path d="m320.8 249.5h59.3c2 0 3.8 1.3 4.4 3.1l25.9 64c1 2.4-.2 5.1-2.6 6.1-.6.2-1.2.3-1.8.3h-85.3c-2.6 0-4.7-2.1-4.7-4.7v-64.2c.1-2.6 2.2-4.6 4.8-4.6z" fill="#9e3735"/><path d="m337.6 332.5c2.6 0 4.7 2.1 4.7 4.7s-2.1 4.7-4.7 4.7h-16.8c-2.6 0-4.7-2.1-4.7-4.7s2.1-4.7 4.7-4.7z" fill="#9e3735"/><path d="m13.7 176.3c0-2.6 2.1-4.7 4.7-4.7h274.6c2.6 0 4.7 2.1 4.7 4.7v27.3 22.6 174.1c0 2.6-2.1 4.7-4.7 4.7h-274.6c-2.6 0-4.7-2.1-4.7-4.7 0-74.5 0-149.3 0-224z" fill="#729bc6"/><path d="m232.3 405.1h-90.8c-.2-1.5-.2-3.1-.2-4.7 0-12.1 4.8-23.7 13.4-32.3s20.1-13.4 32.3-13.4c12.1 0 23.7 4.8 32.3 13.4s13.4 20.1 13.4 32.3c-.2 1.6-.3 3.2-.4 4.7zm-94.5 0h-90.8c-.2-1.5-.2-3.1-.2-4.7 0-12.1 4.8-23.7 13.4-32.3s20.1-13.4 32.3-13.4 23.7 4.8 32.3 13.4 13.4 20.1 13.4 32.3c-.2 1.6-.3 3.2-.4 4.7z" fill="#4c6682"/><path d="m13.7 327.1h283.9v23.2h-283.9z" fill="#4c6682"/><g fill="#2e343a"><path d="m337.8 374.8c6.6-6.6 15.6-10.6 25.6-10.6s19.1 4.1 25.6 10.6c6.6 6.6 10.6 15.6 10.6 25.6s-4.1 19.1-10.6 25.6c-6.6 6.6-15.6 10.6-25.6 10.6s-19.1-4.1-25.6-10.6c-6.6-6.6-10.6-15.6-10.6-25.6 0-9.9 4-19 10.6-25.6z"/><path d="m161.2 374.8c6.6-6.6 15.6-10.6 25.6-10.6s19.1 4.1 25.6 10.6 10.6 15.6 10.6 25.6-4.1 19.1-10.6 25.6c-6.6 6.6-15.6 10.6-25.6 10.6s-19.1-4.1-25.6-10.6-10.6-15.6-10.6-25.6c0-9.9 4.1-19 10.6-25.6z"/><path d="m66.7 374.8c6.6-6.6 15.6-10.6 25.6-10.6s19.1 4.1 25.6 10.6 10.6 15.6 10.6 25.6-4.1 19.1-10.6 25.6c-6.6 6.6-15.6 10.6-25.6 10.6s-19.1-4.1-25.6-10.6-10.6-15.6-10.6-25.6c0-9.9 4.1-19 10.6-25.6z"/></g><path d="m92.4 377.3c-6.4 0-12.2 2.6-16.3 6.8s-6.8 10-6.8 16.4 2.6 12.2 6.8 16.4 10 6.8 16.3 6.8c6.4 0 12.2-2.6 16.4-6.8s6.8-10 6.8-16.4-2.6-12.2-6.8-16.4-10-6.8-16.4-6.8z" fill="#a2abb8"/><path d="m84.3 392.4c2.1-2.1 4.9-3.4 8.1-3.4s6 1.3 8.1 3.4 3.3 4.9 3.3 8.1-1.3 6-3.3 8.1-4.9 3.4-8.1 3.4-6-1.3-8.1-3.4-3.3-4.9-3.3-8.1 1.2-6 3.3-8.1z" fill="#e6e6e6"/><path d="m377 258.8h-51.5v54.9h73.6z" fill="#bfddff"/><path d="m371.2 258.8h-6.8l-31.6 54.9h6.7z" fill="#fff"/><path d="m353.4 313.7h6.8l22.9-39.7-2.8-6.9z" fill="#fff"/><path d="m438.6 322v9.4h-11.2c-5.4 0-9.9 4.4-9.9 9.9 0 5.4 4.4 9.9 9.9 9.9h11.2v9.4h-11.2c-10.6 0-19.2-8.6-19.2-19.2s8.6-19.2 19.2-19.2z" fill="#9e3735"/><path d="m438.6 331.3v19.7h-11.2c-5.4 0-9.9-4.4-9.9-9.9 0-5.4 4.4-9.9 9.9-9.9z" fill="#ffe26f"/><path d="m186.9 377.3c-6.4 0-12.2 2.6-16.4 6.8s-6.8 10-6.8 16.4 2.6 12.2 6.8 16.4 10 6.8 16.4 6.8 12.2-2.6 16.4-6.8 6.8-10 6.8-16.4-2.6-12.2-6.8-16.4-10-6.8-16.4-6.8z" fill="#a2abb8"/><path d="m178.8 392.4c2.1-2.1 4.9-3.4 8.1-3.4s6 1.3 8.1 3.4 3.4 4.9 3.4 8.1-1.3 6-3.4 8.1-4.9 3.4-8.1 3.4-6-1.3-8.1-3.4-3.4-4.9-3.4-8.1 1.3-6 3.4-8.1z" fill="#e6e6e6"/><path d="m363.4 377.3c-6.4 0-12.2 2.6-16.4 6.8s-6.8 10-6.8 16.4 2.6 12.2 6.8 16.4 10 6.8 16.4 6.8 12.2-2.6 16.4-6.8 6.8-10 6.8-16.4-2.6-12.2-6.8-16.4-10-6.8-16.4-6.8z" fill="#a2abb8"/><path d="m355.4 392.4c2.1-2.1 4.9-3.4 8.1-3.4s6 1.3 8.1 3.4 3.4 4.9 3.4 8.1-1.3 6-3.4 8.1-4.9 3.4-8.1 3.4-6-1.3-8.1-3.4-3.4-4.9-3.4-8.1 1.3-6 3.4-8.1z" fill="#e6e6e6"/><path d="m82.2 186.4h146.9c3.9 0 7.5 1.6 10.1 4.2s4.2 6.2 4.2 10.1v97.4c0 3.9-1.6 7.5-4.2 10.1s-6.2 4.2-10.1 4.2h-146.9c-3.9 0-7.5-1.6-10.1-4.2s-4.2-6.2-4.2-10.1v-97.4c0-3.9 1.6-7.5 4.2-10.1s6.2-4.2 10.1-4.2z" fill="#ffd47d"/><path d="m102.2 186.4h32.9v65.4c0 1.6-1.3 3-3 3-1.1 0-2-.5-2.5-1.4l-11-14.1-11.1 14.3c-1 1.3-2.9 1.5-4.2.5-.8-.6-1.1-1.5-1.1-2.3z" fill="#edaf54"/><path d="m176.3 186.4h32.9v65.4c0 1.6-1.3 3-3 3-1.1 0-2-.5-2.5-1.4l-11-14.1-11.1 14.3c-1 1.3-2.9 1.5-4.2.5-.8-.6-1.1-1.5-1.1-2.3z" fill="#edaf54"/><path d="m90.6 263.5h22c1.6 0 3 1.3 3 3v28.2c0 1.6-1.3 3-3 3h-22c-1.6 0-3-1.3-3-3v-28.2c.1-1.6 1.4-3 3-3z" fill="#d78e44"/><path d="m131.2 263.5h22c1.6 0 3 1.3 3 3v28.2c0 1.6-1.3 3-3 3h-22c-1.6 0-3-1.3-3-3v-28.2c.1-1.6 1.4-3 3-3z" fill="#d78e44"/><path d="m171.8 269.5c-1.6 0-3-1.3-3-3s1.3-3 3-3h48.9c1.6 0 3 1.3 3 3s-1.3 3-3 3z" fill="#edaf54"/><path d="m171.8 283.6c-1.6 0-3-1.3-3-3 0-1.6 1.3-3 3-3h48.9c1.6 0 3 1.3 3 3 0 1.6-1.3 3-3 3z" fill="#edaf54"/><path d="m171.8 297.7c-1.6 0-3-1.3-3-3 0-1.6 1.3-3 3-3h48.9c1.6 0 3 1.3 3 3 0 1.6-1.3 3-3 3z" fill="#edaf54"/></g><path clip-rule="evenodd" d="m173.8 34.6c1.6 2.1 1.1 5.1-1 6.7s-5.1 1.1-6.7-1c-2.6-3.6-5.6-6.5-8.8-8.9-6.3-4.7-13.6-7-20.8-7s-14.4 2.3-20.8 7c-3.2 2.4-6.2 5.3-8.8 8.9-1.6 2.1-4.6 2.6-6.7 1s-2.6-4.6-1-6.7c3.2-4.3 6.9-8 10.8-10.9 8-6 17.2-8.9 26.4-8.9s18.4 3 26.4 8.9c4.1 2.9 7.8 6.5 11 10.9z" fill="#ef5350" fill-rule="evenodd"/><path clip-rule="evenodd" d="m243.9 42.1c-2.6-.5-4.2-3.1-3.7-5.7s3.1-4.2 5.7-3.7c.2 0 56.1 11.4 64.2 81.2.3 2.6-1.6 5-4.2 5.3s-5-1.6-5.3-4.2c-7.3-62.9-56.5-72.9-56.7-72.9z" fill="#ef5350" fill-rule="evenodd"/></g></svg>