<svg id="Capa_1" enable-background="new 0 0 512 512" height="512" viewBox="0 0 512 512" width="512" xmlns="http://www.w3.org/2000/svg"><g><path d="m337.24 285.51h93.008c7.106 0 13.532 4.222 16.354 10.743l28.18 65.133 27.048 22.887c6.45 5.458 10.17 13.479 10.17 21.928v44.44c0 2.854-2.313 5.167-5.167 5.167h-148.99z" fill="#62dbfb"/><path d="m501.83 384.273-27.048-22.887-28.18-65.133c-2.822-6.521-9.248-10.743-16.354-10.743h-25.755c7.106 0 13.532 4.222 16.354 10.743l28.18 65.133 27.048 22.887c6.45 5.458 10.17 13.479 10.17 21.928v44.44c0 2.853-2.313 5.167-5.167 5.167h25.755c2.854 0 5.167-2.313 5.167-5.167v-44.44c0-8.449-3.72-16.47-10.17-21.928z" fill="#01d0fb"/><path d="m419.117 361.386h55.665l-19.008-43.933h-36.657c-2.854 0-5.167 2.313-5.167 5.167v33.599c0 2.854 2.313 5.167 5.167 5.167z" fill="#3692bc"/><path d="m458.94 324.771-3.166-7.317h-25.755l19.008 43.932h25.755z" fill="#0681af"/><path d="m430.497 492.101c-24.142 0-43.783-19.641-43.783-43.783 0-24.141 19.641-43.782 43.783-43.782s43.782 19.641 43.782 43.782c0 24.143-19.64 43.783-43.782 43.783z" fill="#3692bc"/><path d="m430.496 432.866c-8.534 0-15.453 6.918-15.453 15.453 0 8.534 6.918 15.453 15.453 15.453 8.534 0 15.453-6.918 15.453-15.453 0-8.534-6.918-15.453-15.453-15.453z" fill="#fff9df"/><path d="m267.577 22.793h-265.366c-1.377 1.528-2.211 3.556-2.211 5.777v333.301c0 4.791 3.891 8.672 8.672 8.672h252.444c4.791 0 8.672-3.881 8.672-8.672v-333.301c0-2.221-.834-4.249-2.211-5.777z" fill="#fead8a"/><path d="m267.577 22.793h-28.845c1.377 1.528 2.212 3.555 2.212 5.777v333.301c0 4.791-3.881 8.672-8.672 8.672h28.845c4.791 0 8.672-3.881 8.672-8.672v-333.301c-.001-2.221-.835-4.249-2.212-5.777z" fill="#fd9468"/><path d="m267.577 22.793-81.256 106.583c-2.05 2.69-5.239 4.268-8.621 4.268h-85.612c-3.382 0-6.57-1.578-8.621-4.268l-81.256-106.583c1.583-1.778 3.892-2.895 6.461-2.895h252.444c2.57.001 4.878 1.117 6.461 2.895z" fill="#ffcebf"/><path d="m238.732 22.793c1.377 1.528 2.212 3.555 2.212 5.777v29.158l26.634-34.935c-1.582-1.778-3.891-2.895-6.461-2.895h-28.845c2.569.001 4.877 1.117 6.46 2.895z" fill="#ffb09e"/><path d="m357.844 260.656v147.884l-90.267 30.905-149.487-30.905v-147.884c0-2.854 2.317-5.161 5.171-5.161h229.411c2.854 0 5.172 2.308 5.172 5.161z" fill="#ffe177"/><path d="m357.844 260.656v147.884l-25.755 10.301v-158.185c0-2.854-2.318-5.161-5.171-5.161h25.755c2.853 0 5.171 2.308 5.171 5.161z" fill="#fec165"/><path d="m118.09 408.54v36.934c0 5.707 4.629 10.333 10.336 10.333h229.417v-47.267z" fill="#fead8a"/><path d="m332.089 408.54h25.755v47.268h-25.755z" fill="#fd9468"/><path d="m194.617 492.101c-24.142 0-43.783-19.641-43.783-43.783 0-24.141 19.641-43.782 43.783-43.782s43.782 19.641 43.782 43.782c.001 24.143-19.64 43.783-43.782 43.783z" fill="#3692bc"/><path d="m194.617 432.866c-8.534 0-15.453 6.918-15.453 15.453 0 8.534 6.918 15.453 15.453 15.453 8.534 0 15.453-6.918 15.453-15.453 0-8.534-6.919-15.453-15.453-15.453z" fill="#fff9df"/><path d="m134.894 185.825c-3.983 0-7.211-3.228-7.211-7.211v-91.235c0-3.983 3.228-7.211 7.211-7.211s7.211 3.228 7.211 7.211v91.234c.001 3.984-3.228 7.212-7.211 7.212z" fill="#3692bc"/><g fill="#fff9df"><path d="m134.895 72.543c-9.878 0-17.886 8.008-17.886 17.886s8.008 17.886 17.886 17.886 17.886-8.008 17.886-17.886-8.008-17.886-17.886-17.886z"/><path d="m134.895 158.984c-9.878 0-17.886 8.008-17.886 17.886s8.008 17.886 17.886 17.886 17.886-8.008 17.886-17.886-8.008-17.886-17.886-17.886z"/></g></g></svg>