<svg id="Layer_1" enable-background="new 0 0 512 512" height="512" viewBox="0 0 512 512" width="512" xmlns="http://www.w3.org/2000/svg"><g><path clip-rule="evenodd" d="m120.056 136.676h254.42l-28.266 196.718h-254.449z" fill="#cd353e" fill-rule="evenodd"/><path clip-rule="evenodd" d="m120.056 136.676h254.42l-28.266 196.718h-13.284l1.872-13.138 24.521-170.442h-241.136z" fill="#b41c25" fill-rule="evenodd"/><path clip-rule="evenodd" d="m99.252 281.398h254.42l-7.462 51.996h-254.449z" fill="#ffc06c" fill-rule="evenodd"/><path clip-rule="evenodd" d="m346.21 333.394h-13.284l1.872-13.138 5.589-38.858h13.285z" fill="#eda558" fill-rule="evenodd"/><path clip-rule="evenodd" d="m126.083 315.838h357.212c4.331 0 7.344 3.54 6.73 7.871l-2.78 19.37c-.614 4.331-4.652 7.871-8.983 7.871h-357.241c-4.301 0-7.344-3.54-6.701-7.871l2.78-19.37c.615-4.331 4.653-7.871 8.983-7.871z" fill="#cd353e" fill-rule="evenodd"/><path clip-rule="evenodd" d="m362.42 350.95h132.257l17.323-120.524-35.347-58.814c-3.306-5.472-8.749-8.427-15.596-8.427h-56.853c-8.134 0-15.742 6.642-16.913 14.777z" fill="#ff4c4c" fill-rule="evenodd"/><path clip-rule="evenodd" d="m409.032 184.165c-2.224 15.42-4.418 30.841-6.642 46.261h83.363l-27.446-45.676c-.322-.497-.439-.585-1.053-.585z" fill="#e1efff" fill-rule="evenodd"/><path d="m91.907 215.416c0 3.991-3.236 7.227-7.227 7.227h-77.453c-3.991 0-7.227-3.236-7.227-7.227s3.236-7.227 7.227-7.227h77.453c3.991 0 7.227 3.235 7.227 7.227zm-13.459 21.887h-48.602c-3.991 0-7.227 3.236-7.227 7.227s3.236 7.227 7.227 7.227h48.602c3.991 0 7.227-3.236 7.227-7.227 0-3.992-3.236-7.227-7.227-7.227zm-6.233 29.114h-24.315c-3.991 0-7.227 3.236-7.227 7.227s3.236 7.227 7.227 7.227h24.315c3.991 0 7.227-3.236 7.227-7.227s-3.236-7.227-7.227-7.227z" fill="#363d52"/><path d="m159.001 192.066-1.053 7.081h11.12c3.991 0 7.227 3.236 7.227 7.227s-3.236 7.227-7.227 7.227h-13.27l-3.078 20.697c-.533 3.588-3.618 6.165-7.14 6.165-.354 0-.712-.026-1.072-.08-3.949-.587-6.673-4.264-6.086-8.212l7.198-48.397c.527-3.542 3.568-6.164 7.149-6.164h29.085c3.991 0 7.227 3.236 7.227 7.227s-3.236 7.227-7.227 7.227h-22.853zm67.945 40.534c.351 3.976-2.588 7.484-6.564 7.835-3.976.359-7.483-2.588-7.835-6.564l-.433-4.908h-12.054l-2.657 6.877c-1.108 2.867-3.844 4.624-6.743 4.624-.866 0-1.747-.157-2.603-.487-3.723-1.438-5.576-5.623-4.137-9.347l18.697-48.397c1.077-2.786 3.755-4.622 6.742-4.622h6.115c3.745 0 6.87 2.861 7.2 6.592zm-16.108-18.091-.966-10.943-4.228 10.943zm59.675-36.898h-7.198c-10.27 0-19.514 8.012-21.049 18.253-.847 5.725.3 10.456 3.411 14.061 4.847 5.618 12.66 6.338 18.925 6.338 1.079 0 1.946.344 2.507.995.586.68.815 1.683.641 2.851-.449 3.086-3.664 5.897-6.746 5.897h-7.198c-.32 0-.749-.057-.984-.328-.207-.24-.28-.655-.205-1.169.58-3.949-2.152-7.62-6.102-8.199-3.952-.583-7.621 2.152-8.199 6.102-.684 4.665.616 9.3 3.568 12.717 2.928 3.389 7.274 5.333 11.922 5.333h7.198c10.314 0 19.561-8.026 21.047-18.246.789-5.289-.666-10.535-3.992-14.394-3.294-3.821-8.198-6.013-13.455-6.013-6.759 0-7.934-1.272-7.981-1.327-.06-.069-.31-.783-.058-2.489.465-3.102 3.683-5.928 6.751-5.928h7.198c.32 0 .75.057.984.328.207.24.279.655.204 1.168-.58 3.95 2.152 7.621 6.101 8.201 3.952.582 7.621-2.152 8.201-6.101.685-4.665-.615-9.3-3.568-12.717-2.928-3.389-7.274-5.333-11.923-5.333zm58.784 0h-29.085c-3.991 0-7.227 3.236-7.227 7.227s3.236 7.227 7.227 7.227h6.161l-5.965 40.106c-.587 3.948 2.137 7.624 6.086 8.212.36.054.718.08 1.072.08 3.521 0 6.606-2.578 7.14-6.165l6.281-42.232h8.31c3.991 0 7.227-3.236 7.227-7.227 0-3.992-3.235-7.228-7.227-7.228z" fill="#fff"/><g clip-rule="evenodd" fill-rule="evenodd"><path d="m447.949 184.165 27.797 46.261h10.007l-27.446-45.676c-.322-.497-.439-.585-1.053-.585z" fill="#d7d7e3"/><path d="m362.42 350.95 5.062-35.112h-9.1l-5.091 35.112z" fill="#b41c25"/><path d="m469.192 176.119 33.737 56.122-12.904 89.215-3.453 23.935-.819 5.559h8.924l17.323-120.524-35.347-58.814c-3.306-5.472-8.749-8.427-15.596-8.427h-56.853c-5.969 0-11.675 3.599-14.718 8.72h71.571c3.512 0 6.292 1.171 8.135 4.214z" fill="#d11e1e"/><path d="m217.347 291.376c23.145 0 39.209 18.756 35.873 41.93-3.306 23.145-24.784 41.901-47.929 41.901-23.174 0-39.238-18.756-35.903-41.901 3.307-23.174 24.785-41.93 47.959-41.93z" fill="#363d52"/><path d="m217.347 291.376c23.145 0 39.209 18.756 35.873 41.93-3.219 22.531-23.642 40.906-46.085 41.872 18.639-4.769 34.206-21.097 37.015-40.526 3.306-23.174-12.758-41.93-35.903-41.93-.644 0-1.258.029-1.873.029 3.57-.907 7.228-1.375 10.973-1.375z" fill="#2a3146"/><path d="m214.011 314.462c10.387 0 17.615 8.427 16.123 18.844-1.492 10.387-11.148 18.815-21.536 18.815-10.387 0-17.615-8.427-16.123-18.815 1.493-10.417 11.149-18.844 21.536-18.844z" fill="#e1efff"/><path d="m214.011 314.462c10.387 0 17.615 8.427 16.123 18.844-1.405 9.802-10.066 17.849-19.78 18.727 7.344-2.78 13.226-9.568 14.367-17.469 1.492-10.417-5.735-18.844-16.123-18.844-.585 0-1.17.029-1.756.088 2.283-.848 4.711-1.346 7.169-1.346z" fill="#d7d7e3"/><path d="m437.093 291.464c23.145 0 39.238 18.785 35.903 41.93-3.336 23.145-24.813 41.93-47.958 41.93s-39.238-18.785-35.903-41.93c3.336-23.145 24.813-41.93 47.958-41.93z" fill="#363d52"/><path d="m437.093 291.464c23.145 0 39.238 18.785 35.903 41.93-3.248 22.531-23.642 40.906-46.085 41.872 18.61-4.74 34.206-21.097 36.985-40.526 3.336-23.145-12.728-41.93-35.903-41.93-.614 0-1.229.029-1.873.059 3.57-.908 7.257-1.405 10.973-1.405z" fill="#2a3146"/><path d="m433.787 314.579c10.387 0 17.586 8.427 16.093 18.814-1.492 10.387-11.119 18.815-21.506 18.815-10.417 0-17.615-8.427-16.123-18.815 1.492-10.386 11.119-18.814 21.536-18.814z" fill="#e1efff"/><path d="m433.787 314.579c10.387 0 17.586 8.427 16.093 18.814-1.405 9.802-10.066 17.849-19.751 18.727 7.315-2.75 13.196-9.539 14.338-17.469 1.492-10.387-5.706-18.814-16.123-18.814-.585 0-1.17.029-1.756.059 2.283-.848 4.712-1.317 7.199-1.317z" fill="#d7d7e3"/></g></g></svg>