<svg height="512pt" viewBox="0 0 512.001 512" width="512pt" xmlns="http://www.w3.org/2000/svg"><path d="m361 376h-346c-8.285156 0-15-6.714844-15-15v-346c0-8.285156 6.714844-15 15-15h346c8.285156 0 15 6.714844 15 15v346c0 8.285156-6.714844 15-15 15zm0 0" fill="#ffe046"/><path d="m361 0h-173v376h173c8.285156 0 15-6.714844 15-15v-346c0-8.285156-6.714844-15-15-15zm0 0" fill="#fdbf00"/><path d="m237.933594 127.445312-49.933594-25.28125-49.933594 25.28125c-4.648437 2.351563-10.1875 2.128907-14.628906-.605468-4.441406-2.726563-7.148438-7.566406-7.148438-12.777344v-99.0625c0-8.285156 6.71875-15 15-15h113.421876c8.28125 0 15 6.714844 15 15v99.0625c0 5.214844-2.707032 10.050781-7.148438 12.78125-2.402344 1.476562-7.480469 3.574219-14.628906.601562zm0 0" fill="#e69f34"/><path d="m497.832031 512h-243.664062c-7.824219 0-14.167969-6.714844-14.167969-15v-319c0-8.285156 6.34375-15 14.167969-15h243.667969c7.820312 0 14.164062 6.714844 14.164062 15v319c0 8.285156-6.34375 15-14.167969 15zm0 0" fill="#e1f6fd"/><path d="m497.832031 163h-121.832031v349h121.832031c7.824219 0 14.167969-6.714844 14.167969-15v-319c0-8.285156-6.34375-15-14.167969-15zm0 0" fill="#beebfa"/><path d="m310 331.5h-3c-8.285156 0-15-6.714844-15-15s6.714844-15 15-15h3c8.285156 0 15 6.714844 15 15s-6.714844 15-15 15zm0 0" fill="#ff5b5b"/><path d="m445 331.5h-75c-8.285156 0-15-6.714844-15-15s6.714844-15 15-15h75c8.285156 0 15 6.714844 15 15s-6.714844 15-15 15zm0 0" fill="#62e3f8"/><path d="m382 253h-75c-8.285156 0-15-6.714844-15-15 0-8.28125 6.714844-15 15-15h75c8.285156 0 15 6.71875 15 15 0 8.285156-6.714844 15-15 15zm0 0" fill="#62e3f8"/><path d="m310.667969 391h-3c-8.285157 0-15-6.714844-15-15 0-8.28125 6.714843-15 15-15h3c8.285156 0 15 6.71875 15 15 0 8.285156-6.714844 15-15 15zm0 0" fill="#ff5b5b"/><path d="m445 391.5h-75c-8.285156 0-15-6.714844-15-15 0-8.28125 6.714844-15 15-15h75c8.285156 0 15 6.71875 15 15 0 8.285156-6.714844 15-15 15zm0 0" fill="#62e3f8"/><path d="m310.667969 451.5h-3c-8.285157 0-15-6.714844-15-15s6.714843-15 15-15h3c8.285156 0 15 6.714844 15 15s-6.714844 15-15 15zm0 0" fill="#ff5b5b"/><path d="m445 452h-75c-8.285156 0-15-6.714844-15-15s6.714844-15 15-15h75c8.285156 0 15 6.714844 15 15s-6.714844 15-15 15zm0 0" fill="#62e3f8"/><path d="m244.710938 0h-56.710938v102.164062l49.933594 25.28125c7.148437 2.972657 12.226562.875 14.628906-.605468 4.441406-2.726563 7.148438-7.566406 7.148438-12.777344v-99.0625c0-8.285156-6.71875-15-15-15zm0 0" fill="#bb7c14"/><g fill="#00c0f1"><path d="m382 223h-6v30h6c8.285156 0 15-6.714844 15-15 0-8.28125-6.714844-15-15-15zm0 0"/><path d="m445 301.5h-69v30h69c8.285156 0 15-6.714844 15-15s-6.714844-15-15-15zm0 0"/><path d="m445 361.5h-69v30h69c8.285156 0 15-6.714844 15-15 0-8.28125-6.714844-15-15-15zm0 0"/><path d="m445 422h-69v30h69c8.285156 0 15-6.714844 15-15s-6.714844-15-15-15zm0 0"/></g></svg>