<svg id="Capa_1" enable-background="new 0 0 512 512" viewBox="0 0 512 512" xmlns="http://www.w3.org/2000/svg"><g><path d="m212.029 322.477h262.675c17.638 0 31.936-14.298 31.936-31.936v-258.605c0-17.638-14.298-31.936-31.936-31.936h-87.686l-56.528 39.395-56.528-39.395h-1.991l-50.474 8.661-27.693 219.681z" fill="#fbf198"/><path d="m247.96 277.305v-232.134c0-18.802 9.524-35.379 24.011-45.171h-85.726c-17.62 0-31.905 14.284-31.905 31.905v258.427c0 17.753 14.392 32.145 32.145 32.145h85.486c-14.487-9.792-24.011-26.37-24.011-45.172z" fill="#fad989"/><path d="m360.722 109.039-19.417-15.598c-6.317-5.075-15.313-5.075-21.63 0l-19.417 15.598c-10.582 8.5-26.295.967-26.295-12.606v-96.433h113.055v96.434c0 13.573-15.714 21.106-26.296 12.605z" fill="#df8a57"/><path d="m122.991 512h202.733c17.638 0 31.936-14.298 31.936-31.936v-258.605c0-17.638-14.298-31.936-31.936-31.936h-87.686l-58.765 29.334-54.291-29.334h-1.991l-55.405 11.308-43.296 140.24 50.168 163.562z" fill="#fad989"/><path d="m98.98 466.829v-232.134c0-18.802 9.524-35.379 24.011-45.171h-85.726c-17.62 0-31.905 14.284-31.905 31.905v258.427c0 17.752 14.392 32.144 32.145 32.144h85.486c-14.487-9.792-24.011-26.369-24.011-45.171z" fill="#f6ca56"/><path d="m211.742 298.563-19.417-15.598c-6.317-5.075-15.313-5.075-21.63 0l-19.417 15.598c-10.582 8.5-26.295.967-26.295-12.606v-96.434h113.055v96.434c0 13.573-15.714 21.106-26.296 12.606z" fill="#c76d33"/><g fill="#4a66a0"><path d="m145.485 341.396h-79.48c-2.233 0-4.043 1.81-4.043 4.042v36.07c0 21.215 15.818 38.724 36.301 41.407-.006.123-.019.245-.019.369v32.093h-12.016c-4.142 0-7.5 3.357-7.5 7.5s3.358 7.5 7.5 7.5h39.035c4.142 0 7.5-3.357 7.5-7.5s-3.358-7.5-7.5-7.5h-12.018v-32.093c0-.125-.013-.246-.019-.369 20.483-2.683 36.301-20.192 36.301-41.407v-36.07c.001-2.232-1.809-4.042-4.042-4.042z"/><path d="m256.803 341.396c-25.47 0-46.382 19.515-48.599 44.408-.21 2.358 1.667 4.385 4.034 4.385h37.062v.005 36.3c0 14.491-11.785 26.28-26.27 26.28h-2.01c-4.142 0-7.5 3.357-7.5 7.5s3.358 7.5 7.5 7.5h2.01c22.756 0 41.27-18.519 41.27-41.28v-36.3c0-.002 0-.003 0-.005h37.069c2.367 0 4.245-2.027 4.034-4.385-2.218-24.893-23.13-44.408-48.6-44.408z"/></g></g><g/><g/><g/><g/><g/><g/><g/><g/><g/><g/><g/><g/><g/><g/><g/></svg>