<svg id="Layer_1" enable-background="new 0 0 53 53" height="512" viewBox="0 0 53 53" width="512" xmlns="http://www.w3.org/2000/svg"><g><path d="m46.6040611 21.4842339v22.8032799c0 .745163-.3052635 1.4274178-.7990227 1.9122467-.4847755.4847755-1.1581001.7810516-1.8942757.7810516h-37.7061752c-.7451611 0-1.4094992-.2962761-1.8942733-.7810516-.4937601-.4848289-.7990248-1.1670837-.7990248-1.9122467v-22.8032799c0-.2423592.0358911-.4847736.0987411-.7092152.1257005-.4578686.3681149-.8708611.7002838-1.2030315.4847741-.4757862 1.1491122-.7810516 1.8942733-.7810516h37.7061768c.7361755 0 1.4095001.3052654 1.8942757.7810516.3321686.3321705.5745811.745163.7002831 1.2030315.0628493.2244415.0987379.466856.0987379.7092152z" fill="#ffc536"/><path d="m45.8050385 46.1997604c-.4847755.4847755-1.1581001.7810516-1.8942757.7810516h-37.7061753c-.7451611 0-1.4094992-.2962761-1.8942733-.7810516l13.6549873-13.3138847 7.0923748-6.9128113 7.0923748 6.9128113z" fill="#f2a916"/><path d="m46.5053215 20.7750187-13.3947105 13.0534992-5.2339363 5.0993042c-.7541485.745163-1.7596416 1.1491661-2.8189983 1.1491661-1.0593586 0-2.0648518-.4040031-2.8189983-1.1491661l-5.2339935-5.0993042-13.3946542-13.0534992c.1257005-.4578686.3681149-.8708611.7002838-1.2030315.4847741-.4757862 1.1491122-.7810516 1.8942733-.7810516h37.7061768c.7361755 0 1.4095001.3052654 1.8942757.7810516.332167.3321704.5745796.7451629.7002815 1.2030315z" opacity=".1"/><path d="m45.8050385 19.5719872-13.6549874 13.3138885-5.2124977 5.0805244c-1.0459347 1.019455-2.7138214 1.019455-3.7597561 0l-5.2124958-5.0805244-13.6549873-13.3138885c.4847741-.4757862 1.1491122-.7810516 1.8942733-.7810516h37.7061768c.736174-.0000001 1.4094986.3052653 1.8942742.7810516z" fill="#ffc536"/><ellipse cx="41.151" cy="14.357" fill="#17be66" rx="8.338" ry="8.338" transform="matrix(.924 -.383 .383 .924 -2.362 16.841)"/><path d="m45.6056709 9.902194-5.3132744 5.313345-5.1701355-1.8086033z" fill="#ededed"/><path d="m45.6056709 9.902194-5.3132744 5.313345 1.8085976 5.1701822z" fill="#dbdbdb"/></g></svg>