<svg id="Capa_1" enable-background="new 0 0 512 512" height="512" viewBox="0 0 512 512" width="512" xmlns="http://www.w3.org/2000/svg"><g><g><g><g><path d="m487.161 255.578v246.12c0 5.687-4.615 10.302-10.302 10.302h-220.582c-5.687 0-10.302-4.615-10.302-10.302v-246.12c0-5.687 4.615-10.302 10.302-10.302h76.409v74.039c0 2.833 2.308 5.151 5.151 5.151h42.011c2.843 0 5.151-2.318 5.151-5.151v-74.039h91.861c5.686 0 10.301 4.615 10.301 10.302z" fill="#fb9927"/><path d="m390.149 245.276v95.673c0 5.687-4.615 10.302-10.302 10.302h-42.011c-5.687 0-10.302-4.615-10.302-10.302v-95.673h5.151v74.039c0 2.833 2.308 5.151 5.151 5.151h42.011c2.843 0 5.151-2.318 5.151-5.151v-74.039z" fill="#f98824"/><path d="m452.065 255.578c0-5.687-4.615-10.302-10.302-10.302h35.098c5.686 0 10.302 4.615 10.302 10.302v246.12c0 5.687-4.615 10.302-10.302 10.302h-35.098c5.687 0 10.302-4.615 10.302-10.302" fill="#f98824"/><g><path d="m455.72 399.856h-56.924c-4.267 0-7.726-3.459-7.726-7.726s3.459-7.726 7.726-7.726h56.924c4.267 0 7.726 3.459 7.726 7.726.001 4.266-3.458 7.726-7.726 7.726z" fill="#e8741c"/></g><g><path d="m455.72 376.625h-11.464c-4.267 0-7.726-3.459-7.726-7.726s3.459-7.726 7.726-7.726h11.464c4.267 0 7.726 3.459 7.726 7.726s-3.458 7.726-7.726 7.726z" fill="#e8741c"/></g><g><path d="m445.419 479.583h-68.55c-5.69 0-10.302-4.612-10.302-10.302v-38.64c0-5.69 4.612-10.302 10.302-10.302h68.55c5.69 0 10.302 4.612 10.302 10.302v38.64c0 5.689-4.612 10.302-10.302 10.302z" fill="#68dbf9"/><path d="m455.72 430.636v38.642c0 5.697-4.615 10.302-10.302 10.302h-27.248c5.687 0 10.302-4.605 10.302-10.302v-38.642c0-5.687-4.615-10.302-10.302-10.302h27.248c5.687.001 10.302 4.616 10.302 10.302z" fill="#24d1f8"/></g><g><path d="m390.149 319.312v-74.034h-62.614v74.034c0 5.69 4.612 10.302 10.302 10.302h42.01c5.689-.001 10.302-4.613 10.302-10.302z" fill="#fee7c9"/></g></g><g><g><g><g><path d="m327.535 32.265v447.469c0 17.822-14.443 32.265-32.265 32.265h-238.168c-17.822 0-32.265-14.443-32.265-32.265v-447.469c0-17.822 14.443-32.265 32.265-32.265h238.168c17.822 0 32.265 14.443 32.265 32.265z" fill="#685e67"/><path d="m327.535 368.898v110.837c0 17.822-14.443 32.265-32.265 32.265h-121.84c-5.687 0-10.302-4.615-10.302-10.302v-122.499c0-5.687 4.615-10.302 10.302-10.302h154.105z" fill="#554e55"/><path d="m327.533 32.265v447.469c0 17.822-14.443 32.265-32.265 32.265h-33.759c17.822 0 32.276-14.443 32.276-32.265v-447.469c-.001-17.822-14.454-32.265-32.276-32.265h33.759c17.822 0 32.265 14.443 32.265 32.265z" fill="#554e55"/><path d="m300.647 37.643v436.714c0 5.934-4.821 10.755-10.755 10.755h-227.412c-5.934 0-10.755-4.821-10.755-10.755v-436.714c0-5.934 4.821-10.755 10.755-10.755h29.587c7.129 0 12.908 5.779 12.908 12.908v5.635c0 7.129 5.779 12.908 12.908 12.908h116.606c7.129 0 12.908-5.779 12.908-12.908v-5.635c0-7.129 5.779-12.908 12.908-12.908h29.587c5.934 0 10.755 4.821 10.755 10.755z" fill="#f2eff2"/><path d="m300.647 368.898v105.46c0 5.934-4.821 10.755-10.755 10.755h-126.764v-105.914c0-5.687 4.615-10.302 10.302-10.302h127.217z" fill="#e1dde1"/><g><g><path d="m263.714 176.56c0-26.773-22.214-48.357-49.216-47.328-24.579.937-44.589 20.991-45.478 45.572-.642 17.744 8.485 33.401 22.423 42.033 7.233 4.48 11.737 12.281 11.737 20.789v36.648c0 7.274 5.897 13.171 13.171 13.171 7.274 0 13.171-5.897 13.171-13.171v-36.65c0-8.446 4.394-16.275 11.59-20.695 13.558-8.33 22.602-23.289 22.602-40.369z" fill="#fb3a82"/><g><circle cx="216.351" cy="176.56" fill="#f2eff2" r="20.147"/></g></g><g><path d="m129.971 431.155h-21.405c-15.24 0-27.639-12.398-27.639-27.638s12.399-27.639 27.639-27.639h127.438c6.719 0 12.186-5.466 12.186-12.186 0-6.719-5.467-12.186-12.186-12.186h-127.438c-15.24 0-27.639-12.399-27.639-27.639s12.399-27.638 27.639-27.638h71.943c4.267 0 7.726 3.459 7.726 7.726s-3.459 7.726-7.726 7.726h-71.943c-6.719 0-12.186 5.466-12.186 12.186 0 6.719 5.467 12.186 12.186 12.186h127.438c15.24 0 27.639 12.398 27.639 27.638s-12.399 27.638-27.639 27.638h-127.438c-6.719 0-12.186 5.467-12.186 12.186s5.467 12.186 12.186 12.186h21.405c4.267 0 7.726 3.459 7.726 7.726.001 4.269-3.458 7.728-7.726 7.728z" fill="#cecece"/></g></g><path d="m300.645 37.643v436.714c0 5.934-4.821 10.755-10.755 10.755h-29.37c5.934 0 10.755-4.821 10.755-10.755v-436.714c0-5.934-4.821-10.755-10.755-10.755h29.37c5.934 0 10.755 4.821 10.755 10.755z" fill="#e1dde1"/></g></g></g></g><g><g><path d="m396.99 379.199v122.499c0 5.687-4.615 10.302-10.302 10.302h-189.677c-5.687 0-10.302-4.615-10.302-10.302v-122.499c0-5.687 4.615-10.302 10.302-10.302h76.409v55.496c0 2.833 2.318 5.151 5.151 5.151h26.558c2.843 0 5.151-2.318 5.151-5.151v-55.496h76.409c5.685.001 10.301 4.616 10.301 10.302z" fill="#fcb44d"/><path d="m315.43 368.898v77.13c0 5.687-4.615 10.302-10.302 10.302h-26.558c-5.687 0-10.302-4.615-10.302-10.302v-77.13h5.151v55.496c0 2.833 2.318 5.151 5.151 5.151h26.558c2.843 0 5.151-2.318 5.151-5.151v-55.496z" fill="#fca62f"/><path d="m396.994 379.199v122.499c0 5.687-4.615 10.302-10.302 10.302h-35.098c5.687 0 10.302-4.615 10.302-10.302v-122.499c0-5.687-4.615-10.302-10.302-10.302h35.098c5.687.001 10.302 4.616 10.302 10.302z" fill="#fca62f"/><path d="m315.432 424.39v-55.491h-47.161v55.491c0 5.69 4.612 10.302 10.302 10.302h26.558c5.689 0 10.301-4.612 10.301-10.302z" fill="#fee7c9"/></g><g><path d="m231.763 464.716h-14.188c-4.267 0-7.726-3.459-7.726-7.726s3.459-7.726 7.726-7.726h14.188c4.267 0 7.726 3.459 7.726 7.726.001 4.267-3.459 7.726-7.726 7.726z" fill="#fb9927"/></g><g><path d="m275.819 489.745h-58.243c-4.267 0-7.726-3.459-7.726-7.726s3.459-7.726 7.726-7.726h58.243c4.267 0 7.726 3.459 7.726 7.726s-3.459 7.726-7.726 7.726z" fill="#fb9927"/></g></g></g></g><g><g><g><g><path d="m109.941 126.132h-18.461c-4.267 0-7.726-3.459-7.726-7.726s3.459-7.726 7.726-7.726h18.46c4.267 0 7.726 3.459 7.726 7.726s-3.458 7.726-7.725 7.726z" fill="#fb3a82"/></g><g><path d="m140.017 149.923h-48.537c-4.267 0-7.726-3.459-7.726-7.726s3.459-7.726 7.726-7.726h48.536c4.267 0 7.726 3.459 7.726 7.726.001 4.267-3.458 7.726-7.725 7.726z" fill="#fb3a82"/></g></g><g><g><path d="m109.941 231.21h-18.461c-4.267 0-7.726-3.459-7.726-7.726s3.459-7.726 7.726-7.726h18.46c4.267 0 7.726 3.459 7.726 7.726s-3.458 7.726-7.725 7.726z" fill="#fb3a82"/></g><g><path d="m140.017 255.001h-48.537c-4.267 0-7.726-3.459-7.726-7.726s3.459-7.726 7.726-7.726h48.536c4.267 0 7.726 3.459 7.726 7.726s-3.458 7.726-7.725 7.726z" fill="#fb3a82"/></g></g></g><g><path d="m100.05 193.306c-1.977 0-3.955-.754-5.463-2.263l-8.569-8.569c-3.017-3.017-3.018-7.909 0-10.927 3.017-3.017 7.909-3.018 10.927 0l3.106 3.106 3.106-3.106c3.017-3.017 7.909-3.017 10.927 0s3.018 7.909 0 10.927l-8.569 8.569c-1.51 1.508-3.488 2.263-5.465 2.263z" fill="#cecece"/></g></g></g></svg>