<svg id="Layer_1" enable-background="new 0 0 52 52" height="512" viewBox="0 0 52 52" width="512" xmlns="http://www.w3.org/2000/svg"><g id="Mobile_Geolocation"><g><g><path d="m49.0806847 35.2519112-.0100098 3.3400269c0 .3300171-.2200317.6799927-.6700439.9299927l-15.3199463 8.8500366c-.8800049.5099487-2.3200054.5099487-3.2100201 0l-27.2200322-15.8200074c-.4299927-.2600098-.6499634-.590025-.6499634-.9299908v-3.3099976c-.0100099-.3500366.210022-.6900024.6699829-.960022l15.3200073-8.8400269c.8900146-.5100098 2.3200073-.5100098 3.2000122 0l27.2199688 15.8200054c.4400024.2600098.6600342.5900269.6600342.9299927.0000005-.0100096.0100103-.0100096.0100103-.0100096z" fill="#9ea9c9"/><g><g><path d="m49.0749779 38.5896988c0 .3355904-.2267876.6802559-.6711807.934269l-15.3191757 8.8431244c-.8887863.5169983-2.3219051.5169983-3.2106915 0l-27.2189131-15.8179169c-.4353173-.2540131-.6530292-.5896053-.6530292-.9252014l.0009608-3.331234c0 .3355904.2177122.6711826.6530402.9250908l27.2188072 15.8180161c.8888817.5079269 2.3218937.5079269 3.2107868 0l15.3190689-8.8432236c.4443932-.2629852.6711807-.5985756.6711807-.9432411z" fill="#9ea9c9"/></g><g><path d="m2.669111 27.3557987c-.8918718.514864-.890708 1.3473816-.0104637 1.8589344l27.21838 15.8175964c.8860092.5148621 2.3174191.5148621 3.2091961 0l15.3168259-8.8431244c.8917885-.5148621.8964729-1.3440704.0104637-1.8589325l-27.2184866-15.8175964c-.8801365-.5115528-2.317421-.514864-3.2091961 0z" fill="#1d2943"/></g><g><path d="m14.0135307 21.1530895c-.3401928.1963577-.3419018.5073891-.0110092.6996899.3309994.1922989.8678589.1922989 1.2080402-.0040588.3331347-.1922989.3348427-.5033321.0039511-.695631-.3309993-.1923009-.8678474-.1923009-1.2009821-.0000001z" fill="#4c5c75"/></g><g><path d="m12.893034 22.0886421c-.2125864.1226826-.2136545.3191471-.0024557.4419365.2111988.1226845.550313.1226845.7630062 0 .2125978-.1227894.213666-.3192539.0024557-.4419365-.2111988-.1227894-.550313-.1227894-.7630062 0z" fill="#4c5c75"/></g><g><path d="m47.7635803 35.8185921-15.3100967 8.8431244c-.5442276.3083611-1.4057865.3083611-1.9227867 0l-27.2369583-15.817915c-.5169995-.308363-.5260751-.8072109.0181515-1.1156807l2.8206573-1.6325741c.1813984-.0997257.4626408-.0997257.634974 0l.4534688.263092c.1723328.0997257.4625444.0997257.6348882 0l8.3987179-4.8433723c.1723328-.0997276.1723328-.2720604 0-.3718929l-.4534683-.262991c-.1814089-.09972-.1723328-.2629776 0-.362812l2.8298283-1.6325722c.5260754-.308363 1.3968182-.308363 1.9137096-.0090771l27.2369576 15.8269901c.5170139.3084718.5170139.8073197-.0180432 1.1156808z" fill="#fff"/></g><g><path d="m47.7596245 35.816185-3.6713524 2.1180916-.7867584.4538918-10.8528328 6.2736282c-.1916428.1109962-.4236069.1815453-.6757622.211834-.4337025.0605164-.9077892-.0100975-1.240591-.211834l-.1311264-.07061-27.1118897-15.7446481c-.3025756-.1815453-.433702-.4337025-.3731868-.6656666.0403228-.1614151.1714492-.3227673.3933792-.4538937l1.5028439-.8674049 1.3212981-.7665653c.1815457-.1008377.4639292-.1008377.6354399 0l.4538326.2622528c.1715112.1008377.4639907.1008377.6354399 0l8.3917809-4.8413963c.1815453-.1008987.1815453-.2723484 0-.3732471l-.4538937-.2621918c-.1815462-.1009007-.1714497-.2622528 0-.3631535l2.8342381-1.6339703c.5245056-.3025742 1.4020061-.3025742 1.9164143-.0100956l2.1987991 1.2809753.7867584.4538956 5.2044868 3.0258789.7867584.4639912 11.3873711 6.6165886 2.6829224 1.5633583 4.1858253 2.4307632c.5144081.3025743.5144081.8068887-.020195 1.1095277z" fill="#fff"/></g><g><g enable-background="new"><g><g fill="#1d2943"><path d="m5.5106788 32.2819405c0 .2700195-.1000366.4699707-.25.5599976l-.5700073.3300171c-.0100098 0-.0100098.0100098-.0200195.0100098-.1599731.1099854-.3800049.0999756-.6400146-.0400391-.4699707-.2799683-.8599854-.9400024-.8599854-1.4899883.0100098-.289978.1199951-.4799805.2900391-.5700073l.5799561-.3399658c.1600342-.0900269.3800049-.0700073.6199951.0599976.4700316.2799681.8500365.9299925.8500365 1.4799784z"/><path d="m8.4006319 33.9619331c0 .2800293-.0899658.4700317-.25.5599976l-.5699458.3300171s-.0100098.0100098-.0200195.0100098c-.1500244.1099854-.3800049.0999756-.6300049-.0400391-.4799805-.2799683-.8599854-.9400024-.8599854-1.4899902 0-.289978.1099854-.4799805.2799683-.5599976l.5900269-.3499756c.1499634-.0900269.3699951-.0700073.6099854.0599976.4799799.2799682.8599848.9400024.849975 1.4799804z"/></g></g></g></g><g><g enable-background="new"><g><g><path d="m5.5110059 32.2825623c0 .2729149-.0968442.4664955-.2508016.5544777l-.6205807.3608932c.1540747-.0879822.2508121-.2816696.2508121-.5544739.0044847-.545723-.378407-1.2057991-.8536572-1.478714-.237679-.1363506-.4576333-.1495895-.6117079-.0615025l.6204631-.3608952c.1540747-.0879822.374136-.0748482.6117077.0616035.4752507.2771913.8581528.9328882.8537645 1.4786112z" fill="#1d2943"/></g></g><g><g><path d="m4.037312 31.165493c.4748235.2741947.8556862.9338455.8541913 1.4794579-.0016017.5456161-.3849201.7673874-.8597436.4931908-.4748235-.2740898-.8585689-.9386559-.8569674-1.4842701.0014949-.5456143.387707-.7624665.8625197-.4883786z" fill="#4c5c75"/></g></g></g></g><g><g enable-background="new"><g><g><path d="m8.4052191 33.9645729c0 .2728043-.0968437.4664879-.2508116.5544739l-.6204634.3607902c.1539683-.0879822.2508121-.2815628.2508121-.5544815.0043778-.5456161-.3785133-1.2057915-.8537641-1.4785995-.2375722-.1364594-.457633-.1495895-.6115904-.0616112l.6204524-.3607864c.1539683-.088089.3740292-.0748482.6117187.0615005.4752398.2772904.8581314.9329834.8536463 1.478714z" fill="#1d2943"/></g></g><g><g><path d="m6.9315257 32.8475037c.4749308.274086.855793.9338417.8541913 1.4794579-.0014944.5456161-.3849196.7672768-.8597436.4931908-.4748235-.2741966-.8584619-.9387589-.8569674-1.4843712.0016126-.5456163.3876962-.7624742.8625197-.4882775z" fill="#4c5c75"/></g></g></g></g><g><g><g><g><path d="m33.8319321 45.5739861c.3326035-.1919746.6027412-.0445175.6037025.3307915.0012779.3818245-.2673645.8468246-.5996437 1.0389099-.3325996.1916618-.5967484.0344887-.5980415-.3473358-.0009613-.3753129.2617035-.8305932.5939827-1.0223656z" fill="#1d2943"/></g></g><g><g><path d="m35.9809723 44.3333855c.3322906-.1919785.6024284-.0445251.6036987.3306808.0009613.3819275-.2673607.8469238-.5996437 1.0389099-.3325996.1917648-.5970764.0344887-.5980377-.3473358-.0009613-.375206.2617035-.8304863.5939827-1.0222549z" fill="#1d2943"/></g></g><g><g><path d="m38.1300087 43.0924606c.332283-.1917648.6024208-.0443115.6037025.3309975.0008545.3818245-.2676849.8468208-.5999527 1.0385895-.3322906.1919823-.5967712.0348091-.5977325-.3470154-.0012703-.3756294.2617035-.8305931.5939827-1.0225716z" fill="#1d2943"/></g></g></g><g><g><g><path d="m43.265728 40.1204071c.332283-.1917648.6028595-.0442085.6037025.3310013.0009575.3818169-.2672577.8468208-.5998459 1.0385895-.3322906.1920815-.5968666.0348091-.5977325-.3470154-.0009613-.3756333.2615967-.8305969.5938759-1.0225754z" fill="#1d2943"/></g></g><g><g><path d="m45.4147682 38.8796959c.3322792-.1916618.602417-.0442123.6036987.3311043.0009613.3818245-.2673607.8468246-.5999603 1.0385895-.3321762.1919746-.5967598.0348091-.5977211-.3474426-.0011749-.3752023.2617035-.8301659.5939827-1.0222512z" fill="#1d2943"/></g></g><g><g><path d="m47.5638046 37.6390877c.3322945-.1916618.6024323-.0445251.6033821.3310013.0012817.3818207-.2673645.8469315-.5996437 1.0385895-.3322792.1920853-.5967598.0348091-.5980415-.3470154-.0009613-.3756295.2617035-.8305932.5943031-1.0225754z" fill="#1d2943"/></g></g></g></g><g><g><path d="m41.9706383 40.7419624-.3899536 1.9799805-1.75 1.0100098-.4000245-1.5200196.6400147-.3699951z" fill="#1d2943"/></g></g><g><g><path d="m40.0699844 41.8376541-.6397895.3693314.4016838 1.523983 1.7499199-1.0104027z" fill="#1d2943"/></g><g><path d="m41.5832939 42.7196045.3916435-1.9820442-1.904953 1.1000938 1.5118142.8829117z" fill="#4c5c75"/></g></g><g><g enable-background="new"><g><g><path d="m22.745697 20.1521816-13.4853325 7.7866307-4.4480166-1.0792389 1.3212981-.7665654c.1815457-.1008377.4639292-.1008377.6354399 0l.4538326.2622528c.1715112.1008377.4639907.1008377.6354399 0l8.3917809-4.8413963c.1815453-.1008987.1815453-.2723484 0-.3732471l-.4538937-.2621918c-.1815462-.1009007-.1714497-.2622528 0-.3631535l2.8342381-1.6339703c.5245056-.3025742 1.4020061-.3025742 1.9164143-.0100956z" fill="#f45170"/></g><g><path d="m28.7369423 23.6319561-6.6670075 3.842865-.6959552 3.3990669-11.0040894-2.6728859 13.1625652-7.5949249z" fill="#febc1f"/></g><g><path d="m40.9110718 30.7125359-1.7751923.1210289-10.6107101-6.162756.9985313-.5748615z" fill="#78e75a"/></g></g><g><g><path d="m39.1358795 30.8335648-1.2203979.2117729-10.1871662-5.9206333-4.5892392 2.6526928-.6858577 3.3587436-1.0792389-.2622528.6959552-3.3990669 6.6670075-3.842865.7867584.4639912-.9985313.5748615z" fill="#f3f1fc"/></g></g><g><g><path d="m27.7263813 25.1287613-4.5899258 2.6499939-.6792698 3.3617153 6.2042141 1.5068493 9.2530785-1.5978832z" fill="#dba660"/></g></g><g><g><path d="m43.5939941 32.2758942-7.6151199.9481125-1.2103653.2117729-6.1727886 1.0691414-8.5329418-2.1079979-3.3990669-.8371754-13.7475868-3.3788757c.0403228-.1614151.1714492-.3227673.3933792-.4538937l1.5028439-.8674049 4.4480166 1.0792389 1.1095257.2621899 11.0040894 2.6728859 1.0792389.2622528 6.2131119 1.5129414 9.2491512-1.6037445 1.2203979-.2117729 1.7751923-.1210289z" fill="#f3f1fc"/></g></g><g><g><path d="m44.0882721 37.9342766-.7867584.4538917-8.5330048-4.9523887 1.2103653-.2117729z" fill="#f3f1fc"/></g></g><g><g><path d="m30.4012012 44.5911865-27.1118896-15.744648c-.3025756-.1815453-.433702-.4337025-.3731868-.6656666l13.7475872 3.3788757 13.485332 7.8672734z" fill="#57b3fe"/></g><g><path d="m43.3015137 38.3881683-10.8528328 6.2736282c-.1916428.1109962-.4236069.1815453-.6757622.211834l-.2622528-5.8197937-11.4478874-6.6569138 8.5329418 2.1079979 6.1727886-1.0691414z" fill="#f45170"/></g><g><path d="m47.7596245 35.816185-3.6713524 2.1180916-8.1093979-4.7102699 7.6151199-.9481125 4.1858253 2.4307632c.5144082.3025742.5144082.8068886-.0201949 1.1095276z" fill="#78e75a"/></g></g><g><g><path d="m31.7729187 44.8736305c-.4337025.0605164-.9077892-.0100975-1.240591-.211834l-.1311264-.07061-.2521573-5.1641655-13.4853325-7.8672733 3.3990669.8371754 11.4478874 6.6569138z" fill="#f3f1fc"/></g></g></g><g><g><path d="m23.5324554 20.6060772-13.1625652 7.5949249-1.1095257-.2621898 13.4853325-7.7866307z" fill="#f3f1fc"/></g></g></g></g><path d="m22.7206402 4.9219565-2.1099854-1.2300413c-1.2000122-.6999512-2.8599854-.5999756-4.7000132.4600217-3.6399536 2.1099854-6.5799561 7.2000127-6.5599976 11.4000244 0 2.0799561.7300415 3.5299683 1.9100342 4.2199707l2.1300049 1.2399902c-.0400391-.0299683-.0700073-.0599976-.1100464-.0799561.1100464.0699463.2300415.1199951.3500366.1799927l2.3599854 9.3399658 2.1300058 1.2399902 2.5299683-13.2099609c2.3800049-2.5200195 4.0300293-6.1699829 4.0200195-9.3099976.0000001-2.1000364-.7499999-3.5599973-1.9500121-4.2499998zm-6.7699595 11.3299566c-.6300049.3600464-1.2200317.5500488-1.7600098.5700073-.2399902-.4699707-.3699951-1.0599976-.3800049-1.7599487 0-2.710022 1.9000244-6 4.250001-7.3600469.6300049-.3599854 1.2199707-.539978 1.75-.5700073.2399902.4700317.3800049 1.059998.3800049 1.77002.0100098 2.710022-1.8900146 6-4.2399912 7.3499756z" fill="#986ff9"/><g><g enable-background="new"><g><g><path d="m18.12467 31.693985-2.1326265-1.2393475-2.5962858-10.2562408 2.1326265 1.2393474z" fill="#7e5af2"/></g></g><g><g><path d="m22.3291626 10.1465845c.0100956 2.7031126-1.896162 5.9911833-4.2361832 7.3427706-1.1901722.6858578-2.2593136.7463741-3.0359764.2924786l-2.1382828-1.2304935c.7765999.4437981 1.8558378.3832817 3.0359755-.3025761 2.3500566-1.3515873 4.2462797-4.63972 4.2361822-7.3428316 0-1.3515253-.4740238-2.2895408-1.240591-2.7434354l2.1281872 1.240591c.7665672.4437985 1.2406539 1.3919101 1.2506885 2.7434964z" fill="#986ff9"/></g></g><g><g><path d="m22.742733 4.9319406c-1.2002678-.6959548-2.8544312-.5950551-4.6901379.4639907-3.6512241 2.107995-6.5862999 7.2016087-6.5762043 11.387373.0100346 2.0878639.7362776 3.5402889 1.9163542 4.2261467l-2.1281881-1.240591c-1.1800756-.6858578-1.9164152-2.1382828-1.9164152-4.2160511-.0201302-4.1959209 2.9250422-9.2894735 6.5661697-11.3974686 1.8357077-1.0591073 3.4999666-1.1599455 4.7002344-.4639904z" fill="#986ff9"/></g></g><g><g><path d="m18.0501137 5.3952484c3.6448765-2.1043711 6.6103077-.4144149 6.6221809 3.7738743.0089169 3.1448822-1.6448421 6.7975807-4.0178604 9.3164845l-2.5297642 13.2083778-2.5962858-10.2562408c-2.3731022.2212238-4.0421524-1.5056152-4.0510674-4.6504955-.0118741-4.1882897 2.9278794-9.2876063 6.5727969-11.3920003zm.04072 12.0948773c2.3440495-1.3533382 4.2439995-4.6441841 4.2363415-7.3450994-.0076771-2.7082462-1.9200478-3.7980947-4.2640972-2.444757-2.3505096 1.3570676-4.2568798 4.6516671-4.2492018 7.3599133.007657 2.7009163 1.9264469 3.7870102 4.2769575 2.4299431z" fill="#b28afd"/></g></g></g></g></g><g><g><g><path d="m41.0606651 14.6219692-.0200195 6.7599488-5.5799561 3.2400512-6.3800029-3.6800537.0199585-6.7599487 5.5800151-3.2400513 2.2800293 1.3099976.7899781.4600219.2100219.1199952h.0099488l.790039.4600219z" fill="#f9a83d"/></g></g><g><g><path d="m41.0618134 14.620533-5.5784874 3.2418632-.020794 6.7602101 5.5784874-3.2418614z" fill="#f9a83d"/></g><g><path d="m29.1032848 14.1788778 6.3800412 3.6835184 5.5784874-3.2418632-6.3800393-3.6835175z" fill="#ffd06c"/></g><g><path d="m29.1032848 14.1788778-.020792 6.760211 6.3800392 3.6835175.020794-6.7602101z" fill="#febc1f"/></g><g><path d="m38.7604141 13.2915688-1.7980766-1.0381175-5.5784473 3.2418862 1.7980785 1.0381174z" fill="#f3f1fc"/></g><g><path d="m33.1819687 16.5334549v2.2438354l-.8990402-1.4244957-.8990383.3724404v-2.2298975z" fill="#dedffb"/></g><g><path d="m37.967617 12.833848-.2124786-.1226749-5.5784493 3.2418851.2124787.122675z" fill="#e9e7fc"/></g></g><g><g><path d="m50.0006676 19.8519497-.0200196 6.7600098-5.580017 3.2399902-6.3799439-3.6900024.0199585-6.7600098 5.5800171-3.2399902 2.2799683 1.3200073.790039.4599609.209961.1200562.8000488.4599609z" fill="#bf7d5a"/></g></g><g><g><path d="m49.9993324 19.8473549-5.5784912 3.2418632-.0207901 6.7602101 5.5784874-3.2418614z" fill="#bf7d5a"/></g><g><path d="m38.040802 19.4057007 6.3800392 3.6835174 5.5784912-3.2418632-6.3800392-3.6835175z" fill="#dba660"/></g><g><path d="m38.040802 19.4057007-.0207901 6.76021 6.3800392 3.6835175.0207901-6.7602101z" fill="#aa6256"/></g><g><path d="m47.6979332 18.5183907-1.7980766-1.0381165-5.5784455 3.2418861 1.7980767 1.0381165z" fill="#f3f1fc"/></g><g><path d="m42.1194878 21.7602768v2.2438354l-.8990403-1.4244957-.8990364.3724404v-2.2298966z" fill="#dedffb"/></g><g><path d="m46.9051361 18.0606709-.2124824-.1226769-5.5784455 3.2418861.2124787.122675z" fill="#e9e7fc"/></g></g></g></g></g></svg>