<svg id="Layer_1" enable-background="new 0 0 512 512" height="512" viewBox="0 0 512 512" width="512" xmlns="http://www.w3.org/2000/svg"><g clip-rule="evenodd" fill-rule="evenodd"><g><path d="m353 71.947h85.15c5.342 0 9.935 2.498 12.838 6.982l31.88 49.234c1.675 2.587 2.457 5.231 2.457 8.313v10.434l-2.533 7.177 2.533 8.217v61.593h-132.325z" fill="#d94452"/><path d="m384.348 92.424v39.533h75.443l-25.599-39.533z" fill="#a4d4ff"/><path d="m392.044 162.304c-4.251 0-7.697-3.446-7.697-7.697s3.446-7.697 7.697-7.697h12.71c4.251 0 7.697 3.446 7.697 7.697s-3.446 7.697-7.697 7.697z" fill="#636c77"/><path d="m485.326 146.91v15.394h-12.71c-4.251 0-7.697-3.446-7.697-7.697s3.446-7.697 7.697-7.697z" fill="#e4e8eb"/><path d="m81.892 16h279.904c1.211 0 2.199.988 2.199 2.199v192.153h-284.302v-192.153c0-1.211.988-2.199 2.199-2.199z" fill="#4fc0e8"/><path d="m112.148 43.316c0-4.251 3.446-7.697 7.697-7.697 4.25 0 7.697 3.446 7.697 7.697v122.016c0 4.251-3.446 7.697-7.697 7.697s-7.697-3.446-7.697-7.697zm203.998 0c0-4.251 3.446-7.697 7.697-7.697s7.697 3.446 7.697 7.697v122.016c0 4.251-3.446 7.697-7.697 7.697s-7.697-3.446-7.697-7.697zm-33.999 0c0-4.251 3.446-7.697 7.697-7.697 4.25 0 7.697 3.446 7.697 7.697v122.016c0 4.251-3.446 7.697-7.697 7.697s-7.697-3.446-7.697-7.697zm-34 0c0-4.251 3.446-7.697 7.697-7.697s7.697 3.446 7.697 7.697v122.016c0 4.251-3.446 7.697-7.697 7.697s-7.697-3.446-7.697-7.697zm-34 0c0-4.251 3.446-7.697 7.697-7.697s7.697 3.446 7.697 7.697v122.016c0 4.251-3.446 7.697-7.697 7.697s-7.697-3.446-7.697-7.697zm-33.999 0c0-4.251 3.446-7.697 7.697-7.697s7.697 3.446 7.697 7.697v122.016c0 4.251-3.446 7.697-7.697 7.697s-7.697-3.446-7.697-7.697zm-34 0c0-4.251 3.446-7.697 7.697-7.697s7.697 3.446 7.697 7.697v122.016c0 4.251-3.446 7.697-7.697 7.697s-7.697-3.446-7.697-7.697z" fill="#38a8d2"/><path d="m488.353 208.047h-409.623c-4.211 0-7.648 3.437-7.648 7.648v12.684c0 4.211 3.436 7.648 7.648 7.648h409.622c4.212 0 7.648-3.435 7.648-7.648v-12.684c0-4.213-3.438-7.648-7.647-7.648z" fill="#636c77"/><path d="m423.622 187.613c19.011 0 34.423 15.412 34.423 34.424 0 19.011-15.412 34.423-34.423 34.423s-34.424-15.412-34.424-34.423c0-19.012 15.412-34.424 34.424-34.424z" fill="#424852"/><path d="m423.621 213.036c4.97 0 9 4.029 9 9 0 4.97-4.03 9-9 9-4.971 0-9-4.03-9-9s4.03-9 9-9z" fill="#e4e8eb"/><path d="m222.387 187.613c19.011 0 34.423 15.412 34.423 34.424 0 19.011-15.412 34.423-34.423 34.423-19.012 0-34.424-15.412-34.424-34.423 0-19.012 15.412-34.424 34.424-34.424z" fill="#636c77"/><circle cx="222.386" cy="222.036" fill="#e4e8eb" r="9"/><path d="m133.539 187.613c19.011 0 34.423 15.412 34.423 34.424 0 19.011-15.412 34.423-34.423 34.423-19.012 0-34.424-15.412-34.424-34.423.001-19.012 15.413-34.424 34.424-34.424z" fill="#636c77"/><circle cx="133.539" cy="222.036" fill="#e4e8eb" r="9"/></g><g><path d="m325.459 191.718h85.15c5.342 0 9.935 2.498 12.838 6.982l31.881 49.234c1.675 2.587 2.457 5.231 2.457 8.313v10.434l-2.532 7.177 2.532 8.217v61.593h-132.326z" fill="#f5b945"/><path d="m356.806 212.195v39.532h75.444l-25.599-39.532z" fill="#a4d4ff"/><path d="m364.503 282.074c-4.251 0-7.697-3.446-7.697-7.697s3.446-7.697 7.697-7.697h12.71c4.251 0 7.697 3.446 7.697 7.697s-3.446 7.697-7.697 7.697z" fill="#636c77"/><path d="m457.784 266.681v15.394h-12.71c-4.251 0-7.697-3.446-7.697-7.697s3.446-7.697 7.697-7.697z" fill="#e4e8eb"/><path d="m54.351 135.77h279.904c1.211 0 2.199.988 2.199 2.199v192.154h-284.302v-192.154c0-1.211.988-2.199 2.199-2.199z" fill="#cad0d7"/><path d="m84.606 163.086c0-4.251 3.446-7.697 7.697-7.697s7.697 3.446 7.697 7.697v122.016c0 4.251-3.446 7.697-7.697 7.697s-7.697-3.446-7.697-7.697zm203.999 0c0-4.251 3.446-7.697 7.697-7.697s7.697 3.446 7.697 7.697v122.016c0 4.251-3.446 7.697-7.697 7.697s-7.697-3.446-7.697-7.697zm-34 0c0-4.251 3.446-7.697 7.697-7.697 4.25 0 7.697 3.446 7.697 7.697v122.016c0 4.251-3.446 7.697-7.697 7.697s-7.697-3.446-7.697-7.697zm-33.999 0c0-4.251 3.446-7.697 7.697-7.697s7.697 3.446 7.697 7.697v122.016c0 4.251-3.446 7.697-7.697 7.697s-7.697-3.446-7.697-7.697zm-34 0c0-4.251 3.446-7.697 7.697-7.697s7.697 3.446 7.697 7.697v122.016c0 4.251-3.446 7.697-7.697 7.697s-7.697-3.446-7.697-7.697zm-34 0c0-4.251 3.446-7.697 7.697-7.697s7.697 3.446 7.697 7.697v122.016c0 4.251-3.446 7.697-7.697 7.697s-7.697-3.446-7.697-7.697zm-34 0c0-4.251 3.446-7.697 7.697-7.697s7.697 3.446 7.697 7.697v122.016c0 4.251-3.446 7.697-7.697 7.697s-7.697-3.446-7.697-7.697z" fill="#a9b0bb"/><path d="m460.811 327.817h-409.622c-4.211 0-7.648 3.437-7.648 7.648v12.684c0 4.211 3.436 7.648 7.648 7.648h409.622c4.212 0 7.647-3.435 7.647-7.648v-12.684c.001-4.213-3.437-7.648-7.647-7.648z" fill="#636c77"/><path d="m396.08 307.383c19.011 0 34.423 15.412 34.423 34.424 0 19.011-15.412 34.423-34.423 34.423s-34.424-15.412-34.424-34.423c0-19.012 15.413-34.424 34.424-34.424z" fill="#424852"/><path d="m396.08 332.807c4.97 0 9 4.029 9 9 0 4.97-4.03 9-9 9-4.971 0-9-4.03-9-9 0-4.971 4.029-9 9-9z" fill="#e4e8eb"/><path d="m194.845 307.383c19.011 0 34.423 15.412 34.423 34.424 0 19.011-15.412 34.423-34.423 34.423-19.012 0-34.424-15.412-34.424-34.423.001-19.012 15.413-34.424 34.424-34.424z" fill="#636c77"/><circle cx="194.845" cy="341.807" fill="#e4e8eb" r="9"/><path d="m105.998 307.383c19.011 0 34.423 15.412 34.423 34.424 0 19.011-15.412 34.423-34.423 34.423-19.012 0-34.424-15.412-34.424-34.423 0-19.012 15.412-34.424 34.424-34.424z" fill="#636c77"/><circle cx="105.998" cy="341.807" fill="#e4e8eb" r="9"/></g><g><path d="m297.917 311.488h85.15c5.342 0 9.935 2.498 12.838 6.982l31.88 49.234c1.675 2.587 2.457 5.231 2.457 8.314v10.434l-2.532 7.177 2.532 8.217v61.593h-132.325z" fill="#d94452"/><path d="m329.265 331.965v39.532h75.443l-25.598-39.532z" fill="#a4d4ff"/><path d="m336.962 401.844c-4.25 0-7.697-3.446-7.697-7.697s3.446-7.697 7.697-7.697h12.71c4.251 0 7.697 3.446 7.697 7.697s-3.446 7.697-7.697 7.697z" fill="#636c77"/><path d="m430.243 386.451v15.394h-12.71c-4.251 0-7.697-3.446-7.697-7.697s3.446-7.697 7.697-7.697z" fill="#e4e8eb"/><path d="m26.809 255.54h279.904c1.211 0 2.199.988 2.199 2.199v192.154h-284.302v-192.154c0-1.211.988-2.199 2.199-2.199z" fill="#4fc0e8"/><path d="m57.065 282.856c0-4.251 3.446-7.697 7.697-7.697s7.697 3.446 7.697 7.697v122.016c0 4.251-3.446 7.697-7.697 7.697s-7.697-3.446-7.697-7.697zm203.999 0c0-4.251 3.446-7.697 7.697-7.697s7.697 3.446 7.697 7.697v122.016c0 4.251-3.446 7.697-7.697 7.697s-7.697-3.446-7.697-7.697zm-34 0c0-4.251 3.446-7.697 7.697-7.697s7.697 3.446 7.697 7.697v122.016c0 4.251-3.446 7.697-7.697 7.697s-7.697-3.446-7.697-7.697zm-34 0c0-4.251 3.446-7.697 7.697-7.697s7.697 3.446 7.697 7.697v122.016c0 4.251-3.446 7.697-7.697 7.697s-7.697-3.446-7.697-7.697zm-34 0c0-4.251 3.446-7.697 7.697-7.697 4.25 0 7.697 3.446 7.697 7.697v122.016c0 4.251-3.446 7.697-7.697 7.697s-7.697-3.446-7.697-7.697zm-33.999 0c0-4.251 3.446-7.697 7.697-7.697s7.697 3.446 7.697 7.697v122.016c0 4.251-3.446 7.697-7.697 7.697s-7.697-3.446-7.697-7.697zm-34 0c0-4.251 3.446-7.697 7.697-7.697s7.697 3.446 7.697 7.697v122.016c0 4.251-3.446 7.697-7.697 7.697s-7.697-3.446-7.697-7.697z" fill="#38a8d2"/><path d="m433.27 447.587h-409.622c-4.211 0-7.648 3.437-7.648 7.648v12.684c0 4.211 3.436 7.648 7.648 7.648h409.622c4.212 0 7.648-3.435 7.648-7.648v-12.684c-.001-4.213-3.439-7.648-7.648-7.648z" fill="#636c77"/><path d="m368.539 427.153c19.011 0 34.423 15.412 34.423 34.424 0 19.011-15.412 34.423-34.423 34.423s-34.424-15.412-34.424-34.423c0-19.012 15.412-34.424 34.424-34.424z" fill="#424852"/><path d="m368.538 452.577c4.971 0 9 4.029 9 9s-4.03 9-9 9c-4.971 0-9-4.029-9-9s4.03-9 9-9z" fill="#e4e8eb"/><path d="m167.304 427.153c19.011 0 34.423 15.412 34.423 34.424 0 19.011-15.412 34.423-34.423 34.423-19.012 0-34.424-15.412-34.424-34.423 0-19.012 15.412-34.424 34.424-34.424z" fill="#424852"/><circle cx="167.303" cy="461.577" fill="#e4e8eb" r="9"/><path d="m78.457 427.153c19.011 0 34.423 15.412 34.423 34.424 0 19.011-15.412 34.423-34.423 34.423-19.012 0-34.424-15.412-34.424-34.423 0-19.012 15.412-34.424 34.424-34.424z" fill="#424852"/><circle cx="78.456" cy="461.577" fill="#e4e8eb" r="9"/></g></g></svg>